{"glyphs":{"0":{"ha":676,"x_min":0,"x_max":0,"o":"m 338 972 b 56 689 182 971 56 845 l 56 283 b 338 0 56 127 182 0 b 621 283 495 0 621 127 l 621 689 b 338 972 621 845 495 971 z m 453 283 b 338 169 453 220 402 169 b 224 283 275 169 224 220 l 224 689 b 281 789 223 730 245 768 b 396 789 316 810 361 810 b 453 689 432 768 454 730 z "},"1":{"ha":360,"x_min":0,"x_max":0,"o":"m 140 972 l 56 972 l 56 804 l 136 804 l 136 0 l 304 0 l 304 807 b 140 972 304 898 230 971 z "},"2":{"ha":681,"x_min":0,"x_max":0,"o":"m 392 331 b 625 687 529 438 625 526 b 340 971 625 844 498 971 b 56 687 183 971 56 844 l 224 687 b 340 802 224 751 276 802 b 457 687 405 802 457 751 b 289 463 457 618 433 576 b 63 168 157 359 85 284 b 56 84 58 140 55 112 l 56 0 l 600 0 l 600 168 l 236 168 b 392 331 254 211 296 255 z "},"3":{"ha":681,"x_min":0,"x_max":0,"o":"m 625 687 b 340 972 625 844 498 972 b 56 687 183 972 56 844 l 224 687 b 296 795 224 734 252 777 b 423 769 339 813 390 803 b 448 642 457 736 467 686 b 340 570 430 598 388 570 l 279 570 l 279 402 l 340 402 b 448 330 388 402 430 373 b 423 202 467 286 457 236 b 296 177 390 169 339 159 b 224 285 252 195 224 238 l 56 285 b 266 10 55 156 142 43 b 587 142 391 -24 522 30 b 542 486 652 253 633 394 b 625 687 595 539 625 611 z "},"4":{"ha":681,"x_min":0,"x_max":0,"o":"m 457 971 l 457 687 b 340 570 457 622 405 570 b 224 687 276 570 224 622 l 224 972 l 56 972 l 56 687 b 186 447 56 590 105 500 b 457 427 267 395 369 387 l 457 0 l 625 0 l 625 971 z "},"5":{"ha":676,"x_min":0,"x_max":0,"o":"m 621 803 l 621 971 l 56 971 l 56 471 l 338 471 b 453 356 402 471 453 420 l 453 288 b 343 168 453 224 404 170 b 339 168 341 168 340 168 b 257 202 308 168 279 180 b 224 283 236 223 224 252 l 56 283 b 338 0 56 127 182 0 b 349 0 342 0 345 0 b 621 288 502 7 623 134 l 621 356 b 339 639 621 512 495 639 l 224 639 l 224 803 z "},"6":{"ha":682,"x_min":0,"x_max":0,"o":"m 340 570 b 224 545 300 570 260 561 l 224 689 b 338 802 224 752 275 802 b 453 689 402 802 453 752 l 621 689 b 480 935 622 790 568 884 b 197 935 393 986 284 986 b 56 689 109 884 55 790 l 56 283 l 56 283 b 342 0 57 126 185 -1 b 625 286 499 1 626 129 b 340 570 625 443 498 570 z m 340 168 b 224 285 276 168 224 220 b 340 402 224 349 276 402 b 457 285 405 402 457 349 b 340 168 457 220 405 168 z "},"7":{"ha":647,"x_min":0,"x_max":0,"o":"m 56 971 l 56 803 l 415 803 b 299 535 397 707 349 623 b 149 84 228 411 149 270 l 149 0 l 317 0 l 317 84 b 445 452 317 226 379 336 b 586 803 505 558 567 667 b 591 887 589 831 591 859 l 591 971 z "},"8":{"ha":681,"x_min":0,"x_max":0,"o":"m 625 687 b 414 962 625 816 539 928 b 94 830 290 995 159 941 b 139 486 29 718 48 577 b 139 83 28 374 28 194 b 542 83 250 -28 431 -28 b 542 486 653 194 653 374 b 625 687 595 539 625 611 z m 457 285 b 340 168 457 220 405 168 b 224 285 276 168 224 220 b 340 402 224 349 276 402 b 457 285 405 402 457 349 z m 224 687 b 340 804 224 751 276 804 b 457 687 405 804 457 751 b 340 570 457 622 405 570 b 224 687 276 570 224 622 z "},"9":{"ha":682,"x_min":0,"x_max":0,"o":"m 626 689 b 420 961 625 815 541 926 b 101 841 299 996 169 947 b 125 501 33 735 42 596 b 458 427 207 405 343 375 l 458 283 b 343 168 458 219 406 168 b 228 283 279 168 228 219 l 60 283 b 343 0 60 127 187 0 b 626 283 499 0 626 127 l 626 689 z m 341 570 b 233 642 294 570 251 598 b 258 769 215 686 225 736 b 386 795 292 803 342 813 b 458 687 429 776 458 734 b 341 570 458 622 406 570 z "},"\u0000":{"ha":0,"x_min":0,"x_max":0,"o":""},"\n":{"ha":0,"x_min":0,"x_max":0,"o":""},"\r":{"ha":0,"x_min":0,"x_max":0,"o":""}," ":{"ha":399,"x_min":0,"x_max":0,"o":""},"!":{"ha":307,"x_min":0,"x_max":0,"o":"m 252 -12 l 252 188 l 56 188 l 56 -12 z m 252 265 l 252 1070 l 56 1070 l 56 265 z "},"\"":{"ha":538,"x_min":0,"x_max":0,"o":"m 224 648 l 224 1084 l 56 1084 l 56 648 z m 482 648 l 482 1084 l 314 1084 l 314 648 z "},"#":{"ha":785,"x_min":0,"x_max":0,"o":"m 729 540 l 729 652 l 607 652 l 645 786 l 537 816 l 491 652 l 385 652 l 422 786 l 314 816 l 269 652 l 113 652 l 113 540 l 238 540 l 208 432 l 56 432 l 56 320 l 177 320 l 140 186 l 248 156 l 293 320 l 400 320 l 362 186 l 470 156 l 516 320 l 672 320 l 672 432 l 547 432 l 577 540 z m 431 432 l 324 432 l 354 540 l 460 540 z "},"$":{"ha":703,"x_min":0,"x_max":0,"o":"m 427 547 l 427 806 b 486 742 460 790 477 765 l 643 801 b 427 981 628 839 574 952 l 427 1078 l 277 1078 l 277 980 b 56 719 152 950 62 848 b 277 424 52 627 89 505 l 277 166 b 218 230 244 181 227 207 l 61 170 b 277 -10 75 132 130 20 l 277 -106 l 427 -106 l 427 -8 b 648 252 551 21 642 123 b 427 547 652 344 615 467 z m 224 712 b 277 801 225 750 246 781 l 277 615 b 224 712 221 656 223 696 z m 480 260 b 427 171 478 222 458 190 l 427 357 b 480 260 483 315 481 276 z "},"%":{"ha":1079,"x_min":0,"x_max":0,"o":"m 276 530 b 497 751 398 530 497 629 b 276 972 497 873 398 972 b 56 751 155 972 56 873 b 276 530 56 629 155 530 z m 276 822 b 347 751 315 822 347 790 b 276 680 347 712 315 680 b 205 751 237 680 205 712 b 276 822 205 790 237 822 z m 803 441 b 583 221 682 441 583 342 b 803 0 583 99 682 0 b 1024 221 925 0 1024 99 b 803 441 1024 342 925 441 z m 803 150 b 732 221 764 150 732 181 b 803 292 732 260 764 292 b 874 221 842 292 874 260 b 803 150 874 181 842 150 z m 981 905 l 863 1001 l 99 68 l 216 -28 z "},"&":{"ha":813,"x_min":0,"x_max":0,"o":"m 370 629 b 283 716 322 629 283 668 b 370 804 283 764 322 804 b 457 716 418 804 457 764 l 625 716 b 370 972 625 857 511 972 b 115 716 229 972 115 857 b 170 558 115 656 136 601 b 56 315 100 500 56 412 b 370 0 56 141 197 0 b 685 315 544 0 685 141 l 685 461 l 758 461 l 758 629 z m 517 315 b 370 168 517 234 451 168 b 224 315 289 168 224 234 b 370 461 224 395 289 461 l 517 461 z "},"'":{"ha":278,"x_min":0,"x_max":0,"o":"m 224 648 l 224 1084 l 56 1084 l 56 648 z "},"(":{"ha":472,"x_min":0,"x_max":0,"o":"m 300 876 b 418 924 332 907 374 924 l 418 1120 b 162 1014 321 1120 230 1083 b 56 758 93 946 56 855 l 56 214 b 162 -43 56 117 93 26 b 418 -149 230 -111 321 -149 l 418 47 b 300 96 374 47 332 64 b 252 214 269 127 252 169 l 252 758 b 300 876 252 802 269 844 z "},")":{"ha":472,"x_min":0,"x_max":0,"o":"m 312 1014 b 56 1120 243 1083 152 1120 l 56 924 b 173 876 100 924 142 907 b 222 758 205 844 222 802 l 222 214 b 173 96 222 169 205 127 b 56 47 142 64 100 47 l 56 -149 b 312 -43 152 -149 243 -111 b 418 214 380 26 418 117 l 418 758 b 312 1014 418 855 380 946 z "},"*":{"ha":460,"x_min":0,"x_max":0,"o":"m 404 844 l 358 925 l 277 878 l 277 972 l 183 972 l 183 878 l 102 925 l 56 844 l 137 797 l 56 750 l 102 669 l 183 716 l 183 623 l 277 623 l 277 716 l 358 669 l 404 750 l 323 797 z "},"+":{"ha":554,"x_min":0,"x_max":0,"o":"m 347 556 l 347 707 l 207 707 l 207 556 l 56 556 l 56 416 l 207 416 l 207 264 l 347 264 l 347 416 l 499 416 l 499 556 z "},",":{"ha":290,"x_min":0,"x_max":0,"o":"m 66 168 l 66 -65 b 32 -100 66 -84 51 -100 l 14 -100 l 14 -268 l 32 -268 b 234 -65 144 -268 234 -177 l 234 168 z "},"-":{"ha":554,"x_min":0,"x_max":0,"o":"m 499 416 l 499 556 l 56 556 l 56 416 z "},".":{"ha":279,"x_min":0,"x_max":0,"o":"m 224 0 l 224 172 l 56 172 l 56 0 z "},"/":{"ha":640,"x_min":0,"x_max":0,"o":"m 585 1017 l 398 1075 l 56 -44 l 243 -102 z "},":":{"ha":279,"x_min":0,"x_max":0,"o":"m 224 0 l 224 172 l 56 172 l 56 0 z m 224 441 l 224 613 l 56 613 l 56 441 z "},";":{"ha":279,"x_min":0,"x_max":0,"o":"m 55 168 l 55 -65 b 21 -100 55 -84 40 -100 l 3 -100 l 3 -268 l 21 -268 b 223 -65 133 -268 223 -177 l 223 168 z m 223 441 l 223 613 l 55 613 l 55 441 z "},"<":{"ha":532,"x_min":0,"x_max":0,"o":"m 223 486 b 226 492 223 488 224 491 l 477 743 l 358 862 l 107 611 b 107 360 38 542 38 430 l 358 110 l 477 229 l 226 479 b 223 486 224 481 223 483 z "},"=":{"ha":554,"x_min":0,"x_max":0,"o":"m 499 305 l 499 445 l 56 445 l 56 305 z m 499 527 l 499 667 l 56 667 l 56 527 z "},">":{"ha":532,"x_min":0,"x_max":0,"o":"m 425 611 l 174 862 l 56 743 l 306 492 b 306 479 310 489 310 483 l 56 229 l 174 110 l 425 360 b 425 611 494 430 494 542 z "},"?":{"ha":657,"x_min":0,"x_max":0,"o":"m 312 -12 l 312 188 l 116 188 l 116 -12 z m 508 977 b 56 977 383 1102 180 1102 l 194 838 b 343 858 234 878 295 886 b 401 719 392 830 415 773 b 282 627 387 665 338 627 l 116 627 l 116 275 l 312 275 l 312 433 b 582 643 435 444 541 526 b 508 977 624 759 595 889 z "},"@":{"ha":878,"x_min":0,"x_max":0,"o":"m 705 760 b 439 870 632 831 538 870 b 432 869 436 870 434 869 b 56 486 224 866 56 693 b 439 102 56 274 228 102 l 491 102 l 491 205 l 439 205 b 158 486 284 205 158 331 b 434 767 158 638 282 764 b 439 767 436 767 437 767 b 633 686 511 767 580 738 b 720 479 689 632 720 556 l 720 477 b 664 420 720 446 695 420 b 607 477 633 420 607 446 l 607 654 l 505 654 l 505 641 b 439 654 485 649 463 654 b 271 486 347 654 271 578 b 439 318 271 393 347 318 b 553 363 483 318 523 335 b 664 318 582 335 621 318 b 823 477 752 318 823 389 l 823 479 b 705 760 823 584 780 686 z m 439 420 b 374 486 403 420 374 450 b 439 551 374 522 403 551 b 505 486 475 551 505 522 b 439 420 505 450 475 420 z "},"A":{"ha":756,"x_min":0,"x_max":0,"o":"m 378 972 b 56 649 200 971 56 827 l 56 0 l 224 0 l 224 346 l 533 346 l 533 1 l 701 1 l 701 649 b 378 972 700 827 556 971 z m 224 514 l 224 649 b 378 804 224 734 293 804 b 533 649 463 804 533 734 l 533 514 z "},"B":{"ha":818,"x_min":0,"x_max":0,"o":"m 623 530 b 636 822 681 618 686 730 b 385 972 586 914 490 972 l 28 972 l 28 804 l 101 804 l 101 1 l 478 1 b 753 210 607 1 719 86 b 623 530 787 334 734 465 z m 269 804 l 385 804 b 487 746 427 804 466 782 b 487 628 508 709 508 664 b 385 570 466 592 427 570 l 269 570 z m 269 169 l 269 402 l 478 402 b 595 285 543 402 595 350 b 478 169 595 221 543 169 z "},"C":{"ha":757,"x_min":0,"x_max":0,"o":"m 379 170 b 224 325 293 170 224 239 l 224 650 b 379 806 224 736 293 806 b 534 650 464 806 534 736 l 702 650 b 379 974 702 829 557 974 b 56 650 200 974 56 829 l 56 325 b 379 2 56 147 200 2 b 702 325 557 2 702 147 l 534 325 b 379 170 534 239 464 170 z "},"D":{"ha":778,"x_min":0,"x_max":0,"o":"m 411 972 l 28 972 l 28 804 l 101 804 l 101 0 l 411 0 b 722 311 582 0 722 139 l 722 660 b 411 972 722 832 582 971 z m 554 311 b 410 168 554 232 490 168 l 269 168 l 269 804 l 411 804 b 554 660 490 803 554 739 z "},"E":{"ha":707,"x_min":0,"x_max":0,"o":"m 340 804 l 651 804 l 651 972 l 340 972 b 56 687 183 971 56 844 l 56 285 b 340 0 56 128 183 0 l 651 0 l 651 168 l 340 168 b 224 285 276 168 224 220 l 224 427 b 340 402 260 410 300 402 l 651 402 l 651 570 l 340 570 b 224 687 276 570 224 622 b 340 804 224 751 276 804 z "},"F":{"ha":707,"x_min":0,"x_max":0,"o":"m 340 804 l 651 804 l 651 972 l 340 972 b 56 687 183 971 56 844 l 56 0 l 224 0 l 224 427 b 340 402 260 410 300 402 l 651 402 l 651 570 l 340 570 b 238 628 298 569 259 592 b 238 745 217 664 217 709 b 340 804 259 782 298 804 z "},"G":{"ha":757,"x_min":0,"x_max":0,"o":"m 379 570 l 379 402 l 534 402 l 534 323 b 379 168 534 237 464 168 b 224 323 293 168 224 237 l 224 649 b 319 792 224 711 261 768 b 488 758 377 816 444 803 l 607 877 b 255 947 515 969 376 997 b 56 649 134 897 56 779 l 56 323 b 379 2 57 145 201 2 b 702 323 556 2 701 145 l 702 570 z "},"H":{"ha":757,"x_min":0,"x_max":0,"o":"m 534 971 l 534 569 l 224 569 l 224 971 l 56 971 l 56 -1 l 224 -1 l 224 402 l 534 402 l 534 0 l 702 0 l 702 971 z "},"I":{"ha":425,"x_min":0,"x_max":0,"o":"m 369 801 l 369 969 l 296 969 l 296 971 l 128 971 l 128 969 l 56 969 l 56 801 l 128 801 l 128 167 l 56 167 l 56 -1 l 369 -1 l 369 167 l 296 167 l 296 801 z "},"J":{"ha":688,"x_min":0,"x_max":0,"o":"m 330 971 l 330 803 l 464 803 l 464 301 b 330 167 464 227 404 167 b 196 301 256 167 196 227 l 28 301 b 330 -1 28 134 163 -1 b 632 301 497 -1 632 134 l 632 971 z "},"K":{"ha":726,"x_min":0,"x_max":0,"o":"m 671 708 l 671 971 l 503 971 l 503 708 b 374 569 503 635 447 575 b 364 570 371 569 367 570 l 224 570 l 224 971 l 56 971 l 56 -1 l 224 -1 l 224 401 l 364 401 b 374 401 367 401 371 401 b 503 262 447 396 503 335 l 503 0 l 671 0 l 671 262 b 575 485 671 347 637 427 b 671 708 637 543 671 624 z "},"L":{"ha":672,"x_min":0,"x_max":0,"o":"m 224 167 l 224 971 l 56 971 l 56 -1 l 617 -1 l 617 167 z "},"M":{"ha":1164,"x_min":0,"x_max":0,"o":"m 816 973 b 608 885 738 973 663 941 b 232 919 508 987 348 1002 b 112 971 201 952 157 971 l 28 971 l 28 803 l 108 803 l 108 1 l 276 1 l 276 680 b 400 805 276 749 332 805 b 524 680 469 805 524 749 l 524 1 l 692 1 l 692 680 b 816 805 692 749 748 805 b 941 680 885 805 941 749 l 941 1 l 1109 1 l 1109 680 b 816 973 1108 842 978 972 z "},"N":{"ha":781,"x_min":0,"x_max":0,"o":"m 417 973 b 236 914 352 973 288 952 b 112 971 205 950 159 971 l 28 971 l 28 803 l 108 803 l 108 1 l 276 1 l 276 664 b 346 788 275 715 302 762 b 487 788 389 813 444 813 b 557 664 531 762 558 715 l 557 1 l 725 1 l 725 664 b 417 973 725 834 587 972 z "},"O":{"ha":729,"x_min":0,"x_max":0,"o":"m 365 973 b 42 650 186 973 42 828 l 42 325 b 365 1 42 146 186 1 b 688 325 543 1 688 146 l 688 650 b 365 973 688 828 543 973 z m 520 325 b 365 169 520 239 450 169 b 210 325 279 169 210 239 l 210 650 b 365 805 210 736 279 805 b 520 650 450 805 520 736 z "},"P":{"ha":699,"x_min":0,"x_max":0,"o":"m 386 973 l 28 973 l 28 805 l 101 805 l 101 1 l 269 1 l 269 403 l 386 403 b 671 688 543 403 671 531 b 386 973 671 845 543 973 z m 386 571 l 269 571 l 269 805 l 386 805 b 503 688 450 805 503 753 b 386 571 503 624 450 571 z "},"Q":{"ha":778,"x_min":0,"x_max":0,"o":"m 666 169 b 662 170 665 169 663 170 b 701 324 688 217 701 270 l 701 649 b 378 972 701 828 557 972 b 56 649 200 972 56 828 l 56 324 b 218 44 56 208 118 101 b 542 46 319 -13 443 -13 b 667 2 577 18 621 2 l 750 2 l 750 169 z m 378 169 b 224 324 293 170 224 239 l 224 649 b 378 804 224 735 293 804 b 533 649 464 804 533 735 l 533 324 b 531 295 533 315 532 305 l 420 406 l 301 287 l 414 174 b 378 169 403 171 391 169 z "},"R":{"ha":726,"x_min":0,"x_max":0,"o":"m 670 688 b 385 973 670 845 543 973 l 28 973 l 28 805 l 101 805 l 101 1 l 269 1 l 269 404 b 390 404 270 404 388 404 b 502 287 452 401 502 350 l 502 1 l 670 1 l 670 287 b 587 488 670 362 640 434 b 670 688 640 541 670 613 z m 385 572 l 269 572 l 269 805 l 385 805 b 502 690 449 805 501 754 b 390 572 503 627 453 574 b 385 572 388 572 387 572 z "},"S":{"ha":701,"x_min":0,"x_max":0,"o":"m 379 580 b 227 722 223 633 226 700 b 351 827 229 783 282 827 b 481 751 434 827 467 786 l 641 812 b 351 998 624 855 554 998 b 56 730 189 998 63 883 b 323 418 51 631 94 497 b 475 276 479 365 476 298 b 351 171 472 215 420 171 b 221 247 267 171 234 212 l 61 186 b 351 0 78 143 148 0 b 646 268 512 0 639 115 b 379 580 650 367 607 501 z "},"T":{"ha":617,"x_min":0,"x_max":0,"o":"m 28 973 l 28 805 l 225 805 l 225 2 l 393 2 l 393 805 l 589 805 l 589 973 z "},"U":{"ha":769,"x_min":0,"x_max":0,"o":"m 669 169 l 669 973 l 501 973 l 501 308 b 362 170 501 232 439 170 b 224 308 286 170 224 232 l 224 973 l 56 973 l 56 308 b 221 36 56 194 119 89 b 539 57 322 -17 445 -9 b 658 1 568 21 612 1 l 742 1 l 742 169 z "},"V":{"ha":822,"x_min":0,"x_max":0,"o":"m 632 973 l 411 278 l 190 973 l 14 973 l 323 1 l 499 1 l 808 973 z "},"W":{"ha":1108,"x_min":0,"x_max":0,"o":"m 885 973 l 885 293 b 762 169 885 224 830 169 b 638 293 694 169 638 224 l 638 973 l 470 973 l 470 293 b 347 169 470 224 415 169 b 224 293 279 169 224 224 l 224 973 l 56 973 l 56 293 b 236 23 55 174 127 68 b 554 88 346 -22 471 4 b 873 23 637 4 763 -22 b 1053 293 982 68 1053 174 l 1053 973 z "},"X":{"ha":725,"x_min":0,"x_max":0,"o":"m 669 710 l 669 973 l 501 973 l 501 710 b 432 589 502 660 475 614 b 293 589 389 564 336 564 b 224 710 249 614 223 660 l 224 973 l 56 973 l 56 710 b 152 487 55 625 90 545 b 56 264 90 429 55 348 l 56 1 l 224 1 l 224 264 b 362 402 224 340 286 402 b 501 264 439 402 501 340 l 501 1 l 669 1 l 669 264 b 573 487 669 348 635 429 b 669 710 635 545 669 625 z "},"Y":{"ha":725,"x_min":0,"x_max":0,"o":"m 502 973 l 502 710 b 363 571 502 633 439 571 b 224 710 286 571 224 633 l 224 973 l 56 973 l 56 710 b 279 415 56 573 147 452 l 279 1 l 447 1 l 447 415 b 670 710 578 452 669 573 l 670 973 z "},"Z":{"ha":710,"x_min":0,"x_max":0,"o":"m 85 973 l 85 805 l 480 805 b 284 528 455 730 362 620 b 58 169 177 401 76 281 b 56 136 56 158 56 147 l 56 1 l 625 1 l 625 169 l 231 169 b 413 420 257 236 346 340 b 652 805 527 555 635 683 b 654 838 653 816 654 827 l 654 973 z "},"[":{"ha":432,"x_min":0,"x_max":0,"o":"m 260 916 b 279 924 263 920 270 924 l 377 924 l 377 1120 l 279 1120 b 121 1055 219 1120 163 1097 b 56 897 79 1013 56 956 l 56 75 b 121 -83 56 15 79 -41 b 279 -149 163 -126 219 -149 l 377 -149 l 377 47 l 279 47 b 260 55 270 47 263 51 b 252 75 256 59 252 65 l 252 897 b 260 916 252 906 256 913 z "},"\\":{"ha":640,"x_min":0,"x_max":0,"o":"m 586 -45 l 243 1074 l 56 1017 l 398 -102 z "},"]":{"ha":432,"x_min":0,"x_max":0,"o":"m 312 1055 b 154 1120 269 1097 213 1120 l 56 1120 l 56 924 l 154 924 b 173 916 163 924 169 920 b 181 897 177 913 181 906 l 181 75 b 173 55 181 65 177 59 b 154 47 169 51 163 47 l 56 47 l 56 -149 l 154 -149 b 312 -83 213 -149 269 -126 b 377 75 354 -41 377 15 l 377 897 b 312 1055 377 957 354 1013 z "},"_":{"ha":740,"x_min":0,"x_max":0,"o":"m 686 0 l 686 140 l 56 140 l 56 0 z "},"a":{"ha":708,"x_min":0,"x_max":0,"o":"m 485 611 l 485 578 b 110 498 356 643 200 610 b 110 114 19 386 19 226 b 485 33 200 2 356 -32 l 485 0 l 653 0 l 653 611 z m 347 168 b 210 306 271 168 210 230 b 347 443 210 382 271 443 b 485 306 423 443 485 382 b 347 168 485 230 423 168 z "},"b":{"ha":708,"x_min":0,"x_max":0,"o":"m 361 611 b 224 578 313 611 266 600 l 224 972 l 56 972 l 56 0 l 224 0 l 224 33 b 566 79 336 -24 473 -6 b 646 416 660 164 692 298 b 361 611 601 533 488 611 z m 361 168 b 224 306 285 168 224 230 b 361 443 224 382 285 443 b 499 306 437 443 499 382 b 361 168 499 230 437 168 z "},"c":{"ha":585,"x_min":0,"x_max":0,"o":"m 347 170 b 214 272 285 170 230 212 b 278 427 198 332 225 396 b 445 405 332 458 401 449 l 563 524 b 131 524 444 643 251 643 b 131 91 12 404 12 211 b 563 92 251 -28 444 -28 l 445 210 b 347 170 419 184 384 170 z "},"d":{"ha":708,"x_min":0,"x_max":0,"o":"m 485 972 l 485 578 b 110 498 356 643 200 610 b 110 114 19 386 19 226 b 485 33 200 2 356 -32 l 485 0 l 653 0 l 653 972 z m 347 168 b 210 306 271 168 210 230 b 347 443 210 382 271 443 b 485 306 423 443 485 382 b 347 168 485 230 423 168 z "},"e":{"ha":690,"x_min":0,"x_max":0,"o":"m 353 171 b 283 190 328 170 304 177 l 469 267 l 492 277 l 662 347 l 629 425 l 628 426 l 628 426 l 628 427 l 628 427 l 627 429 l 627 429 l 627 430 l 626 430 l 626 431 b 618 448 624 437 621 442 b 615 454 617 450 616 452 b 607 467 612 458 610 462 b 603 473 606 469 604 471 b 597 483 601 476 599 479 l 596 483 b 222 584 512 602 355 644 b 50 237 89 524 17 379 l 50 235 b 76 165 56 211 64 187 l 76 164 b 107 118 85 148 95 132 l 107 117 b 357 0 168 42 260 -1 b 601 97 448 0 521 29 l 492 225 b 353 171 442 183 404 171 z m 218 327 b 296 433 223 373 253 414 b 344 443 311 440 327 443 b 425 415 373 443 402 433 b 428 413 426 414 427 414 l 324 370 l 224 329 l 218 326 z "},"f":{"ha":346,"x_min":0,"x_max":0,"o":"m 325 803 l 325 971 l 241 971 b 77 807 150 971 77 897 l 77 612 l 28 612 l 28 444 l 77 444 l 77 0 l 244 0 l 244 444 l 325 444 l 325 612 l 244 612 l 244 803 z "},"g":{"ha":775,"x_min":0,"x_max":0,"o":"m 649 611 b 533 563 606 611 564 594 b 525 554 530 560 527 557 b 127 517 401 643 232 627 b 106 118 22 408 13 238 b 55 -96 46 64 26 -21 b 236 -221 83 -171 156 -221 l 458 -221 b 485 -247 473 -221 485 -233 b 458 -274 485 -262 473 -274 l 263 -274 l 263 -442 l 459 -442 b 653 -247 566 -442 653 -355 b 459 -53 653 -140 566 -53 l 236 -53 b 210 -26 221 -53 210 -41 b 236 0 210 -12 221 0 l 347 0 b 563 89 428 0 506 32 b 653 306 621 147 653 225 l 653 443 l 733 443 l 733 611 z m 347 443 b 474 358 403 443 453 410 b 445 208 496 307 484 248 b 295 178 405 169 346 157 b 210 306 243 200 210 250 b 347 443 210 382 271 443 z "},"h":{"ha":653,"x_min":0,"x_max":0,"o":"m 327 610 b 224 590 291 610 256 604 l 224 971 l 56 971 l 56 -1 l 224 -1 l 224 339 b 327 442 224 396 270 442 b 430 339 384 442 430 396 l 430 -1 l 598 -1 l 598 339 b 327 610 598 489 476 610 z "},"i":{"ha":279,"x_min":0,"x_max":0,"o":"m 224 0 l 224 610 l 56 610 l 56 0 z m 224 792 l 224 969 l 56 969 l 56 792 z "},"j":{"ha":290,"x_min":0,"x_max":0,"o":"m 66 -165 l -14 -165 l -14 -333 l 70 -333 b 234 -169 161 -333 234 -260 l 234 610 l 67 610 z m 234 793 l 234 971 l 66 971 l 66 793 z "},"k":{"ha":607,"x_min":0,"x_max":0,"o":"m 552 611 l 384 611 l 384 527 b 304 447 384 483 348 447 b 224 433 276 447 249 442 l 224 972 l 56 972 l 56 -1 l 224 -1 l 224 199 b 263 269 223 227 238 254 b 344 269 288 283 319 283 b 384 199 369 254 384 227 l 384 -1 l 552 -1 l 552 199 b 490 363 552 259 530 317 b 552 527 530 408 552 466 z "},"l":{"ha":279,"x_min":0,"x_max":0,"o":"m 224 -1 l 224 971 l 56 971 l 56 -1 z "},"m":{"ha":1017,"x_min":0,"x_max":0,"o":"m 693 612 b 509 538 625 612 558 585 b 224 592 432 610 321 632 l 224 611 l 56 611 l 56 0 l 224 0 l 224 343 b 324 444 224 399 269 444 b 425 343 380 444 425 399 l 425 0 l 593 0 l 593 343 b 693 444 593 399 638 444 b 794 343 749 444 794 399 l 794 0 l 962 0 l 962 343 b 693 612 962 491 841 611 z "},"n":{"ha":649,"x_min":0,"x_max":0,"o":"m 324 612 b 224 592 290 612 255 605 l 224 612 l 56 612 l 56 0 l 224 0 l 224 343 b 324 444 224 399 269 444 b 425 343 380 444 425 399 l 425 0 l 593 0 l 593 343 b 324 612 592 491 472 611 z "},"o":{"ha":694,"x_min":0,"x_max":0,"o":"m 347 612 b 65 423 224 612 112 537 b 131 90 18 309 44 177 b 464 24 219 3 350 -24 b 653 306 578 71 653 182 b 347 612 653 475 516 611 z m 347 168 b 220 253 292 168 241 202 b 250 403 199 305 211 364 b 400 433 289 443 349 455 b 485 306 451 412 485 362 b 347 168 485 230 423 168 z "},"p":{"ha":708,"x_min":0,"x_max":0,"o":"m 361 612 b 224 579 313 612 266 600 l 224 612 l 56 612 l 56 -360 l 224 -360 l 224 33 b 566 79 336 -24 473 -5 b 646 416 660 164 692 298 b 361 612 601 534 488 612 z m 361 168 b 234 253 306 168 255 202 b 264 403 213 305 224 364 b 414 433 303 443 362 455 b 499 306 465 412 499 362 b 361 168 499 230 437 168 z "},"q":{"ha":708,"x_min":0,"x_max":0,"o":"m 485 612 l 485 579 b 110 498 357 644 200 610 b 110 114 19 386 19 226 b 485 33 200 2 357 -32 l 485 -360 l 653 -360 l 653 612 z m 347 168 b 220 253 292 168 242 202 b 250 403 199 305 211 364 b 400 433 289 443 349 455 b 485 306 452 412 485 362 b 347 168 485 230 423 168 z "},"r":{"ha":472,"x_min":0,"x_max":0,"o":"m 283 612 b 224 604 263 612 243 609 l 224 612 l 56 612 l 56 0 l 224 0 l 224 384 b 260 439 224 408 238 430 b 325 426 283 448 308 443 l 444 545 b 283 612 401 588 343 612 z "},"s":{"ha":560,"x_min":0,"x_max":0,"o":"m 468 333 b 330 390 431 370 382 390 l 230 390 b 203 417 215 390 203 402 b 230 444 203 432 215 444 l 468 444 l 468 612 l 230 612 b 35 417 122 612 35 524 b 230 222 35 309 122 222 l 330 222 b 357 195 345 222 357 210 b 330 168 357 180 345 168 l 92 168 l 92 0 l 332 0 b 510 122 411 1 481 49 b 468 333 540 194 523 278 z "},"t":{"ha":367,"x_min":0,"x_max":0,"o":"m 325 444 l 325 612 l 244 612 l 244 972 l 77 972 l 77 612 l 28 612 l 28 444 l 77 444 l 77 165 b 241 0 77 74 150 1 l 325 0 l 325 168 l 244 168 l 244 444 z "},"u":{"ha":649,"x_min":0,"x_max":0,"o":"m 425 612 l 425 269 b 324 168 425 213 380 168 b 224 269 269 168 224 213 l 224 612 l 56 612 l 56 269 b 174 46 56 179 100 96 b 425 20 248 -4 342 -14 l 425 0 l 593 0 l 593 612 z "},"v":{"ha":715,"x_min":0,"x_max":0,"o":"m 520 612 l 358 220 l 196 612 l 14 612 l 267 0 l 449 0 l 702 612 z "},"w":{"ha":1017,"x_min":0,"x_max":0,"o":"m 794 612 l 794 269 b 744 181 794 232 775 199 b 643 181 713 162 674 162 b 593 269 611 199 592 232 l 593 612 l 425 612 l 425 269 b 324 168 425 213 380 168 b 224 269 269 168 224 213 l 224 612 l 56 612 l 56 269 b 218 22 56 161 119 64 b 509 74 316 -21 431 0 b 799 22 587 0 701 -21 b 962 269 898 64 962 161 l 962 612 z "},"x":{"ha":611,"x_min":0,"x_max":0,"o":"m 556 611 l 388 611 l 388 472 b 306 390 388 426 351 390 b 224 472 260 390 224 426 l 224 611 l 56 611 l 56 472 b 119 306 56 411 78 351 b 56 139 78 260 56 201 l 56 0 l 224 0 l 224 139 b 306 222 224 185 260 222 b 388 139 351 222 388 185 l 388 0 l 556 0 l 556 139 b 493 306 556 201 533 260 b 556 472 533 351 556 411 z "},"y":{"ha":649,"x_min":0,"x_max":0,"o":"m 425 612 l 425 269 b 324 168 425 213 380 168 b 224 269 269 168 224 213 l 224 612 l 56 612 l 56 269 b 174 46 56 179 100 96 b 425 20 248 -4 342 -14 l 425 -137 b 324 -238 425 -193 380 -238 b 224 -137 269 -238 224 -193 l 56 -137 b 324 -406 56 -286 176 -406 b 593 -137 472 -406 593 -286 l 593 612 z "},"z":{"ha":629,"x_min":0,"x_max":0,"o":"m 405 611 l 72 611 l 72 443 l 358 443 b 268 376 330 419 299 397 b 70 168 193 326 103 265 b 56 84 60 141 55 113 l 56 0 l 557 0 l 557 168 l 270 168 b 362 237 299 193 329 216 b 559 443 436 287 525 347 b 573 527 568 470 573 499 l 573 611 z "},"{":{"ha":558,"x_min":0,"x_max":0,"o":"m 377 897 b 385 916 377 906 382 913 b 405 924 389 920 395 924 l 503 924 l 503 1120 l 405 1120 b 247 1055 345 1120 289 1097 b 181 897 204 1013 181 957 l 181 611 b 173 592 181 602 177 596 b 154 584 169 588 163 584 l 56 584 l 56 388 l 154 388 b 173 380 163 388 169 383 b 181 360 177 376 181 370 l 181 75 b 247 -83 181 15 204 -41 b 405 -149 289 -126 345 -149 l 503 -149 l 503 47 l 405 47 b 385 55 395 47 389 52 b 377 75 382 59 377 65 l 377 360 b 339 486 377 406 364 449 b 377 611 364 523 377 566 z "},"|":{"ha":278,"x_min":0,"x_max":0,"o":"m 224 -158 l 224 1130 l 56 1130 l 56 -158 z "},"}":{"ha":558,"x_min":0,"x_max":0,"o":"m 405 584 b 385 592 395 584 389 588 b 377 611 382 596 377 602 l 377 897 b 312 1055 377 957 354 1013 b 154 1120 269 1097 213 1120 l 56 1120 l 56 924 l 154 924 b 173 916 163 924 169 920 b 181 897 177 913 181 906 l 181 611 b 220 486 181 566 195 523 b 181 360 195 449 181 406 l 181 75 b 173 55 181 65 177 59 b 154 47 169 51 163 47 l 56 47 l 56 -149 l 154 -149 b 312 -83 213 -149 269 -126 b 377 75 354 -41 377 15 l 377 360 b 385 380 377 370 382 376 b 405 388 389 383 395 388 l 503 388 l 503 584 z "}," ":{"ha":399,"x_min":0,"x_max":0,"o":""},"¡":{"ha":307,"x_min":0,"x_max":0,"o":"m 252 648 l 252 848 l 56 848 l 56 648 z m 252 -235 l 252 571 l 56 571 l 56 -235 z "},"¢":{"ha":613,"x_min":0,"x_max":0,"o":"m 439 396 b 424 384 435 392 430 388 b 350 359 403 368 377 359 b 275 384 323 359 297 368 b 261 396 270 388 265 392 b 224 486 237 420 224 452 b 261 575 224 520 237 551 b 275 588 265 580 270 584 b 350 612 297 603 323 612 b 424 588 377 612 403 603 b 439 575 430 584 435 580 l 558 694 b 424 770 520 731 475 757 l 424 841 l 275 841 l 275 770 b 142 694 225 757 179 731 b 56 486 86 638 56 564 b 142 278 56 407 86 333 b 275 201 179 240 225 214 l 275 130 l 425 130 l 425 201 b 558 278 475 214 520 240 z "},"£":{"ha":676,"x_min":0,"x_max":0,"o":"m 296 411 l 556 411 l 556 560 l 296 560 l 296 692 b 329 771 296 722 308 750 b 408 804 350 792 378 804 b 487 771 438 804 466 792 l 606 890 b 408 972 553 942 483 972 b 210 890 333 972 263 942 b 128 692 158 837 128 767 l 128 560 l 65 560 l 65 411 l 128 411 l 128 168 l 56 168 l 56 0 l 622 0 l 622 168 l 296 168 z "},"¥":{"ha":725,"x_min":0,"x_max":0,"o":"m 670 709 l 670 972 l 502 972 l 502 709 b 447 598 502 664 480 624 b 363 570 423 580 394 570 b 279 598 331 570 302 580 b 224 709 245 624 224 664 l 224 972 l 56 972 l 56 709 b 264 418 56 574 143 459 l 141 418 l 141 297 l 279 297 l 279 243 l 141 243 l 141 122 l 279 122 l 279 0 l 447 0 l 447 122 l 584 122 l 584 243 l 447 243 l 447 297 l 584 297 l 584 418 l 461 418 b 670 709 582 459 670 574 z "},"§":{"ha":650,"x_min":0,"x_max":0,"o":"m 393 693 b 388 694 391 693 390 694 b 359 706 379 699 369 703 b 346 713 355 708 350 710 b 289 798 281 747 286 782 l 289 799 b 361 858 297 847 346 857 b 374 859 365 859 370 859 b 460 806 406 859 445 846 l 590 858 b 375 999 555 945 471 999 b 346 997 365 999 355 999 b 151 821 243 986 166 917 l 150 820 b 171 692 143 774 150 731 b 59 540 110 662 69 607 l 58 539 b 258 279 40 422 115 325 b 263 277 260 278 261 278 b 292 266 272 273 282 269 b 307 257 297 263 302 260 b 362 174 369 223 365 189 l 362 173 b 290 113 354 124 305 115 b 277 112 286 113 281 112 b 191 165 244 112 206 126 l 61 113 b 276 -28 95 26 180 -28 b 305 -26 286 -28 295 -27 b 500 150 408 -14 485 55 l 500 151 b 480 279 508 198 501 241 b 592 431 541 310 581 365 l 592 433 b 393 693 611 550 536 647 z m 197 518 l 197 518 b 236 569 200 541 214 558 b 281 578 250 575 266 578 b 310 574 291 578 301 577 b 333 565 318 571 325 568 b 335 564 334 565 334 565 l 335 564 b 350 559 340 563 345 561 b 454 454 403 543 463 511 l 454 454 b 415 403 450 431 437 414 b 370 393 401 396 385 393 b 341 397 360 393 350 394 b 318 406 333 400 326 403 b 317 406 318 406 318 406 l 317 406 b 301 412 312 408 306 410 b 197 518 248 429 188 461 z "},"©":{"ha":764,"x_min":0,"x_max":0,"o":"m 382 813 b 56 486 202 813 56 666 b 382 159 56 306 202 159 b 709 486 563 159 709 306 b 382 813 709 666 563 813 z m 382 253 b 150 486 254 253 150 357 b 382 718 150 614 254 718 b 615 486 511 718 615 614 b 382 253 615 357 511 253 z m 386 547 b 430 529 403 547 418 541 l 481 581 b 386 620 456 606 422 620 b 291 581 350 620 316 606 b 251 486 265 556 251 522 b 291 391 251 450 265 416 b 386 351 316 365 350 351 b 481 391 422 351 456 365 l 430 442 b 386 424 418 431 403 424 b 342 442 370 424 354 431 b 324 486 331 454 324 469 b 342 529 324 502 331 518 b 386 547 354 541 370 547 z "},"ª":{"ha":554,"x_min":0,"x_max":0,"o":"m 387 1013 l 387 984 b 277 1013 354 1003 317 1013 b 56 792 155 1013 56 914 b 277 570 56 669 155 570 b 387 599 317 570 354 581 l 387 570 l 499 570 l 499 1013 z m 277 682 b 168 792 217 682 168 731 b 277 901 168 852 217 901 b 387 792 338 901 387 852 b 277 682 387 731 338 682 z "},"«":{"ha":938,"x_min":0,"x_max":0,"o":"m 882 743 l 764 862 l 447 545 b 423 486 431 529 423 508 b 447 426 423 464 431 442 l 764 110 l 882 229 l 625 486 z m 515 743 l 397 862 l 80 545 b 56 486 64 529 56 508 b 80 426 56 464 64 442 l 397 110 l 515 229 l 258 486 z "},"­":{"ha":0,"x_min":0,"x_max":0,"o":""},"®":{"ha":596,"x_min":0,"x_max":0,"o":"m 298 972 b 56 729 165 972 56 863 b 298 486 56 595 165 486 b 541 729 432 486 541 595 b 298 972 541 863 432 972 z m 298 563 b 133 729 207 563 133 637 b 298 894 133 820 207 894 b 464 729 390 894 464 820 b 298 563 464 637 390 563 z m 307 827 l 247 827 l 247 630 l 284 630 l 284 706 l 307 706 b 330 684 320 706 330 696 l 330 630 l 367 630 l 367 684 b 350 725 367 700 361 714 b 367 767 361 736 367 751 b 307 827 367 800 340 827 z m 307 744 l 284 744 l 284 790 l 307 790 b 330 767 320 790 330 780 b 307 744 330 754 320 744 z "},"°":{"ha":454,"x_min":0,"x_max":0,"o":"m 228 1092 b 56 919 133 1092 56 1014 b 228 747 56 825 133 747 b 400 919 323 747 400 825 b 228 1092 400 1014 323 1092 z m 228 869 b 177 919 200 869 177 891 b 228 970 177 947 200 970 b 279 919 256 970 279 947 b 228 869 279 891 256 869 z "},"²":{"ha":388,"x_min":0,"x_max":0,"o":"m 230 708 b 333 874 273 742 333 789 b 194 1013 333 951 271 1013 b 56 874 118 1013 56 951 l 168 874 b 194 901 168 889 180 901 b 221 874 209 901 221 889 b 161 797 221 846 204 830 b 65 682 127 770 83 736 b 56 626 59 665 56 647 l 56 570 l 326 570 l 326 682 l 198 682 b 230 708 206 690 217 698 z "},"³":{"ha":388,"x_min":0,"x_max":0,"o":"m 333 874 b 194 1013 333 951 271 1013 b 56 874 118 1013 56 951 l 168 874 b 194 901 168 889 180 901 b 221 874 209 901 221 889 b 194 848 221 860 209 848 l 158 848 l 158 736 l 194 736 b 221 709 209 736 221 724 b 194 682 221 694 209 682 b 168 709 180 682 168 694 l 56 709 b 194 570 56 632 118 570 b 333 709 271 570 333 632 b 306 792 333 740 323 769 b 333 874 323 815 333 843 z "},"·":{"ha":279,"x_min":0,"x_max":0,"o":"m 140 402 b 224 486 186 402 224 439 b 140 570 224 532 186 570 b 56 486 93 570 56 532 b 140 402 56 439 93 402 z "},"¹":{"ha":269,"x_min":0,"x_max":0,"o":"m 112 1013 l 56 1013 l 56 901 l 103 901 l 103 570 l 215 570 l 215 910 b 112 1013 215 967 169 1013 z "},"º":{"ha":443,"x_min":0,"x_max":0,"o":"m 222 1013 b 56 847 130 1013 56 939 l 56 736 b 222 570 56 645 130 570 b 388 736 313 570 388 645 l 388 847 b 222 1013 388 939 313 1013 z m 276 736 b 222 682 276 706 252 682 b 168 736 192 682 168 706 l 168 847 b 222 901 168 877 192 901 b 276 847 252 901 276 877 z "},"»":{"ha":938,"x_min":0,"x_max":0,"o":"m 515 486 b 491 545 515 508 507 529 l 174 862 l 56 743 l 313 486 l 56 229 l 174 110 l 491 426 b 515 486 507 442 515 463 z m 858 545 l 541 862 l 423 743 l 680 486 l 423 229 l 541 110 l 858 426 b 882 486 874 442 882 463 b 858 545 882 508 874 529 z "},"¿":{"ha":656,"x_min":0,"x_max":0,"o":"m 541 648 l 541 848 l 345 848 l 345 648 z m 463 -2 b 375 -39 439 -26 408 -39 b 288 -2 342 -39 311 -26 b 252 85 264 21 252 52 b 288 172 252 118 264 149 b 375 209 311 196 342 209 l 541 209 l 541 561 l 345 561 l 345 403 b 149 311 271 396 202 364 b 56 85 89 251 56 170 b 149 -141 56 0 89 -81 b 375 -235 210 -201 290 -235 b 601 -141 461 -235 541 -201 z "},"À":{"ha":756,"x_min":0,"x_max":0,"o":"m 507 1176 l 317 1366 l 212 1261 l 402 1071 z m 378 972 b 56 649 200 972 56 827 l 56 0 l 224 0 l 224 366 b 378 327 269 341 322 327 b 533 366 434 327 487 341 l 533 1 l 701 1 l 701 649 b 378 972 701 827 556 972 z m 378 494 b 224 649 293 494 224 564 b 378 804 224 734 293 804 b 533 649 463 804 533 734 b 378 494 533 564 463 494 z "},"Á":{"ha":756,"x_min":0,"x_max":0,"o":"m 545 1261 l 439 1366 l 249 1176 l 355 1071 z m 378 972 b 56 649 200 972 56 827 l 56 0 l 224 0 l 224 366 b 378 327 269 341 322 327 b 533 366 434 327 487 341 l 533 1 l 701 1 l 701 649 b 378 972 701 827 556 972 z m 378 494 b 224 649 293 494 224 564 b 378 804 224 734 293 804 b 533 649 463 804 533 734 b 378 494 533 564 463 494 z "},"Â":{"ha":756,"x_min":0,"x_max":0,"o":"m 374 1155 b 382 1155 376 1157 380 1157 l 461 1075 l 567 1181 l 488 1260 b 268 1260 427 1321 329 1321 l 189 1181 l 295 1075 z m 378 972 b 56 649 200 972 56 827 l 56 0 l 224 0 l 224 366 b 378 327 269 341 322 327 b 533 366 434 327 487 341 l 533 1 l 701 1 l 701 649 b 378 972 701 827 556 972 z m 378 494 b 224 649 293 494 224 564 b 378 804 224 734 293 804 b 533 649 463 804 533 734 b 378 494 533 564 463 494 z "},"Ã":{"ha":756,"x_min":0,"x_max":0,"o":"m 259 1140 l 262 1144 b 345 1153 289 1185 314 1171 b 627 1206 455 1088 560 1108 l 654 1242 l 534 1332 l 506 1294 l 504 1291 b 420 1282 476 1249 451 1264 b 138 1228 310 1346 205 1326 l 112 1192 l 231 1103 z m 378 972 b 56 649 200 972 56 827 l 56 0 l 224 0 l 224 366 b 378 327 269 341 322 327 b 533 366 434 327 487 341 l 533 1 l 701 1 l 701 649 b 378 972 701 827 556 972 z m 378 494 b 224 649 293 494 224 564 b 378 804 224 734 293 804 b 533 649 463 804 533 734 b 378 494 533 564 463 494 z "},"Ä":{"ha":756,"x_min":0,"x_max":0,"o":"m 245 1128 b 334 1217 294 1128 334 1168 b 245 1307 334 1267 294 1307 b 155 1217 195 1307 155 1267 b 245 1128 155 1168 195 1128 z m 511 1128 b 601 1217 561 1128 601 1168 b 511 1307 601 1267 561 1307 b 422 1217 462 1307 422 1267 b 511 1128 422 1168 462 1128 z m 378 972 b 56 649 200 972 56 827 l 56 0 l 224 0 l 224 366 b 378 327 269 341 322 327 b 533 366 434 327 487 341 l 533 1 l 701 1 l 701 649 b 378 972 701 827 556 972 z m 378 494 b 224 649 293 494 224 564 b 378 804 224 734 293 804 b 533 649 463 804 533 734 b 378 494 533 564 463 494 z "},"Å":{"ha":756,"x_min":0,"x_max":0,"o":"m 378 1106 b 484 1150 419 1106 457 1123 b 528 1256 511 1177 528 1215 b 484 1362 528 1297 511 1335 b 378 1405 457 1389 419 1405 b 272 1362 337 1405 299 1389 b 229 1256 245 1335 229 1297 b 272 1150 229 1215 245 1177 b 378 1106 299 1123 337 1106 z m 352 1282 b 378 1293 359 1289 368 1293 b 405 1282 389 1293 398 1289 b 416 1256 411 1275 416 1266 b 405 1229 416 1245 411 1236 b 378 1218 398 1223 389 1218 b 352 1229 368 1218 359 1223 b 341 1256 345 1236 341 1245 b 352 1282 341 1266 345 1275 z m 378 972 b 56 649 200 972 56 827 l 56 0 l 224 0 l 224 366 b 378 327 269 341 322 327 b 533 366 434 327 487 341 l 533 1 l 701 1 l 701 649 b 378 972 701 827 556 972 z m 378 494 b 224 649 293 494 224 564 b 378 804 224 734 293 804 b 533 649 463 804 533 734 b 378 494 533 564 463 494 z "},"Æ":{"ha":1183,"x_min":0,"x_max":0,"o":"m 818 804 l 1128 804 l 1128 972 l 818 972 b 606 877 734 972 658 935 b 378 972 547 935 467 972 b 56 649 200 972 56 827 l 56 0 l 224 0 l 224 366 b 378 327 269 341 322 327 b 533 366 434 327 487 341 l 533 285 b 817 0 533 128 660 0 l 1128 0 l 1128 168 l 817 168 b 701 285 753 168 701 220 l 701 427 b 818 402 736 411 776 402 l 1128 402 l 1128 570 l 818 570 b 701 687 753 570 701 622 b 817 804 701 751 753 804 z m 378 494 b 224 649 293 494 224 564 b 378 804 224 734 293 804 b 533 649 463 804 533 734 b 378 494 533 564 463 494 z "},"Ç":{"ha":757,"x_min":0,"x_max":0,"o":"m 451 186 b 379 168 429 175 405 168 b 309 185 354 168 330 174 b 224 323 258 210 224 263 l 224 649 b 379 804 224 734 293 804 b 534 649 464 804 534 734 l 702 649 b 379 972 702 827 557 972 b 56 649 200 972 56 827 l 56 323 b 309 8 56 169 164 40 l 309 -176 l 431 -176 b 453 -198 443 -176 453 -186 l 453 -222 b 431 -244 453 -234 443 -244 l 309 -244 l 309 -386 l 431 -386 b 595 -222 522 -386 595 -312 l 595 -198 b 451 -35 595 -114 532 -45 l 451 8 b 702 323 594 41 702 170 l 534 323 b 451 186 534 264 500 212 z "},"È":{"ha":706,"x_min":0,"x_max":0,"o":"m 548 1176 l 358 1366 l 252 1261 l 442 1070 z m 340 804 l 651 804 l 651 972 l 340 972 b 56 688 183 972 56 845 l 56 286 b 340 1 56 129 183 1 l 651 1 l 651 169 l 340 169 b 224 286 276 169 224 221 l 224 428 b 340 403 259 412 299 403 l 651 403 l 651 571 l 340 571 b 224 688 276 571 224 623 b 340 804 224 752 276 804 z "},"É":{"ha":706,"x_min":0,"x_max":0,"o":"m 548 1261 l 442 1366 l 252 1176 l 358 1071 z m 340 804 l 651 804 l 651 972 l 340 972 b 56 688 183 972 56 845 l 56 286 b 340 1 56 129 183 1 l 651 1 l 651 169 l 340 169 b 224 286 276 169 224 221 l 224 428 b 340 403 259 412 299 403 l 651 403 l 651 571 l 340 571 b 224 688 276 571 224 623 b 340 804 224 752 276 804 z "},"Ê":{"ha":706,"x_min":0,"x_max":0,"o":"m 396 1155 b 404 1155 398 1157 402 1157 l 483 1075 l 589 1181 l 510 1260 b 290 1260 449 1321 351 1321 l 211 1181 l 317 1075 z m 340 804 l 651 804 l 651 972 l 340 972 b 56 688 183 972 56 845 l 56 286 b 340 1 56 129 183 1 l 651 1 l 651 169 l 340 169 b 224 286 276 169 224 221 l 224 428 b 340 403 259 412 299 403 l 651 403 l 651 571 l 340 571 b 224 688 276 571 224 623 b 340 804 224 752 276 804 z "},"Ë":{"ha":706,"x_min":0,"x_max":0,"o":"m 267 1128 b 356 1217 316 1128 356 1168 b 267 1307 356 1267 316 1307 b 177 1217 217 1307 177 1267 b 267 1128 177 1168 217 1128 z m 533 1128 b 623 1217 583 1128 623 1168 b 533 1307 623 1267 583 1307 b 444 1217 484 1307 444 1267 b 533 1128 444 1168 484 1128 z m 340 804 l 651 804 l 651 972 l 340 972 b 56 688 183 972 56 845 l 56 286 b 340 1 56 129 183 1 l 651 1 l 651 169 l 340 169 b 224 286 276 169 224 221 l 224 428 b 340 403 259 412 299 403 l 651 403 l 651 571 l 340 571 b 224 688 276 571 224 623 b 340 804 224 752 276 804 z "},"Ì":{"ha":433,"x_min":0,"x_max":0,"o":"m 351 1176 l 161 1366 l 56 1260 l 246 1070 z m 379 804 l 379 972 l 295 972 b 222 954 269 972 244 965 b 149 972 200 965 175 972 l 65 972 l 65 804 l 138 804 l 138 170 l 65 170 l 65 2 l 149 2 b 222 20 175 2 200 8 b 295 2 244 8 269 2 l 379 2 l 379 170 l 306 170 l 306 804 z "},"Í":{"ha":433,"x_min":0,"x_max":0,"o":"m 379 1261 l 273 1366 l 83 1176 l 189 1071 z m 212 954 b 140 972 191 965 166 972 l 56 972 l 56 804 l 128 804 l 128 170 l 56 170 l 56 2 l 140 2 b 212 20 166 2 191 8 b 285 2 234 8 259 2 l 369 2 l 369 170 l 296 170 l 296 804 l 369 804 l 369 972 l 285 972 b 212 954 259 972 234 965 z "},"Î":{"ha":488,"x_min":0,"x_max":0,"o":"m 240 1155 b 248 1155 243 1157 246 1157 l 328 1075 l 433 1181 l 354 1260 b 135 1260 294 1321 195 1321 l 56 1181 l 161 1075 z m 244 954 b 172 972 223 965 198 972 l 88 972 l 88 804 l 160 804 l 160 170 l 88 170 l 88 2 l 172 2 b 244 20 198 2 223 8 b 317 2 266 8 291 2 l 401 2 l 401 170 l 328 170 l 328 804 l 401 804 l 401 972 l 317 972 b 244 954 291 972 266 965 z "},"Ï":{"ha":556,"x_min":0,"x_max":0,"o":"m 145 1128 b 234 1217 194 1128 234 1168 b 145 1307 234 1267 194 1307 b 56 1217 96 1307 56 1267 b 145 1128 56 1168 96 1128 z m 411 1128 b 501 1217 461 1128 501 1168 b 411 1307 501 1267 461 1307 b 322 1217 362 1307 322 1267 b 411 1128 322 1168 362 1128 z m 278 954 b 205 972 256 965 232 972 l 121 972 l 121 804 l 194 804 l 194 170 l 121 170 l 121 2 l 205 2 b 278 20 232 2 256 8 b 351 2 300 8 325 2 l 435 2 l 435 170 l 362 170 l 362 804 l 435 804 l 435 972 l 351 972 b 278 954 325 972 300 965 z "},"Ñ":{"ha":807,"x_min":0,"x_max":0,"o":"m 302 1140 l 304 1144 b 343 1171 318 1164 330 1171 b 388 1153 357 1171 372 1162 b 512 1116 431 1128 473 1116 b 670 1206 574 1116 629 1146 l 696 1242 l 577 1332 l 549 1294 l 546 1291 b 508 1264 533 1271 521 1264 b 463 1282 494 1264 479 1272 b 339 1319 420 1307 378 1319 b 181 1228 277 1319 222 1288 l 155 1192 l 274 1103 z m 444 972 b 264 914 377 972 314 951 b 140 971 234 949 189 971 l 56 971 l 56 803 l 136 803 l 136 1 l 304 1 l 304 664 b 444 804 304 741 367 804 b 585 664 522 804 585 741 l 585 1 l 753 1 l 753 664 b 444 972 753 834 614 972 z "},"Ò":{"ha":757,"x_min":0,"x_max":0,"o":"m 489 1176 l 299 1366 l 194 1260 l 384 1070 z m 379 972 b 56 649 200 972 56 828 l 56 324 b 379 1 56 146 200 1 b 702 324 557 1 702 146 l 702 649 b 379 972 702 828 557 972 z m 534 324 b 379 169 534 238 464 169 b 224 324 293 169 224 238 l 224 649 b 379 805 224 735 293 805 b 534 649 464 805 534 735 z "},"Ó":{"ha":757,"x_min":0,"x_max":0,"o":"m 563 1261 l 458 1367 l 268 1176 l 373 1071 z m 379 972 b 56 649 200 972 56 828 l 56 324 b 379 1 56 146 200 1 b 702 324 557 1 702 146 l 702 649 b 379 972 702 828 557 972 z m 534 324 b 379 169 534 238 464 169 b 224 324 293 169 224 238 l 224 649 b 379 805 224 735 293 805 b 534 649 464 805 534 735 z "},"Ô":{"ha":757,"x_min":0,"x_max":0,"o":"m 375 1155 b 383 1155 377 1157 380 1157 l 462 1075 l 567 1181 l 488 1260 b 269 1260 428 1321 329 1321 l 190 1181 l 295 1075 z m 379 972 b 56 649 200 972 56 828 l 56 324 b 379 1 56 146 200 1 b 702 324 557 1 702 146 l 702 649 b 379 972 702 828 557 972 z m 534 324 b 379 169 534 238 464 169 b 224 324 293 169 224 238 l 224 649 b 379 804 224 735 293 804 b 534 649 464 804 534 735 z "},"Õ":{"ha":757,"x_min":0,"x_max":0,"o":"m 255 1140 l 258 1144 b 296 1171 271 1164 283 1171 b 341 1153 310 1171 325 1162 b 465 1116 384 1128 426 1116 b 623 1206 527 1116 582 1146 l 650 1242 l 530 1332 l 502 1294 l 500 1291 b 461 1264 486 1271 474 1264 b 416 1282 447 1264 433 1272 b 292 1319 374 1307 332 1319 b 134 1228 230 1319 175 1288 l 108 1192 l 227 1103 z m 379 972 b 56 649 200 972 56 828 l 56 324 b 379 1 56 146 200 1 b 702 324 557 1 702 146 l 702 649 b 379 972 702 828 557 972 z m 534 324 b 379 169 534 238 464 169 b 224 324 293 169 224 238 l 224 649 b 379 805 224 735 293 805 b 534 649 464 805 534 735 z "},"Ö":{"ha":757,"x_min":0,"x_max":0,"o":"m 245 1128 b 335 1217 295 1128 335 1168 b 245 1307 335 1267 295 1307 b 156 1217 196 1307 156 1267 b 245 1128 156 1168 196 1128 z m 512 1128 b 601 1217 561 1128 601 1168 b 512 1307 601 1267 561 1307 b 423 1217 463 1307 423 1267 b 512 1128 423 1168 463 1128 z m 379 972 b 56 649 200 972 56 828 l 56 324 b 379 1 56 146 200 1 b 702 324 557 1 702 146 l 702 649 b 379 972 702 828 557 972 z m 534 324 b 379 169 534 238 464 169 b 224 324 293 169 224 238 l 224 649 b 379 804 224 735 293 804 b 534 649 464 804 534 735 z "},"×":{"ha":539,"x_min":0,"x_max":0,"o":"m 484 601 l 385 700 l 270 585 l 155 700 l 56 601 l 171 486 l 56 371 l 155 272 l 270 387 l 385 272 l 484 371 l 369 486 z "},"Ø":{"ha":757,"x_min":0,"x_max":0,"o":"m 632 849 l 674 942 l 520 1010 l 494 951 b 379 972 458 965 419 972 b 56 649 201 972 56 828 l 56 324 b 125 124 56 248 82 179 l 84 30 l 237 -39 l 264 22 b 379 1 300 8 338 1 b 702 324 557 1 702 146 l 702 649 b 632 849 702 725 676 794 z m 224 649 b 379 804 224 735 293 804 b 425 797 395 804 411 802 l 224 344 z m 534 324 b 379 169 534 238 464 169 b 333 176 363 169 347 171 l 534 628 z "},"Ù":{"ha":797,"x_min":0,"x_max":0,"o":"m 483 1176 l 292 1366 l 187 1260 l 377 1070 z m 669 972 l 501 972 l 501 308 b 362 169 501 231 439 169 b 224 308 286 169 224 231 l 224 972 l 56 972 l 56 308 b 362 1 56 139 193 1 b 539 57 428 1 489 21 b 658 1 567 23 610 1 l 742 1 l 742 169 l 669 169 z "},"Ú":{"ha":797,"x_min":0,"x_max":0,"o":"m 538 1261 l 432 1367 l 242 1176 l 348 1071 z m 669 972 l 501 972 l 501 308 b 362 169 501 231 439 169 b 224 308 286 169 224 231 l 224 972 l 56 972 l 56 308 b 362 1 56 139 193 1 b 538 57 428 1 489 21 b 658 1 567 23 610 1 l 742 1 l 742 169 l 669 169 z "},"Û":{"ha":797,"x_min":0,"x_max":0,"o":"m 358 1155 b 367 1155 361 1157 364 1157 l 446 1075 l 551 1181 l 472 1260 b 253 1260 412 1321 313 1321 l 174 1181 l 279 1075 z m 669 169 l 669 972 l 501 972 l 501 308 b 362 169 501 231 439 169 b 224 308 286 169 224 231 l 224 972 l 56 972 l 56 308 b 362 1 56 139 193 1 b 538 57 428 1 489 22 b 658 1 567 23 610 1 l 742 1 l 742 169 z "},"Ü":{"ha":797,"x_min":0,"x_max":0,"o":"m 229 1128 b 318 1217 278 1128 318 1168 b 229 1307 318 1267 278 1307 b 140 1217 180 1307 140 1267 b 229 1128 140 1168 180 1128 z m 496 1128 b 585 1217 545 1128 585 1168 b 496 1307 585 1267 545 1307 b 406 1217 446 1307 406 1267 b 496 1128 406 1168 446 1128 z m 669 972 l 501 972 l 501 308 b 362 169 501 231 439 169 b 224 308 286 169 224 231 l 224 972 l 56 972 l 56 308 b 362 1 56 139 193 1 b 538 57 428 1 489 21 b 658 1 567 23 610 1 l 742 1 l 742 169 l 669 169 z "},"Ý":{"ha":725,"x_min":0,"x_max":0,"o":"m 502 972 l 502 709 b 447 598 502 664 480 624 b 363 570 423 580 394 570 b 279 598 331 570 302 580 b 224 709 245 623 224 664 l 224 972 l 56 972 l 56 709 b 279 413 56 568 150 450 l 279 0 l 447 0 l 447 413 b 670 709 575 450 670 568 l 670 972 z m 510 1260 l 405 1365 l 215 1175 l 320 1070 z "},"ß":{"ha":865,"x_min":0,"x_max":0,"o":"m 670 531 b 718 688 700 576 718 630 b 433 973 718 845 590 973 l 56 973 l 56 805 l 136 805 l 136 -152 l 304 -152 l 304 805 l 405 805 b 550 688 497 805 550 752 b 433 571 550 623 497 571 l 363 571 l 363 402 l 526 402 b 643 285 590 402 643 350 b 526 169 643 221 590 169 l 363 169 l 363 1 l 526 1 b 811 285 683 1 811 128 b 670 531 811 390 754 481 z "},"à":{"ha":722,"x_min":0,"x_max":0,"o":"m 479 803 l 327 955 l 243 871 l 395 719 z m 499 611 l 499 578 b 361 611 457 599 411 611 b 56 306 193 611 56 474 b 361 0 56 137 193 0 b 499 33 411 0 457 12 l 499 0 l 667 0 l 667 611 z m 361 168 b 224 306 285 168 224 230 b 361 443 224 382 285 443 b 499 306 437 443 499 382 b 361 168 499 230 437 168 z "},"á":{"ha":722,"x_min":0,"x_max":0,"o":"m 479 871 l 395 955 l 243 803 l 327 719 z m 499 611 l 499 578 b 361 611 457 599 411 611 b 56 306 193 611 56 474 b 361 0 56 137 193 0 b 499 33 411 0 457 12 l 499 0 l 667 0 l 667 611 z m 361 168 b 224 306 285 168 224 230 b 361 443 224 382 285 443 b 499 306 437 443 499 382 b 361 168 499 230 437 168 z "},"â":{"ha":722,"x_min":0,"x_max":0,"o":"m 358 780 b 364 780 360 782 363 782 l 428 717 l 512 801 l 449 865 b 273 865 401 913 322 913 l 210 801 l 295 717 z m 499 611 l 499 578 b 361 611 457 599 411 611 b 56 306 193 611 56 474 b 361 0 56 137 193 0 b 499 33 411 0 457 12 l 499 0 l 667 0 l 667 611 z m 361 168 b 224 306 285 168 224 230 b 361 443 224 382 285 443 b 499 306 437 443 499 382 b 361 168 499 230 437 168 z "},"ã":{"ha":722,"x_min":0,"x_max":0,"o":"m 262 774 l 264 777 b 331 784 287 810 306 799 b 557 827 419 733 503 749 l 578 856 l 482 927 l 460 898 l 458 895 b 391 887 436 861 416 873 b 166 845 303 939 219 923 l 144 816 l 240 744 z m 499 611 l 499 578 b 361 611 457 599 411 611 b 56 306 193 611 56 474 b 361 0 56 137 193 0 b 499 33 411 0 457 12 l 499 0 l 667 0 l 667 611 z m 361 168 b 224 306 285 168 224 230 b 361 443 224 382 285 443 b 499 306 437 443 499 382 b 361 168 499 230 437 168 z "},"ä":{"ha":722,"x_min":0,"x_max":0,"o":"m 255 764 b 326 836 294 764 326 796 b 255 907 326 875 294 907 b 183 836 215 907 183 875 b 255 764 183 796 215 764 z m 468 764 b 539 836 507 764 539 796 b 468 907 539 875 507 907 b 396 836 428 907 396 875 b 468 764 396 796 428 764 z m 499 611 l 499 578 b 361 611 457 599 411 611 b 56 306 193 611 56 474 b 361 0 56 137 193 0 b 499 33 411 0 457 12 l 499 0 l 667 0 l 667 611 z m 361 168 b 224 306 285 168 224 230 b 361 443 224 382 285 443 b 499 306 437 443 499 382 b 361 168 499 230 437 168 z "},"å":{"ha":722,"x_min":0,"x_max":0,"o":"m 361 755 b 481 874 427 755 481 808 b 361 994 481 940 427 994 b 242 874 295 994 242 940 b 361 755 242 808 295 755 z m 361 904 b 391 874 378 904 391 891 b 361 844 391 858 378 844 b 331 874 345 844 331 858 b 361 904 331 891 345 904 z m 499 611 l 499 578 b 361 611 457 599 411 611 b 56 306 193 611 56 474 b 361 0 56 137 193 0 b 499 33 411 0 457 12 l 499 0 l 667 0 l 667 611 z m 361 168 b 224 306 285 168 224 230 b 361 443 224 382 285 443 b 499 306 437 443 499 382 b 361 168 499 230 437 168 z "},"æ":{"ha":1174,"x_min":0,"x_max":0,"o":"m 811 171 b 740 190 782 171 759 178 l 927 267 l 1119 347 l 1086 425 b 1077 443 1083 431 1080 437 b 1074 449 1076 445 1075 447 b 1068 461 1072 453 1070 457 b 1064 467 1066 463 1065 465 b 1054 483 1061 473 1057 478 b 804 611 997 562 905 611 b 667 578 755 611 708 599 l 667 611 l 499 611 l 499 578 b 361 611 457 599 411 611 b 56 306 193 611 56 474 b 361 0 56 137 193 0 b 499 33 411 0 457 12 l 499 0 l 667 0 l 667 34 b 814 0 710 12 760 0 b 1058 97 905 0 978 29 l 949 225 b 811 171 900 183 861 171 z m 361 168 b 224 306 285 168 224 230 b 361 443 224 382 285 443 b 499 306 437 443 499 382 b 361 168 499 230 437 168 z m 675 326 l 675 327 b 753 433 681 370 707 412 b 801 443 769 440 786 443 b 882 415 836 443 867 428 b 885 413 883 414 884 414 l 781 370 l 682 329 z "},"ç":{"ha":632,"x_min":0,"x_max":0,"o":"m 577 89 l 459 208 b 427 185 449 198 438 191 b 424 183 426 184 425 183 b 361 168 405 173 383 168 b 300 182 339 168 319 173 b 296 184 299 183 298 183 b 264 208 285 190 274 198 b 224 305 238 234 224 268 b 264 403 224 342 238 377 b 361 443 290 429 324 443 b 459 403 398 443 433 429 l 577 521 b 361 611 520 579 443 611 b 145 521 280 611 203 579 b 56 305 87 464 56 387 b 145 89 56 224 87 147 b 296 7 187 47 240 19 l 296 -138 l 362 -138 b 385 -161 375 -138 385 -148 b 362 -185 385 -174 375 -185 l 296 -185 l 296 -315 l 362 -315 b 516 -161 447 -315 516 -246 b 427 -22 516 -100 479 -46 l 427 7 b 577 89 484 19 535 47 z "},"è":{"ha":731,"x_min":0,"x_max":0,"o":"m 465 803 l 313 955 l 229 870 l 381 718 z m 367 171 b 296 190 338 171 315 178 l 483 267 l 506 277 l 506 277 l 676 347 l 643 425 b 642 426 643 425 642 425 b 642 426 642 426 642 426 b 634 444 640 432 637 438 b 631 450 633 446 632 448 b 624 462 628 454 626 458 b 620 468 623 464 621 466 b 610 483 617 473 614 478 l 610 483 b 361 611 554 562 462 611 b 56 306 193 611 56 474 b 60 255 56 288 57 272 b 60 255 60 255 60 255 b 63 237 61 249 62 243 b 64 235 63 236 64 236 b 68 217 65 229 67 223 b 68 217 68 217 68 217 b 82 182 72 205 77 193 b 82 181 82 182 82 181 b 90 165 84 176 87 170 b 90 164 90 165 90 164 b 371 0 142 66 247 0 b 615 97 462 0 535 29 l 506 225 b 367 171 456 183 418 171 z m 232 327 b 310 433 237 370 263 412 b 358 443 326 440 342 443 b 439 415 393 443 424 428 b 442 413 440 414 441 414 l 338 370 l 238 329 l 232 326 b 232 327 232 326 232 326 z "},"é":{"ha":731,"x_min":0,"x_max":0,"o":"m 502 871 l 418 956 l 266 803 l 350 719 z m 367 171 b 296 190 338 171 316 178 l 483 267 l 506 277 l 676 347 l 643 425 b 642 426 643 425 642 425 b 642 426 642 426 642 426 b 642 427 642 427 642 427 b 633 445 639 433 636 439 b 630 451 632 447 631 449 b 624 462 628 455 626 459 b 620 469 622 464 621 467 b 610 483 617 473 614 478 l 610 483 b 361 611 554 562 462 611 b 56 306 193 611 56 474 b 63 237 56 282 58 259 b 64 235 63 236 64 236 b 82 182 68 217 74 199 b 82 181 82 182 82 182 b 90 165 84 176 87 170 b 90 164 90 165 90 164 b 371 0 142 66 247 0 b 615 97 462 0 535 29 l 506 225 b 367 171 456 183 418 171 z m 232 327 b 310 433 237 370 263 412 b 358 443 326 440 342 443 b 439 415 393 443 424 428 b 442 413 440 414 441 414 l 338 370 l 238 329 l 232 326 b 232 327 232 326 232 326 z "},"ê":{"ha":731,"x_min":0,"x_max":0,"o":"m 362 780 b 369 780 364 782 367 782 l 432 717 l 517 801 l 453 865 b 278 865 405 913 326 913 l 215 801 l 299 717 z m 367 171 b 296 190 338 171 316 178 l 483 267 l 506 277 l 506 277 l 676 347 l 643 425 b 642 426 643 425 642 425 b 642 426 642 426 642 426 b 642 427 642 426 642 427 b 642 427 642 427 642 427 b 641 428 641 428 641 428 b 633 446 639 434 636 440 b 630 452 632 448 631 450 b 623 464 627 456 625 460 b 619 469 622 466 621 467 b 610 483 616 474 614 478 l 610 483 b 361 611 554 562 462 611 b 56 306 193 611 56 474 b 60 255 56 288 57 272 b 60 255 60 255 60 255 b 63 237 61 249 62 243 b 64 235 63 236 64 236 b 68 217 65 229 67 223 b 68 217 68 217 68 217 b 82 182 72 205 77 193 b 82 181 82 182 82 181 b 90 165 84 176 87 170 b 90 164 90 165 90 164 b 121 117 99 148 109 132 l 121 117 b 371 0 178 46 268 0 b 615 97 462 0 535 29 l 506 225 b 367 171 456 183 418 171 z m 232 327 b 310 433 237 370 263 412 b 358 443 326 440 342 443 b 439 415 393 443 424 428 b 442 413 440 414 441 414 l 338 370 l 238 329 l 232 326 b 232 327 232 326 232 326 z "},"ë":{"ha":731,"x_min":0,"x_max":0,"o":"m 259 764 b 330 836 298 764 330 796 b 259 907 330 875 298 907 b 188 836 220 907 188 875 b 259 764 188 796 220 764 z m 472 764 b 544 836 512 764 544 796 b 472 907 544 875 512 907 b 401 836 433 907 401 875 b 472 764 401 796 433 764 z m 367 171 b 296 190 338 171 316 178 l 483 267 l 506 277 l 676 347 l 643 425 b 634 443 640 431 637 437 b 631 449 633 445 632 447 b 624 461 629 453 627 457 b 620 467 623 463 622 465 b 611 482 617 473 614 478 b 361 611 554 562 462 611 b 56 306 193 611 56 474 b 63 237 56 282 58 259 b 64 235 64 236 64 236 b 82 182 68 217 74 199 b 82 181 82 182 82 182 b 90 165 84 176 87 170 b 90 164 90 165 90 164 b 371 0 142 66 247 0 b 615 97 462 0 535 29 l 506 225 b 367 171 456 183 418 171 z m 232 327 b 310 433 237 370 263 412 b 358 443 326 440 342 443 b 439 415 393 443 424 428 b 442 413 440 414 441 414 l 338 370 l 238 329 l 232 326 b 232 327 232 326 232 326 z "},"ì":{"ha":347,"x_min":0,"x_max":0,"o":"m 292 803 l 140 955 l 56 870 l 208 718 z m 285 0 l 285 611 l 118 611 l 118 0 z "},"í":{"ha":347,"x_min":0,"x_max":0,"o":"m 292 871 l 208 956 l 56 804 l 140 719 z m 230 0 l 230 611 l 62 611 l 62 0 z "},"î":{"ha":413,"x_min":0,"x_max":0,"o":"m 203 780 b 210 780 205 782 208 782 l 273 717 l 358 801 l 294 865 b 119 865 246 913 167 913 l 56 801 l 140 717 z m 291 0 l 291 611 l 123 611 l 123 0 z "},"ï":{"ha":467,"x_min":0,"x_max":0,"o":"m 127 764 b 198 836 166 764 198 796 b 127 907 198 875 166 907 b 56 836 88 907 56 875 b 127 764 56 796 88 764 z m 340 764 b 412 836 380 764 412 796 b 340 907 412 875 380 907 b 269 836 301 907 269 875 b 340 764 269 796 301 764 z m 318 0 l 318 611 l 150 611 l 150 0 z "},"ñ":{"ha":728,"x_min":0,"x_max":0,"o":"m 296 774 l 298 777 b 329 799 309 793 319 799 b 365 784 340 799 352 792 b 464 754 399 764 433 754 b 590 827 514 754 558 779 l 612 856 l 516 927 l 494 898 l 492 895 b 461 873 481 879 471 873 b 425 887 450 873 438 880 b 326 917 391 907 358 917 b 200 845 277 917 232 893 l 178 816 l 274 744 z m 405 611 b 254 565 349 611 297 594 b 140 611 224 594 184 611 l 56 611 l 56 443 l 136 443 l 136 0 l 304 0 l 304 343 b 404 443 304 398 349 443 b 505 343 460 443 505 398 l 505 0 l 673 0 l 673 343 b 404 611 673 491 553 611 z "},"ò":{"ha":722,"x_min":0,"x_max":0,"o":"m 462 802 l 309 954 l 225 870 l 377 718 z m 361 611 b 56 306 193 611 56 474 b 361 0 56 137 193 0 b 667 306 530 0 667 137 b 361 611 667 474 530 611 z m 361 168 b 224 306 285 168 224 230 b 361 443 224 382 285 443 b 499 306 437 443 499 382 b 361 168 499 230 437 168 z "},"ó":{"ha":722,"x_min":0,"x_max":0,"o":"m 497 871 l 413 956 l 261 804 l 345 719 z m 361 611 b 56 306 193 611 56 474 b 361 0 56 137 193 0 b 667 306 530 0 667 137 b 361 611 667 474 530 611 z m 361 168 b 224 306 285 168 224 230 b 361 443 224 382 285 443 b 499 306 437 443 499 382 b 361 168 499 230 437 168 z "},"ô":{"ha":722,"x_min":0,"x_max":0,"o":"m 358 780 b 364 780 360 782 363 782 l 428 717 l 512 801 l 449 865 b 273 865 401 913 322 913 l 210 801 l 295 717 z m 361 611 b 56 306 193 611 56 474 b 361 0 56 137 193 0 b 667 306 530 0 667 137 b 361 611 667 474 530 611 z m 361 168 b 224 306 285 168 224 230 b 361 443 224 382 285 443 b 499 306 437 443 499 382 b 361 168 499 230 437 168 z "},"õ":{"ha":722,"x_min":0,"x_max":0,"o":"m 262 774 l 264 777 b 295 799 275 793 285 799 b 331 784 307 799 318 792 b 430 754 365 764 399 754 b 556 827 480 754 524 779 l 578 856 l 482 927 l 460 898 l 458 895 b 427 873 447 879 437 873 b 391 887 416 873 404 880 b 292 917 357 907 324 917 b 166 845 243 917 198 893 l 144 816 l 240 744 z m 361 611 b 56 306 193 611 56 474 b 361 0 56 137 193 0 b 667 306 530 0 667 137 b 361 611 667 474 530 611 z m 361 168 b 224 306 285 168 224 230 b 361 443 224 382 285 443 b 499 306 437 443 499 382 b 361 168 499 230 437 168 z "},"ö":{"ha":722,"x_min":0,"x_max":0,"o":"m 255 764 b 326 836 294 764 326 796 b 255 907 326 875 294 907 b 183 836 215 907 183 875 b 255 764 183 796 215 764 z m 468 764 b 539 836 507 764 539 796 b 468 907 539 875 507 907 b 396 836 428 907 396 875 b 468 764 396 796 428 764 z m 361 611 b 56 306 193 611 56 474 b 361 0 56 137 193 0 b 667 306 530 0 667 137 b 361 611 667 474 530 611 z m 361 168 b 224 306 285 168 224 230 b 361 443 224 382 285 443 b 499 306 437 443 499 382 b 361 168 499 230 437 168 z "},"ø":{"ha":760,"x_min":0,"x_max":0,"o":"m 705 525 l 599 630 l 537 568 b 380 611 491 595 437 611 b 74 306 212 611 74 474 b 118 149 74 248 90 195 l 56 87 l 161 -19 l 223 43 b 380 0 269 16 323 0 b 686 306 549 0 686 137 b 642 462 686 363 670 417 z m 242 306 b 380 443 242 382 304 443 b 409 440 390 443 400 442 l 245 277 b 242 306 243 286 242 296 z m 518 306 b 380 168 518 230 456 168 b 351 171 370 168 360 169 l 515 335 b 518 306 517 325 518 316 z "},"ù":{"ha":728,"x_min":0,"x_max":0,"o":"m 414 802 l 262 954 l 178 870 l 330 718 z m 592 168 l 592 611 l 424 611 l 424 268 b 324 168 424 213 379 168 b 223 268 268 168 223 213 l 223 611 l 56 611 l 56 268 b 324 0 56 120 176 0 b 475 46 380 0 432 17 b 589 0 504 18 544 0 l 673 0 l 673 168 z "},"ú":{"ha":728,"x_min":0,"x_max":0,"o":"m 469 871 l 385 956 l 232 804 l 317 719 z m 592 168 l 592 611 l 424 611 l 424 268 b 324 168 424 213 379 168 b 223 268 268 168 223 213 l 223 611 l 56 611 l 56 268 b 324 0 56 120 176 0 b 475 46 380 0 432 17 b 589 0 504 18 544 0 l 673 0 l 673 168 z "},"û":{"ha":728,"x_min":0,"x_max":0,"o":"m 321 780 b 327 780 322 782 325 782 l 390 717 l 475 801 l 412 865 b 236 865 363 913 285 913 l 173 801 l 257 717 z m 592 168 l 592 611 l 424 611 l 424 268 b 324 168 424 213 379 168 b 223 268 268 168 223 213 l 223 611 l 56 611 l 56 268 b 324 0 56 120 176 0 b 475 46 380 0 432 17 b 589 0 504 18 544 0 l 673 0 l 673 168 z "},"ü":{"ha":728,"x_min":0,"x_max":0,"o":"m 217 764 b 289 836 257 764 289 796 b 217 907 289 875 257 907 b 146 836 178 907 146 875 b 217 764 146 796 178 764 z m 431 764 b 502 836 470 764 502 796 b 431 907 502 875 470 907 b 359 836 391 907 359 875 b 431 764 359 796 391 764 z m 592 168 l 592 611 l 424 611 l 424 268 b 324 168 424 213 379 168 b 223 268 268 168 223 213 l 223 611 l 56 611 l 56 268 b 324 0 56 120 176 0 b 475 46 380 0 432 17 b 589 0 504 18 544 0 l 673 0 l 673 168 z "},"ý":{"ha":647,"x_min":0,"x_max":0,"o":"m 425 611 l 425 268 b 324 168 425 213 380 168 b 224 268 269 168 224 213 l 224 611 l 56 611 l 56 268 b 324 0 56 120 176 0 b 425 19 360 0 394 7 l 425 -137 b 324 -238 425 -193 380 -238 b 224 -137 269 -238 224 -193 l 56 -137 b 324 -406 56 -285 176 -406 b 593 -137 472 -406 593 -285 l 593 612 z m 461 871 l 377 955 l 225 803 l 309 719 z "},"ÿ":{"ha":647,"x_min":0,"x_max":0,"o":"m 217 764 b 289 836 257 764 289 796 b 217 907 289 875 257 907 b 146 836 178 907 146 875 b 217 764 146 796 178 764 z m 431 764 b 502 836 470 764 502 796 b 431 907 502 875 470 907 b 359 836 391 907 359 875 b 431 764 359 796 391 764 z m 425 611 l 425 268 b 324 168 425 213 380 168 b 224 268 269 168 224 213 l 224 611 l 56 611 l 56 268 b 324 0 56 120 176 0 b 425 19 360 0 394 7 l 425 -137 b 324 -238 425 -193 380 -238 b 224 -137 269 -238 224 -193 l 56 -137 b 324 -406 56 -285 176 -406 b 593 -137 472 -406 593 -285 l 593 612 z "},"Œ":{"ha":1185,"x_min":0,"x_max":0,"o":"m 819 804 l 1129 804 l 1129 972 l 819 972 b 607 878 735 972 659 936 b 379 972 548 936 468 972 b 56 649 200 972 56 828 l 56 324 b 379 1 56 146 200 1 b 607 95 468 1 548 37 b 819 1 659 37 735 1 l 1129 1 l 1129 169 l 819 169 b 702 286 754 169 702 221 l 702 428 b 819 403 737 412 777 403 l 1129 403 l 1129 571 l 819 571 b 702 688 754 571 702 623 b 819 804 702 752 754 804 z m 379 169 b 224 324 293 169 224 238 l 224 649 b 379 804 224 735 293 804 b 534 649 464 804 534 735 l 534 324 b 379 169 534 238 464 169 z "},"œ":{"ha":1172,"x_min":0,"x_max":0,"o":"m 809 171 b 739 190 781 171 758 178 l 926 267 l 1118 347 l 1085 425 b 1076 443 1082 431 1079 437 b 1073 449 1075 445 1074 447 b 1067 461 1071 453 1069 457 b 1063 467 1065 463 1064 465 b 1053 483 1059 473 1056 478 b 803 611 996 562 904 611 b 582 516 717 611 638 575 b 361 611 527 575 448 611 b 56 306 193 611 56 474 b 361 0 56 137 193 0 b 583 95 448 0 527 37 b 813 0 640 36 721 0 b 1057 97 904 0 977 29 l 948 225 b 809 171 899 183 860 171 z m 361 168 b 224 306 285 168 224 230 b 361 443 224 382 285 443 b 498 320 432 443 491 389 b 498 306 498 315 498 310 b 498 291 498 301 498 296 b 361 168 491 222 432 168 z m 674 326 l 674 327 b 752 433 679 370 706 412 b 800 443 768 440 784 443 b 881 415 835 443 866 428 b 884 413 882 414 883 414 l 780 370 l 680 329 z "},"Ÿ":{"ha":725,"x_min":0,"x_max":0,"o":"m 229 1128 b 319 1217 279 1128 319 1168 b 229 1307 319 1267 279 1307 b 140 1217 180 1307 140 1267 b 229 1128 140 1168 180 1128 z m 496 1128 b 585 1217 545 1128 585 1168 b 496 1307 585 1267 545 1307 b 407 1217 447 1307 407 1267 b 496 1128 407 1168 447 1128 z m 502 972 l 502 710 b 447 599 502 664 480 624 b 363 570 423 581 394 570 b 279 599 331 570 302 581 b 224 710 245 624 224 664 l 224 972 l 56 972 l 56 710 b 279 414 56 569 150 451 l 279 1 l 447 1 l 447 414 b 670 710 575 451 670 569 l 670 972 z "},"–":{"ha":515,"x_min":0,"x_max":0,"o":"m 461 402 l 461 570 l 56 570 l 56 402 z "},"—":{"ha":683,"x_min":0,"x_max":0,"o":"m 629 402 l 629 570 l 56 570 l 56 402 z "},"―":{"ha":851,"x_min":0,"x_max":0,"o":"m 796 402 l 796 570 l 56 570 l 56 402 z "},"‘":{"ha":331,"x_min":0,"x_max":0,"o":"m 258 1084 b 56 882 146 1084 56 993 l 56 648 l 224 648 l 224 882 b 258 916 224 901 239 916 l 276 916 l 276 1084 z "},"’":{"ha":331,"x_min":0,"x_max":0,"o":"m 108 1084 l 108 850 b 74 816 108 832 93 816 l 56 816 l 56 648 l 74 648 b 276 850 185 648 276 739 l 276 1084 z "},"‛":{"ha":331,"x_min":0,"x_max":0,"o":"m 258 1084 b 56 882 146 1084 56 993 l 56 648 l 224 648 l 224 882 b 258 916 224 901 239 916 l 276 916 l 276 1084 z "},"“":{"ha":618,"x_min":0,"x_max":0,"o":"m 56 882 l 56 648 l 224 648 l 224 882 b 258 916 224 901 239 916 l 276 916 l 276 1084 l 258 1084 b 56 882 146 1084 56 993 z m 544 1084 b 342 882 433 1084 342 993 l 342 648 l 510 648 l 510 882 b 544 916 510 901 525 916 l 563 916 l 563 1084 z "},"”":{"ha":618,"x_min":0,"x_max":0,"o":"m 395 1084 l 395 850 b 360 816 395 832 379 816 l 342 816 l 342 648 l 360 648 b 563 850 472 648 563 739 l 563 1084 z m 108 850 b 74 816 108 832 93 816 l 56 816 l 56 648 l 74 648 b 276 850 185 648 276 739 l 276 1084 l 108 1084 z "},"„":{"ha":618,"x_min":0,"x_max":0,"o":"m 563 172 l 395 172 l 395 -61 b 360 -96 395 -80 379 -96 l 342 -96 l 342 -264 l 360 -264 b 563 -61 472 -264 563 -173 z m 108 -61 b 74 -96 108 -80 93 -96 l 56 -96 l 56 -264 l 74 -264 b 276 -61 185 -264 276 -173 l 276 172 l 108 172 z "},"†":{"ha":558,"x_min":0,"x_max":0,"o":"m 349 713 l 349 906 l 210 906 l 210 713 l 56 713 l 56 573 l 210 573 l 210 66 l 349 66 l 349 573 l 503 573 l 503 713 z "},"•":{"ha":332,"x_min":0,"x_max":0,"o":"m 167 402 b 277 513 228 402 277 451 b 167 624 277 574 228 624 b 56 513 105 624 56 574 b 167 402 56 451 105 402 z "},"…":{"ha":825,"x_min":0,"x_max":0,"o":"m 224 0 l 224 172 l 56 172 l 56 0 z m 497 0 l 497 172 l 329 172 l 329 0 z m 770 0 l 770 172 l 602 172 l 602 0 z "},"€":{"ha":747,"x_min":0,"x_max":0,"o":"m 464 168 b 354 213 423 168 384 184 b 309 323 325 243 309 282 l 309 333 l 601 333 l 601 464 l 309 464 l 309 508 l 601 508 l 601 638 l 309 638 l 309 648 b 354 758 309 690 325 729 b 464 804 384 787 423 804 b 574 758 505 804 544 787 l 692 877 b 464 972 631 938 550 972 b 236 877 378 972 297 938 b 141 648 175 816 141 735 l 141 638 l 56 638 l 56 508 l 141 508 l 141 464 l 56 464 l 56 333 l 141 333 l 141 323 b 236 95 141 237 175 156 b 464 0 297 34 378 0 b 692 95 550 0 631 34 l 574 213 b 464 168 544 184 505 168 z "},"、":{"ha":697,"x_min":0,"x_max":0,"o":"m 140 294 l 56 294 l 56 126 l 140 126 b 182 84 163 126 182 107 l 182 0 l 349 0 l 349 84 l 349 84 b 140 294 349 200 256 294 z "},"。":{"ha":697,"x_min":0,"x_max":0,"o":"m 266 420 b 56 210 150 420 56 326 b 266 0 56 94 150 0 b 475 210 381 0 475 94 b 266 420 475 326 381 420 z m 266 168 b 224 210 242 168 224 187 b 266 252 224 233 242 252 b 308 210 289 252 308 233 b 266 168 308 187 289 168 z "},"ァ":{"ha":699,"x_min":0,"x_max":0,"o":"m 56 672 l 56 504 l 475 504 b 350 378 475 434 419 378 l 308 378 l 308 462 l 140 462 l 140 252 b 56 168 140 206 102 168 l 56 0 b 140 14 85 0 113 5 b 293 168 211 40 268 96 b 305 217 299 184 303 200 b 304 210 305 215 304 212 l 350 210 b 643 504 512 210 643 342 l 643 672 z m 308 252 b 307 230 308 245 307 238 b 308 252 307 238 308 245 z "},"ア":{"ha":878,"x_min":0,"x_max":0,"o":"m 56 678 l 655 678 b 487 511 655 586 579 511 l 487 595 l 319 595 l 319 336 b 151 168 319 243 244 168 l 56 168 l 56 0 l 151 0 b 487 336 336 0 487 150 l 487 343 b 823 678 672 343 823 493 l 823 846 l 56 846 z "},"ィ":{"ha":699,"x_min":0,"x_max":0,"o":"m 476 672 l 475 670 b 307 466 475 569 403 485 b 266 462 294 463 280 462 l 56 462 l 56 294 l 266 294 b 307 296 280 294 294 295 l 307 0 l 475 0 l 475 358 b 643 672 577 425 643 541 l 476 672 z "},"イ":{"ha":878,"x_min":0,"x_max":0,"o":"m 655 846 l 655 762 b 487 595 655 670 579 595 l 56 595 l 56 427 l 319 427 l 319 0 l 487 0 l 487 427 b 823 762 672 427 823 577 l 823 846 z "},"ゥ":{"ha":699,"x_min":0,"x_max":0,"o":"m 475 588 l 475 672 l 307 672 l 307 588 l 56 588 l 56 294 l 224 294 l 224 420 l 475 420 b 224 168 475 281 363 168 l 56 168 l 56 0 l 224 0 b 643 420 455 0 643 188 l 643 588 z "},"ウ":{"ha":878,"x_min":0,"x_max":0,"o":"m 523 762 l 523 846 l 355 846 l 355 762 l 56 762 l 56 406 l 224 406 l 224 595 l 655 595 l 655 490 b 332 168 655 312 510 168 l 56 168 l 56 0 l 332 0 b 823 490 603 0 823 220 l 823 762 z "},"ェ":{"ha":699,"x_min":0,"x_max":0,"o":"m 643 462 l 643 630 l 56 630 l 56 462 l 266 462 l 266 168 l 56 168 l 56 0 l 643 0 l 643 168 l 433 168 l 433 462 z "},"エ":{"ha":878,"x_min":0,"x_max":0,"o":"m 823 636 l 823 804 l 56 804 l 56 636 l 355 636 l 355 168 l 56 168 l 56 0 l 823 0 l 823 168 l 523 168 l 523 636 z "},"ォ":{"ha":699,"x_min":0,"x_max":0,"o":"m 475 588 l 475 672 l 308 672 l 308 588 l 56 588 l 56 420 l 308 420 l 308 420 b 56 168 307 281 195 168 l 56 0 b 308 84 150 0 237 31 l 308 0 l 475 0 l 475 420 l 643 420 l 643 588 z "},"オ":{"ha":878,"x_min":0,"x_max":0,"o":"m 739 762 l 739 846 l 571 846 l 571 762 l 56 762 l 56 595 l 403 595 l 403 490 b 80 168 403 312 258 168 l 56 168 l 56 0 l 80 0 b 571 490 351 0 571 219 l 571 0 l 739 0 l 739 595 l 823 595 l 823 762 z "},"カ":{"ha":878,"x_min":0,"x_max":0,"o":"m 808 598 b 655 751 783 669 726 726 b 571 766 628 761 600 766 l 391 766 l 391 846 l 224 846 l 224 766 l 56 766 l 56 598 l 224 598 l 224 336 b 56 168 224 243 148 168 l 56 0 b 391 336 241 0 391 150 l 391 598 l 571 598 b 655 514 617 598 655 560 l 655 3 l 823 3 l 823 514 b 808 598 823 543 818 572 z "},"ガ":{"ha":935,"x_min":0,"x_max":0,"o":"m 907 762 l 907 1014 l 739 1014 l 739 762 z m 697 762 l 697 1014 l 529 1014 l 529 762 z m 655 748 b 571 762 628 757 600 762 l 391 762 l 391 846 l 224 846 l 224 762 l 56 762 l 56 595 l 224 595 l 224 336 b 56 168 224 243 148 168 l 56 0 b 391 336 241 0 391 150 l 391 595 l 571 595 b 655 511 617 595 655 557 l 655 0 l 823 0 l 823 511 b 808 595 823 540 818 568 b 655 748 783 666 726 723 z "},"キ":{"ha":878,"x_min":0,"x_max":0,"o":"m 823 762 l 360 762 l 360 846 l 192 846 l 192 762 l 56 762 l 56 595 l 219 595 b 327 422 243 538 282 481 l 56 422 l 56 254 l 461 254 b 511 168 483 222 501 193 b 519 135 516 155 519 144 l 519 0 l 687 0 l 687 135 b 684 168 687 146 686 157 b 656 254 680 196 670 225 l 823 254 l 823 422 l 544 422 b 473 509 521 450 496 480 b 410 595 450 538 428 567 l 823 595 z "},"ギ":{"ha":935,"x_min":0,"x_max":0,"o":"m 739 1014 l 739 762 l 697 762 l 697 1014 l 529 1014 l 529 762 l 360 762 l 360 846 l 192 846 l 192 762 l 56 762 l 56 595 l 219 595 b 327 422 243 538 282 481 l 56 422 l 56 254 l 461 254 b 511 168 483 222 501 193 b 519 135 516 155 519 144 l 519 0 l 687 0 l 687 135 b 684 168 687 146 686 157 b 656 254 680 196 670 225 l 823 254 l 823 422 l 544 422 b 473 509 521 450 496 480 b 410 595 450 538 428 567 l 823 595 l 823 762 l 907 762 l 907 1014 z "},"ク":{"ha":878,"x_min":0,"x_max":0,"o":"m 182 846 l 182 678 b 56 553 182 609 125 553 l 56 385 b 350 678 218 385 350 516 l 655 678 l 655 490 b 626 357 655 443 644 398 b 619 343 624 352 621 347 b 513 224 594 295 557 254 b 332 168 462 189 399 168 l 56 168 l 56 0 l 332 0 b 551 51 411 0 485 19 b 713 182 614 83 669 128 b 800 343 752 229 781 283 b 823 490 815 389 823 439 l 823 846 z "},"グ":{"ha":935,"x_min":0,"x_max":0,"o":"m 739 1014 l 739 846 l 697 846 l 697 1014 l 529 1014 l 529 846 l 182 846 l 182 679 b 56 553 182 609 125 553 l 56 385 b 350 679 218 385 350 516 l 655 679 l 655 490 b 626 357 655 443 644 398 b 619 343 624 352 621 347 b 513 224 594 295 557 254 b 332 168 462 189 399 168 l 56 168 l 56 0 l 332 0 b 551 51 411 0 485 19 b 713 182 614 83 669 128 b 800 343 752 229 781 283 b 823 490 815 389 823 439 l 823 762 l 907 762 l 907 1014 z "},"ケ":{"ha":878,"x_min":0,"x_max":0,"o":"m 350 762 l 350 846 l 182 846 l 182 678 b 149 595 182 646 169 617 b 56 553 126 569 93 553 l 56 385 b 337 595 189 385 301 473 l 529 595 l 529 490 b 206 168 529 312 384 168 l 56 168 l 56 0 l 206 0 b 697 490 477 0 697 220 l 697 595 l 823 595 l 823 762 z "},"ゲ":{"ha":935,"x_min":0,"x_max":0,"o":"m 653 761 l 350 761 l 350 845 l 182 845 l 182 677 b 149 593 182 645 169 616 b 56 551 126 567 93 551 l 56 383 b 337 593 189 383 301 472 l 529 593 l 529 489 b 206 167 529 311 384 167 l 56 167 l 56 -1 l 206 -1 b 697 489 477 -1 697 218 l 697 593 l 823 593 l 823 761 l 653 761 z m 907 762 l 907 1014 l 739 1014 l 739 762 z m 697 762 l 697 1014 l 529 1014 l 529 762 z "},"コ":{"ha":878,"x_min":0,"x_max":0,"o":"m 487 804 l 56 804 l 56 636 l 487 636 b 655 469 579 636 655 561 l 655 336 b 487 168 655 243 579 168 l 56 168 l 56 0 l 487 0 b 823 336 672 0 823 150 l 823 469 b 487 804 823 654 672 804 z "},"ゴ":{"ha":935,"x_min":0,"x_max":0,"o":"m 650 762 l 697 762 l 697 1014 l 529 1014 l 529 802 b 487 804 515 804 501 804 l 56 804 l 56 637 l 487 637 b 655 469 580 637 655 561 l 655 336 b 487 168 655 243 580 168 l 56 168 l 56 0 l 487 0 b 823 336 672 0 823 150 l 823 469 b 650 762 823 595 753 705 z m 907 762 l 907 1014 l 739 1014 l 739 762 z "},"サ":{"ha":878,"x_min":0,"x_max":0,"o":"m 739 762 l 739 846 l 571 846 l 571 762 l 308 762 l 308 846 l 140 846 l 140 762 l 56 763 l 56 595 l 140 595 l 140 343 l 307 343 l 308 594 l 571 594 l 571 530 l 571 490 b 248 168 571 312 426 168 b 248 168 248 168 248 168 l 139 168 l 139 0 l 248 0 b 248 0 248 0 248 0 b 739 490 519 0 739 219 l 739 530 l 739 594 l 823 594 l 823 762 z "},"ザ":{"ha":935,"x_min":0,"x_max":0,"o":"m 907 762 l 907 1014 l 739 1014 l 739 846 l 697 846 l 697 1014 l 529 1014 l 529 762 l 571 762 l 571 762 l 308 762 l 308 846 l 140 846 l 140 762 l 56 762 l 56 595 l 140 595 l 140 343 l 307 343 l 308 594 l 571 594 l 571 524 l 571 490 b 248 168 571 312 426 168 l 139 168 l 139 0 l 248 0 b 739 490 519 0 739 219 l 739 524 l 739 594 l 823 594 l 823 762 l 739 762 l 739 762 z "},"シ":{"ha":878,"x_min":0,"x_max":0,"o":"m 475 427 l 475 595 l 56 595 l 56 427 z m 475 678 l 475 846 l 56 846 l 56 678 z m 655 846 l 655 490 b 332 168 655 312 510 168 l 56 168 l 56 0 l 332 0 b 823 490 603 0 823 220 l 823 846 z "},"ジ":{"ha":935,"x_min":0,"x_max":0,"o":"m 739 1014 l 739 846 l 697 846 l 697 1014 l 529 1014 l 529 762 l 655 762 l 655 490 b 332 168 655 312 510 168 l 56 168 l 56 0 l 332 0 b 823 490 603 0 823 219 l 823 762 l 907 762 l 907 1014 z m 475 427 l 475 594 l 56 594 l 56 427 z m 475 678 l 475 846 l 56 846 l 56 678 z "},"ス":{"ha":878,"x_min":0,"x_max":0,"o":"m 654 215 b 739 490 708 294 739 388 l 739 846 l 56 846 l 56 678 l 571 678 l 571 490 b 536 344 571 438 558 388 b 417 215 508 291 467 246 b 248 168 368 185 310 168 l 56 168 l 56 0 l 248 0 b 536 93 356 0 455 35 b 823 0 616 35 715 0 l 823 168 b 654 215 761 168 703 185 z "},"ズ":{"ha":935,"x_min":0,"x_max":0,"o":"m 907 762 l 907 1014 l 739 1014 l 739 762 z m 739 490 l 739 846 l 697 846 l 697 1014 l 529 1014 l 529 846 l 56 846 l 56 678 l 571 678 l 571 490 b 536 344 571 438 558 388 b 417 215 508 291 467 246 b 248 168 368 185 310 168 l 56 168 l 56 0 l 248 0 b 536 93 356 0 455 35 b 823 0 616 35 715 0 l 823 168 b 654 215 761 168 703 185 b 739 490 708 294 739 388 z "},"セ":{"ha":878,"x_min":0,"x_max":0,"o":"m 487 427 l 487 259 b 823 595 672 259 823 409 l 823 762 l 308 762 l 308 846 l 140 846 l 140 762 l 56 762 l 56 595 l 140 595 l 140 252 b 154 168 140 223 145 194 b 308 14 179 96 236 40 b 391 0 334 5 362 0 l 823 0 l 823 168 l 391 168 b 308 252 345 168 308 206 l 308 595 l 655 595 b 487 427 655 502 579 427 z "},"ゼ":{"ha":935,"x_min":0,"x_max":0,"o":"m 308 762 l 308 846 l 140 846 l 140 762 l 56 762 l 56 594 l 140 594 l 140 252 b 154 168 140 223 145 194 b 308 14 179 96 236 40 b 391 0 334 5 362 0 l 823 0 l 823 168 l 391 168 b 308 252 345 168 308 206 l 308 594 l 655 594 b 487 427 655 502 579 427 l 487 259 b 823 594 672 259 823 409 l 823 762 z m 907 762 l 907 1014 l 739 1014 l 739 762 z m 697 762 l 697 1014 l 529 1014 l 529 762 z "},"ソ":{"ha":878,"x_min":0,"x_max":0,"o":"m 655 846 l 655 490 b 332 168 655 312 510 168 l 56 168 l 56 0 l 332 0 b 823 490 603 0 823 220 l 823 846 z m 220 420 l 308 420 l 308 588 l 224 588 l 224 846 l 56 846 l 56 584 b 220 420 56 494 129 420 z "},"ゾ":{"ha":935,"x_min":0,"x_max":0,"o":"m 739 1014 l 739 846 l 697 846 l 697 1014 l 529 1014 l 529 762 l 655 762 l 655 490 b 332 168 655 312 510 168 l 56 168 l 56 0 l 332 0 b 823 490 603 0 823 219 l 823 762 l 907 762 l 907 1014 z m 220 420 l 308 420 l 308 588 l 224 588 l 224 846 l 56 846 l 56 584 b 220 420 56 494 129 420 z "},"タ":{"ha":878,"x_min":0,"x_max":0,"o":"m 182 846 l 182 678 b 56 553 182 609 125 553 l 56 385 b 274 481 142 385 220 422 b 330 407 291 457 310 432 b 405 315 354 378 380 346 b 482 205 435 276 463 238 b 482 205 482 205 482 205 b 332 168 438 181 387 168 l 56 168 l 56 0 l 332 0 b 509 33 395 0 454 12 l 509 33 b 510 33 509 33 509 33 b 527 40 516 36 521 38 b 547 49 534 43 540 46 b 551 51 548 50 549 51 b 571 62 558 55 565 58 b 597 78 580 67 589 72 b 603 82 599 79 601 80 b 625 97 610 86 617 92 b 627 99 625 97 626 98 b 651 118 636 105 644 112 b 654 120 652 119 653 120 b 675 140 661 127 668 133 b 676 141 675 140 676 141 b 676 141 676 141 676 141 b 713 182 689 154 702 168 b 800 343 752 229 781 283 b 823 490 815 389 823 439 l 823 846 z m 463 509 b 356 678 414 571 371 632 b 356 678 356 678 356 678 l 655 678 l 655 490 b 626 357 655 443 644 398 b 619 343 624 352 621 347 b 607 322 615 336 611 329 b 607 322 607 322 607 322 b 538 417 587 354 564 385 b 463 509 513 447 487 478 z "},"ダ":{"ha":935,"x_min":0,"x_max":0,"o":"m 739 1014 l 739 846 l 697 846 l 697 1014 l 529 1014 l 529 846 l 182 846 l 182 678 b 56 553 182 609 125 553 l 56 385 b 274 481 142 385 220 422 b 330 407 291 457 310 432 b 405 315 354 378 380 346 b 482 205 435 276 463 238 b 482 205 482 205 482 205 b 332 168 438 181 387 168 l 56 168 l 56 0 l 332 0 b 509 33 395 0 454 12 l 509 33 b 509 33 509 33 509 33 b 526 40 515 35 521 38 b 546 49 533 43 539 46 b 551 51 547 50 549 50 b 582 69 562 57 572 62 b 605 83 590 73 598 78 b 611 87 607 84 609 86 b 629 100 617 91 623 96 b 633 103 630 101 632 102 b 675 140 648 115 662 127 b 676 141 675 140 676 141 b 676 141 676 141 676 141 b 713 182 689 154 702 168 b 800 343 752 229 781 283 b 823 490 815 389 823 439 l 823 762 l 907 762 l 907 1014 z m 463 509 b 356 678 414 571 371 632 b 356 678 356 678 356 678 l 655 678 l 655 490 b 626 357 655 443 644 398 b 619 343 624 352 621 347 b 607 322 615 336 611 329 b 607 322 607 322 607 322 b 538 417 587 353 564 385 b 463 509 513 447 487 478 z "},"チ":{"ha":878,"x_min":0,"x_max":0,"o":"m 655 594 l 655 678 l 739 678 l 739 846 l 140 846 l 140 678 l 487 678 l 487 594 l 56 594 l 56 427 l 487 427 l 487 336 b 319 168 487 243 412 168 l 56 168 l 56 0 l 319 0 b 655 336 504 0 655 150 l 655 427 l 823 427 l 823 594 z "},"ヂ":{"ha":935,"x_min":0,"x_max":0,"o":"m 739 678 l 739 762 l 907 762 l 907 1014 l 739 1014 l 739 846 l 739 846 l 739 762 l 739 846 l 697 846 l 697 1014 l 529 1014 l 529 846 l 140 846 l 140 678 l 487 678 l 487 594 l 56 594 l 56 427 l 487 427 l 487 336 b 319 168 487 243 412 168 l 56 168 l 56 0 l 319 0 b 655 336 504 0 655 150 l 655 427 l 823 427 l 823 594 l 655 594 l 655 678 z "},"ッ":{"ha":699,"x_min":0,"x_max":0,"o":"m 433 420 l 433 672 l 266 672 l 266 420 z m 224 420 l 224 672 l 56 672 l 56 420 z m 476 672 l 476 420 b 224 168 476 281 363 168 l 56 168 l 56 0 l 224 0 b 643 420 455 0 643 188 l 643 420 l 643 672 z "},"ツ":{"ha":878,"x_min":0,"x_max":0,"o":"m 655 846 l 655 490 b 332 168 655 312 510 168 l 56 168 l 56 0 l 332 0 b 823 490 603 0 823 220 l 823 846 z m 475 427 l 475 846 l 308 846 l 308 427 z m 224 427 l 224 846 l 56 846 l 56 427 z "},"ヅ":{"ha":935,"x_min":0,"x_max":0,"o":"m 739 1014 l 739 846 l 697 846 l 697 1014 l 529 1014 l 529 762 l 655 762 l 655 490 b 332 168 655 312 510 168 l 56 168 l 56 0 l 332 0 b 823 490 603 0 823 219 l 823 762 l 907 762 l 907 1014 z m 475 427 l 475 846 l 308 846 l 308 427 z m 224 427 l 224 846 l 56 846 l 56 427 z "},"テ":{"ha":878,"x_min":0,"x_max":0,"o":"m 56 595 l 56 427 l 487 427 l 487 336 l 487 336 b 319 168 487 243 412 168 l 56 168 l 56 0 l 319 0 b 655 336 504 0 655 150 l 655 336 l 655 427 l 823 427 l 823 595 z m 739 678 l 739 846 l 140 846 l 140 678 z "},"デ":{"ha":935,"x_min":0,"x_max":0,"o":"m 739 1014 l 739 846 l 739 846 l 739 762 l 739 846 l 697 846 l 697 1014 l 529 1014 l 529 846 l 140 846 l 140 678 l 739 678 l 739 762 l 907 762 l 907 1014 z m 56 594 l 56 427 l 487 427 l 487 336 b 319 168 487 243 412 168 l 56 168 l 56 0 l 319 0 b 655 336 504 0 655 150 l 655 427 l 823 427 l 823 594 z "},"ト":{"ha":878,"x_min":0,"x_max":0,"o":"m 224 595 l 224 846 l 56 846 l 56 0 l 224 0 l 224 427 l 823 427 l 823 595 z "},"ド":{"ha":935,"x_min":0,"x_max":0,"o":"m 907 762 l 907 1014 l 739 1014 l 739 762 z m 697 762 l 697 1014 l 529 1014 l 529 762 z m 224 846 l 56 846 l 56 0 l 224 0 l 224 427 b 94 488 171 427 125 450 b 224 427 125 450 171 427 l 823 427 l 823 595 l 224 595 z "},"ナ":{"ha":878,"x_min":0,"x_max":0,"o":"m 655 762 l 655 846 l 487 846 l 487 762 l 56 762 l 56 595 l 487 595 l 487 336 b 319 168 487 243 412 168 l 56 168 l 56 0 l 319 0 b 655 336 504 0 655 150 l 655 595 l 823 595 l 823 762 z "},"ニ":{"ha":878,"x_min":0,"x_max":0,"o":"m 823 0 l 823 168 l 56 168 l 56 0 z m 823 595 l 823 762 l 56 762 l 56 595 z "},"ヌ":{"ha":878,"x_min":0,"x_max":0,"o":"m 98 804 l 98 636 l 655 636 l 655 636 b 598 412 655 555 634 479 b 332 490 521 462 430 490 l 332 322 b 491 281 390 322 444 307 b 186 168 409 210 303 168 l 56 168 l 56 0 l 186 0 b 611 162 349 0 498 61 b 655 0 639 115 655 59 l 823 0 b 724 295 823 111 786 213 b 823 636 786 394 823 511 l 823 804 z "},"ネ":{"ha":878,"x_min":0,"x_max":0,"o":"m 523 762 l 523 846 l 355 846 l 355 762 l 56 762 l 56 595 l 648 595 b 534 407 633 519 592 453 b 523 398 530 404 527 401 b 377 339 481 368 431 347 b 355 337 370 338 363 337 b 332 336 348 336 340 336 l 56 336 l 56 168 l 332 168 b 355 169 340 168 348 168 l 355 0 l 523 0 l 523 164 b 655 0 598 147 655 80 l 823 0 b 656 290 823 124 756 232 b 823 658 758 380 823 512 l 823 658 l 823 762 z "},"ノ":{"ha":832,"x_min":0,"x_max":0,"o":"m 608 846 l 608 636 b 140 168 608 378 398 168 l 56 168 l 56 0 l 140 0 b 776 636 491 0 776 285 l 776 846 z "},"ハ":{"ha":878,"x_min":0,"x_max":0,"o":"m 140 168 l 56 168 l 56 0 l 143 0 b 308 164 234 0 308 74 l 308 846 l 140 846 z m 739 168 l 739 846 l 571 846 l 571 164 b 735 0 571 74 644 0 l 823 0 l 823 168 z "},"バ":{"ha":935,"x_min":0,"x_max":0,"o":"m 907 762 l 907 1014 l 739 1014 l 739 846 l 697 846 l 697 1014 l 529 1014 l 529 762 l 571 762 l 571 164 b 735 0 571 74 644 0 l 823 0 l 823 168 l 739 168 l 739 762 z m 140 168 l 56 168 l 56 0 l 143 0 b 308 164 234 0 308 74 l 308 846 l 140 846 z "},"パ":{"ha":935,"x_min":0,"x_max":0,"o":"m 140 168 l 56 168 l 56 0 l 143 0 b 308 164 234 0 308 74 l 308 846 l 140 846 z m 907 888 b 697 1098 907 1004 813 1098 b 487 888 581 1098 487 1004 b 571 720 487 820 520 759 l 571 164 b 735 0 571 74 644 0 l 823 0 l 823 168 l 739 168 l 739 683 b 907 888 835 702 907 787 z m 697 930 b 739 888 720 930 739 912 b 697 846 739 865 720 846 b 655 888 674 846 655 865 b 697 930 655 912 674 930 z "},"ヒ":{"ha":878,"x_min":0,"x_max":0,"o":"m 224 595 l 823 595 l 823 763 l 224 763 l 224 846 l 56 846 l 56 252 b 70 168 56 223 61 194 b 224 14 95 96 152 40 b 308 0 250 5 278 0 l 823 0 l 823 168 l 308 168 b 224 252 261 168 224 206 z "},"ビ":{"ha":935,"x_min":0,"x_max":0,"o":"m 739 1014 l 739 762 l 697 762 l 697 1014 l 529 1014 l 529 762 l 224 762 l 224 850 l 56 850 l 56 255 b 70 171 56 226 61 198 b 224 18 95 100 152 43 b 308 3 250 8 278 3 l 823 3 l 823 171 l 308 171 b 224 255 261 171 224 209 l 224 594 l 823 594 l 823 762 l 907 762 l 907 1014 z "},"ピ":{"ha":935,"x_min":0,"x_max":0,"o":"m 697 1100 b 487 890 581 1100 487 1006 b 530 762 487 842 503 798 l 224 762 l 224 850 l 56 850 l 56 255 b 70 171 56 226 61 198 b 224 18 95 100 152 43 b 308 3 250 8 278 3 l 823 3 l 823 171 l 308 171 b 224 255 261 171 224 209 l 224 594 l 823 594 l 823 722 b 907 890 874 760 907 821 b 697 1100 907 1006 813 1100 z m 697 932 b 739 890 720 932 739 913 b 697 848 739 866 720 848 b 655 890 674 848 655 866 b 697 932 655 913 674 932 z "},"フ":{"ha":878,"x_min":0,"x_max":0,"o":"m 56 846 l 56 679 l 655 679 l 655 490 b 332 168 655 312 510 168 l 56 168 l 56 0 l 332 0 b 823 490 603 0 823 220 l 823 846 z "},"ブ":{"ha":935,"x_min":0,"x_max":0,"o":"m 739 1014 l 739 846 l 697 846 l 697 1014 l 529 1014 l 529 846 l 56 846 l 56 678 l 655 678 l 655 490 b 332 168 655 312 510 168 l 56 168 l 56 0 l 332 0 b 823 490 603 0 823 219 l 823 762 l 907 762 l 907 1014 z "},"プ":{"ha":935,"x_min":0,"x_max":0,"o":"m 697 1098 b 487 888 581 1098 487 1004 b 491 846 487 874 488 860 l 56 846 l 56 678 l 655 678 l 655 490 b 332 168 655 312 510 168 l 56 168 l 56 0 l 332 0 b 823 490 603 0 823 219 l 823 720 b 907 888 874 759 907 820 b 697 1098 907 1004 813 1098 z m 697 930 b 739 888 720 930 739 912 b 697 846 739 865 720 846 b 655 888 674 846 655 865 b 697 930 655 912 674 930 z "},"ヘ":{"ha":878,"x_min":0,"x_max":0,"o":"m 571 420 l 571 846 l 350 846 b 56 553 187 846 56 715 l 56 42 l 224 42 l 224 553 b 350 679 224 622 280 679 l 403 679 l 403 416 l 403 416 b 823 0 405 186 592 0 l 823 168 b 571 420 684 168 571 281 z "},"ベ":{"ha":935,"x_min":0,"x_max":0,"o":"m 907 762 l 907 1014 l 739 1014 l 739 762 z m 571 420 l 571 762 l 697 762 l 697 1014 l 529 1014 l 529 846 l 350 846 b 56 553 187 846 56 715 l 56 42 l 224 42 l 224 553 b 350 678 224 622 280 678 l 403 678 l 403 416 l 403 416 b 823 0 405 186 592 0 l 823 168 b 571 420 684 168 571 281 z "},"ペ":{"ha":935,"x_min":0,"x_max":0,"o":"m 571 720 b 697 678 606 694 649 678 b 907 888 813 678 907 772 b 697 1098 907 1004 813 1098 b 487 888 581 1098 487 1004 b 491 846 487 874 488 860 l 350 846 b 56 553 187 846 56 715 l 56 42 l 224 42 l 224 553 b 350 678 224 622 280 678 l 403 678 l 403 416 l 403 416 b 823 0 405 186 592 0 l 823 168 b 571 420 684 168 571 281 z m 697 930 b 739 888 720 930 739 912 b 697 846 739 865 720 846 b 655 888 674 846 655 865 b 697 930 655 912 673 930 z "},"ホ":{"ha":878,"x_min":0,"x_max":0,"o":"m 658 511 l 613 511 l 613 343 l 655 343 l 655 0 l 823 0 l 823 346 b 658 511 823 437 749 511 z m 98 168 l 56 168 l 56 0 l 101 0 b 266 164 192 0 266 74 l 266 511 l 98 511 z m 529 763 l 529 846 l 361 846 l 361 763 l 56 763 l 56 595 l 361 595 l 361 0 l 529 0 l 529 595 l 823 595 l 823 763 z "},"ボ":{"ha":935,"x_min":0,"x_max":0,"o":"m 739 1014 l 739 762 l 697 762 l 697 1014 l 529 1014 l 529 846 l 361 846 l 361 762 l 56 762 l 56 594 l 361 594 l 361 0 l 529 0 l 529 594 l 823 594 l 823 762 l 907 762 l 907 1014 z m 658 510 l 613 510 l 613 343 l 655 343 l 655 0 l 823 0 l 823 346 b 658 510 823 437 749 510 z m 98 168 l 56 168 l 56 0 l 101 0 b 266 164 192 0 266 74 l 266 510 l 98 510 z "},"ポ":{"ha":935,"x_min":0,"x_max":0,"o":"m 658 510 l 613 510 l 613 343 l 655 343 l 655 0 l 823 0 l 823 346 b 658 510 823 437 749 510 z m 98 168 l 56 168 l 56 0 l 101 0 b 266 164 192 0 266 74 l 266 511 l 98 511 z m 697 1100 b 487 890 581 1100 487 1006 b 491 846 487 875 488 860 l 355 846 l 355 762 l 56 762 l 56 594 l 355 594 l 355 0 l 523 0 l 523 594 l 823 594 l 823 722 b 907 890 874 760 907 821 b 697 1100 907 1006 813 1100 z m 697 932 b 739 890 720 932 739 913 b 697 848 739 866 720 848 b 655 890 674 848 655 866 b 697 932 655 913 674 932 z m 523 762 l 523 772 b 530 762 525 768 527 765 z "},"マ":{"ha":878,"x_min":0,"x_max":0,"o":"m 655 846 l 655 846 l 56 846 l 56 679 l 655 679 l 655 574 b 502 300 655 459 594 357 b 98 504 410 424 263 504 l 98 336 b 320 252 183 336 260 304 b 332 240 324 248 328 244 b 421 92 374 200 404 149 b 434 0 429 63 434 32 l 601 0 b 579 150 601 52 593 103 b 823 574 725 235 823 393 l 823 846 z "},"ミ":{"ha":878,"x_min":0,"x_max":0,"o":"m 220 637 l 781 637 l 781 804 l 223 804 l 223 846 l 56 846 l 56 801 b 220 637 56 710 129 637 z m 658 210 l 98 210 l 98 42 l 655 42 l 655 0 l 823 0 l 823 46 b 658 210 823 136 749 210 z m 781 339 l 781 507 l 98 507 l 98 339 z "},"ム":{"ha":878,"x_min":0,"x_max":0,"o":"m 224 42 l 56 42 l 56 42 z m 658 507 l 613 507 l 613 339 l 655 339 l 655 210 l 224 210 l 224 511 b 391 679 224 603 299 679 l 571 679 l 571 846 l 391 846 b 56 511 206 846 56 696 l 56 42 l 655 42 l 655 3 l 823 3 l 823 343 b 658 507 823 434 749 507 z "},"メ":{"ha":832,"x_min":0,"x_max":0,"o":"m 776 846 l 608 846 l 608 636 b 595 528 608 599 604 563 b 140 720 480 647 318 720 l 98 720 l 98 553 l 140 553 b 518 360 295 553 433 477 b 140 168 433 244 295 168 l 56 168 l 56 0 l 140 0 b 595 192 318 0 480 74 b 608 84 604 158 608 121 l 608 0 l 776 0 l 776 84 b 713 360 776 183 753 277 b 776 636 753 444 776 537 z "},"モ":{"ha":878,"x_min":0,"x_max":0,"o":"m 823 679 l 823 846 l 56 846 l 56 679 l 182 679 l 182 590 l 56 590 l 56 422 l 182 422 l 182 210 b 391 0 182 94 276 0 l 823 0 l 823 168 l 391 168 b 350 210 368 168 350 187 l 350 422 l 823 422 l 823 590 l 350 590 l 350 679 z "},"ャ":{"ha":699,"x_min":0,"x_max":0,"o":"m 308 588 l 308 672 l 140 672 l 140 588 l 56 588 l 56 420 l 140 420 l 140 0 l 308 0 l 308 420 l 475 420 b 350 294 475 350 419 294 l 350 126 b 643 420 512 126 643 258 l 643 588 z "},"ヤ":{"ha":878,"x_min":0,"x_max":0,"o":"m 308 763 l 308 846 l 140 846 l 140 763 l 56 763 l 56 595 l 140 595 l 140 0 l 308 0 l 308 595 l 655 595 b 403 343 655 455 542 343 l 403 175 b 823 595 635 175 823 363 l 823 763 z "},"ュ":{"ha":699,"x_min":0,"x_max":0,"o":"m 558 168 l 558 420 b 544 504 558 449 553 478 b 391 657 519 575 462 632 b 307 672 364 667 336 672 l 98 672 l 98 504 l 307 504 b 391 420 353 504 391 466 l 391 168 l 56 168 l 56 0 l 643 0 l 643 168 z "},"ユ":{"ha":878,"x_min":0,"x_max":0,"o":"m 697 595 b 682 679 697 624 692 652 b 529 832 657 750 600 807 b 445 847 502 841 474 847 l 98 847 l 98 679 l 445 679 b 529 595 491 679 529 641 l 529 168 l 56 168 l 56 0 l 823 0 l 823 168 l 697 168 z "},"ョ":{"ha":699,"x_min":0,"x_max":0,"o":"m 642 420 b 628 504 642 449 637 478 b 475 657 603 575 546 632 b 391 672 448 667 420 672 l 56 672 l 56 504 l 391 504 b 475 420 437 504 475 466 l 56 420 l 56 252 l 475 252 b 391 168 475 206 437 168 l 56 168 l 56 0 l 391 0 b 475 14 420 0 448 5 b 628 168 546 40 603 96 b 642 252 637 194 642 222 l 643 252 l 643 420 z "},"ヨ":{"ha":878,"x_min":0,"x_max":0,"o":"m 523 846 l 56 846 l 56 679 l 523 679 b 655 547 596 679 655 620 l 655 507 l 56 507 l 56 339 l 655 339 l 655 300 b 523 168 655 227 596 168 l 56 168 l 56 0 l 523 0 b 823 300 689 0 823 134 l 823 547 b 523 846 823 712 689 846 z "},"ラ":{"ha":878,"x_min":0,"x_max":0,"o":"m 56 595 l 56 427 l 648 427 b 332 168 619 279 489 168 l 56 168 l 56 0 l 332 0 b 818 427 582 0 787 186 b 823 490 821 447 823 469 l 823 595 z m 823 679 l 823 846 l 56 846 l 56 679 z "},"リ":{"ha":832,"x_min":0,"x_max":0,"o":"m 608 846 l 608 490 b 286 168 608 312 464 168 l 56 168 l 56 0 l 286 0 b 776 490 557 0 776 220 l 776 846 z m 224 343 l 224 846 l 56 846 l 56 343 z "},"ル":{"ha":878,"x_min":0,"x_max":0,"o":"m 655 420 b 571 232 655 345 622 278 l 571 846 l 403 846 l 403 0 b 571 35 462 0 519 13 b 823 420 719 100 823 248 z m 98 168 l 56 168 l 56 0 l 101 0 b 266 164 192 0 266 74 l 266 846 l 98 846 z "},"レ":{"ha":836,"x_min":0,"x_max":0,"o":"m 613 490 b 290 168 613 312 468 168 l 224 168 l 224 846 l 56 846 l 56 0 l 290 0 b 781 490 561 0 781 220 z "},"ロ":{"ha":878,"x_min":0,"x_max":0,"o":"m 658 846 l 220 846 b 56 682 129 846 56 773 l 56 164 b 220 0 56 74 129 0 l 658 0 b 823 164 749 0 823 74 l 823 682 b 658 846 823 773 749 846 z m 655 168 l 224 168 l 224 679 l 655 679 z "},"ワ":{"ha":878,"x_min":0,"x_max":0,"o":"m 655 847 l 224 846 l 56 846 l 56 427 l 224 427 l 224 679 l 655 679 l 655 490 b 332 168 655 312 510 168 l 56 168 l 56 0 l 332 0 b 823 490 603 0 823 220 l 823 847 z "},"ヲ":{"ha":878,"x_min":0,"x_max":0,"o":"m 56 846 l 56 679 l 655 679 l 655 553 l 56 553 l 56 385 l 637 385 b 619 343 632 370 626 356 b 332 168 565 239 457 168 l 56 168 l 56 0 l 332 0 b 800 343 552 0 737 144 b 811 385 804 356 808 370 b 823 490 819 419 823 454 l 823 846 z m 655 847 l 823 846 l 823 847 z "},"ン":{"ha":878,"x_min":0,"x_max":0,"o":"m 476 679 l 476 847 l 56 847 l 56 679 z m 655 847 l 655 490 b 332 168 655 312 510 168 l 56 168 l 56 0 l 332 0 b 823 490 603 0 823 220 l 823 847 z "},"ヴ":{"ha":935,"x_min":0,"x_max":0,"o":"m 739 1015 l 739 763 l 697 763 l 697 1015 l 529 1015 l 529 763 l 523 763 l 523 847 l 355 847 l 355 763 l 56 763 l 56 406 l 224 406 l 224 595 l 655 595 l 655 490 b 332 168 655 312 510 168 l 56 168 l 56 0 l 332 0 b 823 490 603 0 823 220 l 823 763 l 907 763 l 907 1015 z "},"・":{"ha":697,"x_min":0,"x_max":0,"o":"m 349 507 b 265 423 302 507 265 470 b 349 339 265 377 302 339 b 433 423 395 339 433 377 b 349 507 433 470 395 507 z "},"ー":{"ha":878,"x_min":0,"x_max":0,"o":"m 823 339 l 823 507 l 56 507 l 56 339 z "},"":{"ha":1683,"x_min":0,"x_max":0,"o":"m 56 973 l 56 1 l 1628 1 l 1628 973 z "},"":{"ha":1340,"x_min":0,"x_max":0,"o":"m 56 1 l 677 1 b 1285 609 677 337 949 609 l 1285 1230 b 56 1 606 1230 56 680 z "},"":{"ha":703,"x_min":0,"x_max":0,"o":"m 427 547 l 427 806 b 486 742 460 790 477 765 l 643 801 b 427 981 628 839 574 952 l 427 1078 l 277 1078 l 277 980 b 56 719 152 950 62 848 b 277 424 52 627 89 505 l 277 166 b 218 230 244 181 227 207 l 61 170 b 277 -10 75 132 130 20 l 277 -106 l 427 -106 l 427 -8 b 648 252 551 21 642 123 b 427 547 652 344 615 467 z m 224 712 b 277 801 225 750 246 781 l 277 615 b 224 712 221 656 223 696 z m 480 260 b 427 171 478 222 458 190 l 427 357 b 480 260 483 315 481 276 z "},"":{"ha":1079,"x_min":0,"x_max":0,"o":"m 276 530 b 497 751 398 530 497 629 b 276 972 497 873 398 972 b 56 751 155 972 56 873 b 276 530 56 629 155 530 z m 276 822 b 347 751 315 822 347 790 b 276 680 347 712 315 680 b 205 751 237 680 205 712 b 276 822 205 790 237 822 z m 803 441 b 583 221 682 441 583 342 b 803 0 583 99 682 0 b 1024 221 925 0 1024 99 b 803 441 1024 342 925 441 z m 803 150 b 732 221 764 150 732 181 b 803 292 732 260 764 292 b 874 221 842 292 874 260 b 803 150 874 181 842 150 z m 981 905 l 863 1001 l 99 68 l 216 -28 z "},"":{"ha":813,"x_min":0,"x_max":0,"o":"m 370 629 b 283 716 322 629 283 668 b 370 804 283 764 322 804 b 457 716 418 804 457 764 l 625 716 b 370 972 625 857 511 972 b 115 716 229 972 115 857 b 170 558 115 656 136 601 b 56 315 100 500 56 412 b 370 0 56 141 197 0 b 685 315 544 0 685 141 l 685 461 l 758 461 l 758 629 z m 517 315 b 370 168 517 234 451 168 b 224 315 289 168 224 234 b 370 461 224 395 289 461 l 517 461 z "},"":{"ha":290,"x_min":0,"x_max":0,"o":"m 66 168 l 66 -65 b 32 -100 66 -84 51 -100 l 14 -100 l 14 -268 l 32 -268 b 234 -65 144 -268 234 -177 l 234 168 z "},"":{"ha":290,"x_min":0,"x_max":0,"o":"m 66 168 l 66 -65 b 32 -100 66 -84 51 -100 l 14 -100 l 14 -268 l 32 -268 b 234 -65 144 -268 234 -177 l 234 168 z "},"":{"ha":279,"x_min":0,"x_max":0,"o":"m 224 0 l 224 172 l 56 172 l 56 0 z "},"":{"ha":279,"x_min":0,"x_max":0,"o":"m 224 0 l 224 172 l 56 172 l 56 0 z "},"":{"ha":676,"x_min":0,"x_max":0,"o":"m 338 972 b 56 689 182 971 56 845 l 56 283 b 338 0 56 127 182 0 b 621 283 495 0 621 127 l 621 689 b 338 972 621 845 495 971 z m 453 283 b 338 169 453 220 402 169 b 224 283 275 169 224 220 l 224 689 b 281 789 223 730 245 768 b 396 789 316 810 361 810 b 453 689 432 768 454 730 z "},"":{"ha":676,"x_min":0,"x_max":0,"o":"m 338 972 b 56 689 182 971 56 845 l 56 283 b 338 0 56 127 182 0 b 621 283 495 0 621 127 l 621 689 b 338 972 621 845 495 971 z m 453 283 b 338 169 453 220 402 169 b 224 283 275 169 224 220 l 224 689 b 281 789 223 730 245 768 b 396 789 316 810 361 810 b 453 689 432 768 454 730 z "},"":{"ha":360,"x_min":0,"x_max":0,"o":"m 140 972 l 56 972 l 56 804 l 136 804 l 136 0 l 304 0 l 304 807 b 140 972 304 898 230 971 z "},"":{"ha":360,"x_min":0,"x_max":0,"o":"m 140 972 l 56 972 l 56 804 l 136 804 l 136 0 l 304 0 l 304 807 b 140 972 304 898 230 971 z "},"":{"ha":681,"x_min":0,"x_max":0,"o":"m 392 331 b 625 687 529 438 625 526 b 340 971 625 844 498 971 b 56 687 183 971 56 844 l 224 687 b 340 802 224 751 276 802 b 457 687 405 802 457 751 b 289 463 457 618 433 576 b 63 168 157 359 85 284 b 56 84 58 140 55 112 l 56 0 l 600 0 l 600 168 l 236 168 b 392 331 254 211 296 255 z "},"":{"ha":681,"x_min":0,"x_max":0,"o":"m 392 331 b 625 687 529 438 625 526 b 340 971 625 844 498 971 b 56 687 183 971 56 844 l 224 687 b 340 802 224 751 276 802 b 457 687 405 802 457 751 b 289 463 457 618 433 576 b 63 168 157 359 85 284 b 56 84 58 140 55 112 l 56 0 l 600 0 l 600 168 l 236 168 b 392 331 254 211 296 255 z "},"":{"ha":681,"x_min":0,"x_max":0,"o":"m 625 687 b 340 972 625 844 498 972 b 56 687 183 972 56 844 l 224 687 b 296 795 224 734 252 777 b 423 769 339 813 390 803 b 448 642 457 736 467 686 b 340 570 430 598 388 570 l 279 570 l 279 402 l 340 402 b 448 330 388 402 430 373 b 423 202 467 286 457 236 b 296 177 390 169 339 159 b 224 285 252 195 224 238 l 56 285 b 266 10 55 156 142 43 b 587 142 391 -24 522 30 b 542 486 652 253 633 394 b 625 687 595 539 625 611 z "},"":{"ha":681,"x_min":0,"x_max":0,"o":"m 625 687 b 340 972 625 844 498 972 b 56 687 183 972 56 844 l 224 687 b 296 795 224 734 252 777 b 423 769 339 813 390 803 b 448 642 457 736 467 686 b 340 570 430 598 388 570 l 279 570 l 279 402 l 340 402 b 448 330 388 402 430 373 b 423 202 467 286 457 236 b 296 177 390 169 339 159 b 224 285 252 195 224 238 l 56 285 b 266 10 55 156 142 43 b 587 142 391 -24 522 30 b 542 486 652 253 633 394 b 625 687 595 539 625 611 z "},"":{"ha":681,"x_min":0,"x_max":0,"o":"m 457 971 l 457 687 b 340 570 457 622 405 570 b 224 687 276 570 224 622 l 224 972 l 56 972 l 56 687 b 186 447 56 590 105 500 b 457 427 267 395 369 387 l 457 0 l 625 0 l 625 971 z "},"":{"ha":681,"x_min":0,"x_max":0,"o":"m 457 971 l 457 687 b 340 570 457 622 405 570 b 224 687 276 570 224 622 l 224 972 l 56 972 l 56 687 b 186 447 56 590 105 500 b 457 427 267 395 369 387 l 457 0 l 625 0 l 625 971 z "},"":{"ha":676,"x_min":0,"x_max":0,"o":"m 621 803 l 621 971 l 56 971 l 56 471 l 338 471 b 453 356 402 471 453 420 l 453 288 b 343 168 453 224 404 170 b 339 168 341 168 340 168 b 257 202 308 168 279 180 b 224 283 236 223 224 252 l 56 283 b 338 0 56 127 182 0 b 349 0 342 0 345 0 b 621 288 502 7 623 134 l 621 356 b 339 639 621 512 495 639 l 224 639 l 224 803 z "},"":{"ha":676,"x_min":0,"x_max":0,"o":"m 621 803 l 621 971 l 56 971 l 56 471 l 338 471 b 453 356 402 471 453 420 l 453 288 b 343 168 453 224 404 170 b 339 168 341 168 340 168 b 257 202 308 168 279 180 b 224 283 236 223 224 252 l 56 283 b 338 0 56 127 182 0 b 349 0 342 0 345 0 b 621 288 502 7 623 134 l 621 356 b 339 639 621 512 495 639 l 224 639 l 224 803 z "},"":{"ha":682,"x_min":0,"x_max":0,"o":"m 340 570 b 224 545 300 570 260 561 l 224 689 b 338 802 224 752 275 802 b 453 689 402 802 453 752 l 621 689 b 480 935 622 790 568 884 b 197 935 393 986 284 986 b 56 689 109 884 55 790 l 56 283 l 56 283 b 342 0 57 126 185 -1 b 625 286 499 1 626 129 b 340 570 625 443 498 570 z m 340 168 b 224 285 276 168 224 220 b 340 402 224 349 276 402 b 457 285 405 402 457 349 b 340 168 457 220 405 168 z "},"":{"ha":682,"x_min":0,"x_max":0,"o":"m 340 570 b 224 545 300 570 260 561 l 224 689 b 338 802 224 752 275 802 b 453 689 402 802 453 752 l 621 689 b 480 935 622 790 568 884 b 197 935 393 986 284 986 b 56 689 109 884 55 790 l 56 283 l 56 283 b 342 0 57 126 185 -1 b 625 286 499 1 626 129 b 340 570 625 443 498 570 z m 340 168 b 224 285 276 168 224 220 b 340 402 224 349 276 402 b 457 285 405 402 457 349 b 340 168 457 220 405 168 z "},"":{"ha":647,"x_min":0,"x_max":0,"o":"m 56 971 l 56 803 l 415 803 b 299 535 397 707 349 623 b 149 84 228 411 149 270 l 149 0 l 317 0 l 317 84 b 445 452 317 226 379 336 b 586 803 505 558 567 667 b 591 887 589 831 591 859 l 591 971 z "},"":{"ha":647,"x_min":0,"x_max":0,"o":"m 56 971 l 56 803 l 415 803 b 299 535 397 707 349 623 b 149 84 228 411 149 270 l 149 0 l 317 0 l 317 84 b 445 452 317 226 379 336 b 586 803 505 558 567 667 b 591 887 589 831 591 859 l 591 971 z "},"":{"ha":681,"x_min":0,"x_max":0,"o":"m 625 687 b 414 962 625 816 539 928 b 94 830 290 995 159 941 b 139 486 29 718 48 577 b 139 83 28 374 28 194 b 542 83 250 -28 431 -28 b 542 486 653 194 653 374 b 625 687 595 539 625 611 z m 457 285 b 340 168 457 220 405 168 b 224 285 276 168 224 220 b 340 402 224 349 276 402 b 457 285 405 402 457 349 z m 224 687 b 340 804 224 751 276 804 b 457 687 405 804 457 751 b 340 570 457 622 405 570 b 224 687 276 570 224 622 z "},"":{"ha":681,"x_min":0,"x_max":0,"o":"m 625 687 b 414 962 625 816 539 928 b 94 830 290 995 159 941 b 139 486 29 718 48 577 b 139 83 28 374 28 194 b 542 83 250 -28 431 -28 b 542 486 653 194 653 374 b 625 687 595 539 625 611 z m 457 285 b 340 168 457 220 405 168 b 224 285 276 168 224 220 b 340 402 224 349 276 402 b 457 285 405 402 457 349 z m 224 687 b 340 804 224 751 276 804 b 457 687 405 804 457 751 b 340 570 457 622 405 570 b 224 687 276 570 224 622 z "},"":{"ha":682,"x_min":0,"x_max":0,"o":"m 626 689 b 420 961 625 815 541 926 b 101 841 299 996 169 947 b 125 501 33 735 42 596 b 458 427 207 405 343 375 l 458 283 b 343 168 458 219 406 168 b 228 283 279 168 228 219 l 60 283 b 343 0 60 127 187 0 b 626 283 499 0 626 127 l 626 689 z m 341 570 b 233 642 294 570 251 598 b 258 769 215 686 225 736 b 386 795 292 803 342 813 b 458 687 429 776 458 734 b 341 570 458 622 406 570 z "},"":{"ha":682,"x_min":0,"x_max":0,"o":"m 626 689 b 420 961 625 815 541 926 b 101 841 299 996 169 947 b 125 501 33 735 42 596 b 458 427 207 405 343 375 l 458 283 b 343 168 458 219 406 168 b 228 283 279 168 228 219 l 60 283 b 343 0 60 127 187 0 b 626 283 499 0 626 127 l 626 689 z m 341 570 b 233 642 294 570 251 598 b 258 769 215 686 225 736 b 386 795 292 803 342 813 b 458 687 429 776 458 734 b 341 570 458 622 406 570 z "},"":{"ha":279,"x_min":0,"x_max":0,"o":"m 224 0 l 224 172 l 56 172 l 56 0 z m 224 441 l 224 613 l 56 613 l 56 441 z "},"":{"ha":279,"x_min":0,"x_max":0,"o":"m 224 0 l 224 172 l 56 172 l 56 0 z m 224 441 l 224 613 l 56 613 l 56 441 z "},"":{"ha":279,"x_min":0,"x_max":0,"o":"m 55 168 l 55 -65 b 21 -100 55 -84 40 -100 l 3 -100 l 3 -268 l 21 -268 b 223 -65 133 -268 223 -177 l 223 168 z m 223 441 l 223 613 l 55 613 l 55 441 z "},"":{"ha":279,"x_min":0,"x_max":0,"o":"m 55 168 l 55 -65 b 21 -100 55 -84 40 -100 l 3 -100 l 3 -268 l 21 -268 b 223 -65 133 -268 223 -177 l 223 168 z m 223 441 l 223 613 l 55 613 l 55 441 z "},"":{"ha":756,"x_min":0,"x_max":0,"o":"m 378 972 b 56 649 200 971 56 827 l 56 0 l 224 0 l 224 346 l 533 346 l 533 1 l 701 1 l 701 649 b 378 972 700 827 556 971 z m 224 514 l 224 649 b 378 804 224 734 293 804 b 533 649 463 804 533 734 l 533 514 z "},"":{"ha":756,"x_min":0,"x_max":0,"o":"m 378 972 b 56 649 200 971 56 827 l 56 0 l 224 0 l 224 346 l 533 346 l 533 1 l 701 1 l 701 649 b 378 972 700 827 556 971 z m 224 514 l 224 649 b 378 804 224 734 293 804 b 533 649 463 804 533 734 l 533 514 z "},"":{"ha":818,"x_min":0,"x_max":0,"o":"m 623 530 b 636 822 681 618 686 730 b 385 972 586 914 490 972 l 28 972 l 28 804 l 101 804 l 101 1 l 478 1 b 753 210 607 1 719 86 b 623 530 787 334 734 465 z m 269 804 l 385 804 b 487 746 427 804 466 782 b 487 628 508 709 508 664 b 385 570 466 592 427 570 l 269 570 z m 269 169 l 269 402 l 478 402 b 595 285 543 402 595 350 b 478 169 595 221 543 169 z "},"":{"ha":818,"x_min":0,"x_max":0,"o":"m 623 530 b 636 822 681 618 686 730 b 385 972 586 914 490 972 l 28 972 l 28 804 l 101 804 l 101 1 l 478 1 b 753 210 607 1 719 86 b 623 530 787 334 734 465 z m 269 804 l 385 804 b 487 746 427 804 466 782 b 487 628 508 709 508 664 b 385 570 466 592 427 570 l 269 570 z m 269 169 l 269 402 l 478 402 b 595 285 543 402 595 350 b 478 169 595 221 543 169 z "},"":{"ha":757,"x_min":0,"x_max":0,"o":"m 379 170 b 224 325 293 170 224 239 l 224 650 b 379 806 224 736 293 806 b 534 650 464 806 534 736 l 702 650 b 379 974 702 829 557 974 b 56 650 200 974 56 829 l 56 325 b 379 2 56 147 200 2 b 702 325 557 2 702 147 l 534 325 b 379 170 534 239 464 170 z "},"":{"ha":757,"x_min":0,"x_max":0,"o":"m 379 170 b 224 325 293 170 224 239 l 224 650 b 379 806 224 736 293 806 b 534 650 464 806 534 736 l 702 650 b 379 974 702 829 557 974 b 56 650 200 974 56 829 l 56 325 b 379 2 56 147 200 2 b 702 325 557 2 702 147 l 534 325 b 379 170 534 239 464 170 z "},"":{"ha":778,"x_min":0,"x_max":0,"o":"m 411 972 l 28 972 l 28 804 l 101 804 l 101 0 l 411 0 b 722 311 582 0 722 139 l 722 660 b 411 972 722 832 582 971 z m 554 311 b 410 168 554 232 490 168 l 269 168 l 269 804 l 411 804 b 554 660 490 803 554 739 z "},"":{"ha":778,"x_min":0,"x_max":0,"o":"m 411 972 l 28 972 l 28 804 l 101 804 l 101 0 l 411 0 b 722 311 582 0 722 139 l 722 660 b 411 972 722 832 582 971 z m 554 311 b 410 168 554 232 490 168 l 269 168 l 269 804 l 411 804 b 554 660 490 803 554 739 z "},"":{"ha":707,"x_min":0,"x_max":0,"o":"m 340 804 l 651 804 l 651 972 l 340 972 b 56 687 183 971 56 844 l 56 285 b 340 0 56 128 183 0 l 651 0 l 651 168 l 340 168 b 224 285 276 168 224 220 l 224 427 b 340 402 260 410 300 402 l 651 402 l 651 570 l 340 570 b 224 687 276 570 224 622 b 340 804 224 751 276 804 z "},"":{"ha":707,"x_min":0,"x_max":0,"o":"m 340 804 l 651 804 l 651 972 l 340 972 b 56 687 183 971 56 844 l 56 285 b 340 0 56 128 183 0 l 651 0 l 651 168 l 340 168 b 224 285 276 168 224 220 l 224 427 b 340 402 260 410 300 402 l 651 402 l 651 570 l 340 570 b 224 687 276 570 224 622 b 340 804 224 751 276 804 z "},"":{"ha":707,"x_min":0,"x_max":0,"o":"m 340 804 l 651 804 l 651 972 l 340 972 b 56 687 183 971 56 844 l 56 0 l 224 0 l 224 427 b 340 402 260 410 300 402 l 651 402 l 651 570 l 340 570 b 238 628 298 569 259 592 b 238 745 217 664 217 709 b 340 804 259 782 298 804 z "},"":{"ha":707,"x_min":0,"x_max":0,"o":"m 340 804 l 651 804 l 651 972 l 340 972 b 56 687 183 971 56 844 l 56 0 l 224 0 l 224 427 b 340 402 260 410 300 402 l 651 402 l 651 570 l 340 570 b 238 628 298 569 259 592 b 238 745 217 664 217 709 b 340 804 259 782 298 804 z "},"":{"ha":757,"x_min":0,"x_max":0,"o":"m 379 570 l 379 402 l 534 402 l 534 323 b 379 168 534 237 464 168 b 224 323 293 168 224 237 l 224 649 b 319 792 224 711 261 768 b 488 758 377 816 444 803 l 607 877 b 255 947 515 969 376 997 b 56 649 134 897 56 779 l 56 323 b 379 2 57 145 201 2 b 702 323 556 2 701 145 l 702 570 z "},"":{"ha":757,"x_min":0,"x_max":0,"o":"m 379 570 l 379 402 l 534 402 l 534 323 b 379 168 534 237 464 168 b 224 323 293 168 224 237 l 224 649 b 319 792 224 711 261 768 b 488 758 377 816 444 803 l 607 877 b 255 947 515 969 376 997 b 56 649 134 897 56 779 l 56 323 b 379 2 57 145 201 2 b 702 323 556 2 701 145 l 702 570 z "},"":{"ha":757,"x_min":0,"x_max":0,"o":"m 534 971 l 534 569 l 224 569 l 224 971 l 56 971 l 56 -1 l 224 -1 l 224 402 l 534 402 l 534 0 l 702 0 l 702 971 z "},"":{"ha":757,"x_min":0,"x_max":0,"o":"m 534 971 l 534 569 l 224 569 l 224 971 l 56 971 l 56 -1 l 224 -1 l 224 402 l 534 402 l 534 0 l 702 0 l 702 971 z "},"":{"ha":425,"x_min":0,"x_max":0,"o":"m 369 801 l 369 969 l 296 969 l 296 971 l 128 971 l 128 969 l 56 969 l 56 801 l 128 801 l 128 167 l 56 167 l 56 -1 l 369 -1 l 369 167 l 296 167 l 296 801 z "},"":{"ha":425,"x_min":0,"x_max":0,"o":"m 369 801 l 369 969 l 296 969 l 296 971 l 128 971 l 128 969 l 56 969 l 56 801 l 128 801 l 128 167 l 56 167 l 56 -1 l 369 -1 l 369 167 l 296 167 l 296 801 z "},"":{"ha":688,"x_min":0,"x_max":0,"o":"m 330 971 l 330 803 l 464 803 l 464 301 b 330 167 464 227 404 167 b 196 301 256 167 196 227 l 28 301 b 330 -1 28 134 163 -1 b 632 301 497 -1 632 134 l 632 971 z "},"":{"ha":688,"x_min":0,"x_max":0,"o":"m 330 971 l 330 803 l 464 803 l 464 301 b 330 167 464 227 404 167 b 196 301 256 167 196 227 l 28 301 b 330 -1 28 134 163 -1 b 632 301 497 -1 632 134 l 632 971 z "},"":{"ha":726,"x_min":0,"x_max":0,"o":"m 671 708 l 671 971 l 503 971 l 503 708 b 374 569 503 635 447 575 b 364 570 371 569 367 570 l 224 570 l 224 971 l 56 971 l 56 -1 l 224 -1 l 224 401 l 364 401 b 374 401 367 401 371 401 b 503 262 447 396 503 335 l 503 0 l 671 0 l 671 262 b 575 485 671 347 637 427 b 671 708 637 543 671 624 z "},"":{"ha":726,"x_min":0,"x_max":0,"o":"m 671 708 l 671 971 l 503 971 l 503 708 b 374 569 503 635 447 575 b 364 570 371 569 367 570 l 224 570 l 224 971 l 56 971 l 56 -1 l 224 -1 l 224 401 l 364 401 b 374 401 367 401 371 401 b 503 262 447 396 503 335 l 503 0 l 671 0 l 671 262 b 575 485 671 347 637 427 b 671 708 637 543 671 624 z "},"":{"ha":726,"x_min":0,"x_max":0,"o":"m 671 708 l 671 971 l 503 971 l 503 708 b 374 569 503 635 447 575 b 364 570 371 569 367 570 l 224 570 l 224 971 l 56 971 l 56 -1 l 224 -1 l 224 401 l 364 401 b 374 401 367 401 371 401 b 503 262 447 396 503 335 l 503 0 l 671 0 l 671 262 b 575 485 671 347 637 427 b 671 708 637 543 671 624 z "},"":{"ha":726,"x_min":0,"x_max":0,"o":"m 671 708 l 671 971 l 503 971 l 503 708 b 374 569 503 635 447 575 b 364 570 371 569 367 570 l 224 570 l 224 971 l 56 971 l 56 -1 l 224 -1 l 224 401 l 364 401 b 374 401 367 401 371 401 b 503 262 447 396 503 335 l 503 0 l 671 0 l 671 262 b 575 485 671 347 637 427 b 671 708 637 543 671 624 z "},"":{"ha":726,"x_min":0,"x_max":0,"o":"m 671 708 l 671 971 l 503 971 l 503 708 b 374 569 503 635 447 575 b 364 570 371 569 367 570 l 224 570 l 224 971 l 56 971 l 56 -1 l 224 -1 l 224 401 l 364 401 b 374 401 367 401 371 401 b 503 262 447 396 503 335 l 503 0 l 671 0 l 671 262 b 575 485 671 347 637 427 b 671 708 637 543 671 624 z "},"":{"ha":672,"x_min":0,"x_max":0,"o":"m 224 167 l 224 971 l 56 971 l 56 -1 l 617 -1 l 617 167 z "},"":{"ha":672,"x_min":0,"x_max":0,"o":"m 224 167 l 224 971 l 56 971 l 56 -1 l 617 -1 l 617 167 z "},"":{"ha":1164,"x_min":0,"x_max":0,"o":"m 816 973 b 608 885 738 973 663 941 b 232 919 508 987 348 1002 b 112 971 201 952 157 971 l 28 971 l 28 803 l 108 803 l 108 1 l 276 1 l 276 680 b 400 805 276 749 332 805 b 524 680 469 805 524 749 l 524 1 l 692 1 l 692 680 b 816 805 692 749 748 805 b 941 680 885 805 941 749 l 941 1 l 1109 1 l 1109 680 b 816 973 1108 842 978 972 z "},"":{"ha":1164,"x_min":0,"x_max":0,"o":"m 816 973 b 608 885 738 973 663 941 b 232 919 508 987 348 1002 b 112 971 201 952 157 971 l 28 971 l 28 803 l 108 803 l 108 1 l 276 1 l 276 680 b 400 805 276 749 332 805 b 524 680 469 805 524 749 l 524 1 l 692 1 l 692 680 b 816 805 692 749 748 805 b 941 680 885 805 941 749 l 941 1 l 1109 1 l 1109 680 b 816 973 1108 842 978 972 z "},"":{"ha":781,"x_min":0,"x_max":0,"o":"m 417 973 b 236 914 352 973 288 952 b 112 971 205 950 159 971 l 28 971 l 28 803 l 108 803 l 108 1 l 276 1 l 276 664 b 346 788 275 715 302 762 b 487 788 389 813 444 813 b 557 664 531 762 558 715 l 557 1 l 725 1 l 725 664 b 417 973 725 834 587 972 z "},"":{"ha":781,"x_min":0,"x_max":0,"o":"m 417 973 b 236 914 352 973 288 952 b 112 971 205 950 159 971 l 28 971 l 28 803 l 108 803 l 108 1 l 276 1 l 276 664 b 346 788 275 715 302 762 b 487 788 389 813 444 813 b 557 664 531 762 558 715 l 557 1 l 725 1 l 725 664 b 417 973 725 834 587 972 z "},"":{"ha":729,"x_min":0,"x_max":0,"o":"m 365 973 b 42 650 186 973 42 828 l 42 325 b 365 1 42 146 186 1 b 688 325 543 1 688 146 l 688 650 b 365 973 688 828 543 973 z m 520 325 b 365 169 520 239 450 169 b 210 325 279 169 210 239 l 210 650 b 365 805 210 736 279 805 b 520 650 450 805 520 736 z "},"":{"ha":729,"x_min":0,"x_max":0,"o":"m 365 973 b 42 650 186 973 42 828 l 42 325 b 365 1 42 146 186 1 b 688 325 543 1 688 146 l 688 650 b 365 973 688 828 543 973 z m 520 325 b 365 169 520 239 450 169 b 210 325 279 169 210 239 l 210 650 b 365 805 210 736 279 805 b 520 650 450 805 520 736 z "},"":{"ha":699,"x_min":0,"x_max":0,"o":"m 386 973 l 28 973 l 28 805 l 101 805 l 101 1 l 269 1 l 269 403 l 386 403 b 671 688 543 403 671 531 b 386 973 671 845 543 973 z m 386 571 l 269 571 l 269 805 l 386 805 b 503 688 450 805 503 753 b 386 571 503 624 450 571 z "},"":{"ha":699,"x_min":0,"x_max":0,"o":"m 386 973 l 28 973 l 28 805 l 101 805 l 101 1 l 269 1 l 269 403 l 386 403 b 671 688 543 403 671 531 b 386 973 671 845 543 973 z m 386 571 l 269 571 l 269 805 l 386 805 b 503 688 450 805 503 753 b 386 571 503 624 450 571 z "},"":{"ha":778,"x_min":0,"x_max":0,"o":"m 666 169 b 662 170 665 169 663 170 b 701 324 688 217 701 270 l 701 649 b 378 972 701 828 557 972 b 56 649 200 972 56 828 l 56 324 b 218 44 56 208 118 101 b 542 46 319 -13 443 -13 b 667 2 577 18 621 2 l 750 2 l 750 169 z m 378 169 b 224 324 293 170 224 239 l 224 649 b 378 804 224 735 293 804 b 533 649 464 804 533 735 l 533 324 b 531 295 533 315 532 305 l 420 406 l 301 287 l 414 174 b 378 169 403 171 391 169 z "},"":{"ha":778,"x_min":0,"x_max":0,"o":"m 666 169 b 662 170 665 169 663 170 b 701 324 688 217 701 270 l 701 649 b 378 972 701 828 557 972 b 56 649 200 972 56 828 l 56 324 b 218 44 56 208 118 101 b 542 46 319 -13 443 -13 b 667 2 577 18 621 2 l 750 2 l 750 169 z m 378 169 b 224 324 293 170 224 239 l 224 649 b 378 804 224 735 293 804 b 533 649 464 804 533 735 l 533 324 b 531 295 533 315 532 305 l 420 406 l 301 287 l 414 174 b 378 169 403 171 391 169 z "},"":{"ha":726,"x_min":0,"x_max":0,"o":"m 670 688 b 385 973 670 845 543 973 l 28 973 l 28 805 l 101 805 l 101 1 l 269 1 l 269 404 b 390 404 270 404 388 404 b 502 287 452 401 502 350 l 502 1 l 670 1 l 670 287 b 587 488 670 362 640 434 b 670 688 640 541 670 613 z m 385 572 l 269 572 l 269 805 l 385 805 b 502 690 449 805 501 754 b 390 572 503 627 453 574 b 385 572 388 572 387 572 z "},"":{"ha":726,"x_min":0,"x_max":0,"o":"m 670 688 b 385 973 670 845 543 973 l 28 973 l 28 805 l 101 805 l 101 1 l 269 1 l 269 404 b 390 404 270 404 388 404 b 502 287 452 401 502 350 l 502 1 l 670 1 l 670 287 b 587 488 670 362 640 434 b 670 688 640 541 670 613 z m 385 572 l 269 572 l 269 805 l 385 805 b 502 690 449 805 501 754 b 390 572 503 627 453 574 b 385 572 388 572 387 572 z "},"":{"ha":701,"x_min":0,"x_max":0,"o":"m 379 580 b 227 722 223 633 226 700 b 351 827 229 783 282 827 b 481 751 434 827 467 786 l 641 812 b 351 998 624 855 554 998 b 56 730 189 998 63 883 b 323 418 51 631 94 497 b 475 276 479 365 476 298 b 351 171 472 215 420 171 b 221 247 267 171 234 212 l 61 186 b 351 0 78 143 148 0 b 646 268 512 0 639 115 b 379 580 650 367 607 501 z "},"":{"ha":701,"x_min":0,"x_max":0,"o":"m 379 580 b 227 722 223 633 226 700 b 351 827 229 783 282 827 b 481 751 434 827 467 786 l 641 812 b 351 998 624 855 554 998 b 56 730 189 998 63 883 b 323 418 51 631 94 497 b 475 276 479 365 476 298 b 351 171 472 215 420 171 b 221 247 267 171 234 212 l 61 186 b 351 0 78 143 148 0 b 646 268 512 0 639 115 b 379 580 650 367 607 501 z "},"":{"ha":617,"x_min":0,"x_max":0,"o":"m 28 973 l 28 805 l 225 805 l 225 2 l 393 2 l 393 805 l 589 805 l 589 973 z "},"":{"ha":617,"x_min":0,"x_max":0,"o":"m 28 973 l 28 805 l 225 805 l 225 2 l 393 2 l 393 805 l 589 805 l 589 973 z "},"":{"ha":769,"x_min":0,"x_max":0,"o":"m 669 169 l 669 973 l 501 973 l 501 308 b 362 170 501 232 439 170 b 224 308 286 170 224 232 l 224 973 l 56 973 l 56 308 b 221 36 56 194 119 89 b 539 57 322 -17 445 -9 b 658 1 568 21 612 1 l 742 1 l 742 169 z "},"":{"ha":769,"x_min":0,"x_max":0,"o":"m 669 169 l 669 973 l 501 973 l 501 308 b 362 170 501 232 439 170 b 224 308 286 170 224 232 l 224 973 l 56 973 l 56 308 b 221 36 56 194 119 89 b 539 57 322 -17 445 -9 b 658 1 568 21 612 1 l 742 1 l 742 169 z "},"":{"ha":822,"x_min":0,"x_max":0,"o":"m 632 973 l 411 278 l 190 973 l 14 973 l 323 1 l 499 1 l 808 973 z "},"":{"ha":822,"x_min":0,"x_max":0,"o":"m 632 973 l 411 278 l 190 973 l 14 973 l 323 1 l 499 1 l 808 973 z "},"":{"ha":1108,"x_min":0,"x_max":0,"o":"m 885 973 l 885 293 b 762 169 885 224 830 169 b 638 293 694 169 638 224 l 638 973 l 470 973 l 470 293 b 347 169 470 224 415 169 b 224 293 279 169 224 224 l 224 973 l 56 973 l 56 293 b 236 23 55 174 127 68 b 554 88 346 -22 471 4 b 873 23 637 4 763 -22 b 1053 293 982 68 1053 174 l 1053 973 z "},"":{"ha":1108,"x_min":0,"x_max":0,"o":"m 885 973 l 885 293 b 762 169 885 224 830 169 b 638 293 694 169 638 224 l 638 973 l 470 973 l 470 293 b 347 169 470 224 415 169 b 224 293 279 169 224 224 l 224 973 l 56 973 l 56 293 b 236 23 55 174 127 68 b 554 88 346 -22 471 4 b 873 23 637 4 763 -22 b 1053 293 982 68 1053 174 l 1053 973 z "},"":{"ha":725,"x_min":0,"x_max":0,"o":"m 669 710 l 669 973 l 501 973 l 501 710 b 432 589 502 660 475 614 b 293 589 389 564 336 564 b 224 710 249 614 223 660 l 224 973 l 56 973 l 56 710 b 152 487 55 625 90 545 b 56 264 90 429 55 348 l 56 1 l 224 1 l 224 264 b 362 402 224 340 286 402 b 501 264 439 402 501 340 l 501 1 l 669 1 l 669 264 b 573 487 669 348 635 429 b 669 710 635 545 669 625 z "},"":{"ha":725,"x_min":0,"x_max":0,"o":"m 669 710 l 669 973 l 501 973 l 501 710 b 432 589 502 660 475 614 b 293 589 389 564 336 564 b 224 710 249 614 223 660 l 224 973 l 56 973 l 56 710 b 152 487 55 625 90 545 b 56 264 90 429 55 348 l 56 1 l 224 1 l 224 264 b 362 402 224 340 286 402 b 501 264 439 402 501 340 l 501 1 l 669 1 l 669 264 b 573 487 669 348 635 429 b 669 710 635 545 669 625 z "},"":{"ha":725,"x_min":0,"x_max":0,"o":"m 502 973 l 502 710 b 363 571 502 633 439 571 b 224 710 286 571 224 633 l 224 973 l 56 973 l 56 710 b 279 415 56 573 147 452 l 279 1 l 447 1 l 447 415 b 670 710 578 452 669 573 l 670 973 z "},"":{"ha":725,"x_min":0,"x_max":0,"o":"m 502 973 l 502 710 b 363 571 502 633 439 571 b 224 710 286 571 224 633 l 224 973 l 56 973 l 56 710 b 279 415 56 573 147 452 l 279 1 l 447 1 l 447 415 b 670 710 578 452 669 573 l 670 973 z "},"":{"ha":710,"x_min":0,"x_max":0,"o":"m 85 973 l 85 805 l 480 805 b 284 528 455 730 362 620 b 58 169 177 401 76 281 b 56 136 56 158 56 147 l 56 1 l 625 1 l 625 169 l 231 169 b 413 420 257 236 346 340 b 652 805 527 555 635 683 b 654 838 653 816 654 827 l 654 973 z "},"":{"ha":710,"x_min":0,"x_max":0,"o":"m 85 973 l 85 805 l 480 805 b 284 528 455 730 362 620 b 58 169 177 401 76 281 b 56 136 56 158 56 147 l 56 1 l 625 1 l 625 169 l 231 169 b 413 420 257 236 346 340 b 652 805 527 555 635 683 b 654 838 653 816 654 827 l 654 973 z "},"":{"ha":708,"x_min":0,"x_max":0,"o":"m 485 611 l 485 578 b 110 498 356 643 200 610 b 110 114 19 386 19 226 b 485 33 200 2 356 -32 l 485 0 l 653 0 l 653 611 z m 347 168 b 210 306 271 168 210 230 b 347 443 210 382 271 443 b 485 306 423 443 485 382 b 347 168 485 230 423 168 z "},"":{"ha":708,"x_min":0,"x_max":0,"o":"m 485 611 l 485 578 b 110 498 356 643 200 610 b 110 114 19 386 19 226 b 485 33 200 2 356 -32 l 485 0 l 653 0 l 653 611 z m 347 168 b 210 306 271 168 210 230 b 347 443 210 382 271 443 b 485 306 423 443 485 382 b 347 168 485 230 423 168 z "},"":{"ha":708,"x_min":0,"x_max":0,"o":"m 361 611 b 224 578 313 611 266 600 l 224 972 l 56 972 l 56 0 l 224 0 l 224 33 b 566 79 336 -24 473 -6 b 646 416 660 164 692 298 b 361 611 601 533 488 611 z m 361 168 b 224 306 285 168 224 230 b 361 443 224 382 285 443 b 499 306 437 443 499 382 b 361 168 499 230 437 168 z "},"":{"ha":708,"x_min":0,"x_max":0,"o":"m 361 611 b 224 578 313 611 266 600 l 224 972 l 56 972 l 56 0 l 224 0 l 224 33 b 566 79 336 -24 473 -6 b 646 416 660 164 692 298 b 361 611 601 533 488 611 z m 361 168 b 224 306 285 168 224 230 b 361 443 224 382 285 443 b 499 306 437 443 499 382 b 361 168 499 230 437 168 z "},"":{"ha":585,"x_min":0,"x_max":0,"o":"m 347 170 b 214 272 285 170 230 212 b 278 427 198 332 225 396 b 445 405 332 458 401 449 l 563 524 b 131 524 444 643 251 643 b 131 91 12 404 12 211 b 563 92 251 -28 444 -28 l 445 210 b 347 170 419 184 384 170 z "},"":{"ha":585,"x_min":0,"x_max":0,"o":"m 347 170 b 214 272 285 170 230 212 b 278 427 198 332 225 396 b 445 405 332 458 401 449 l 563 524 b 131 524 444 643 251 643 b 131 91 12 404 12 211 b 563 92 251 -28 444 -28 l 445 210 b 347 170 419 184 384 170 z "},"":{"ha":708,"x_min":0,"x_max":0,"o":"m 485 972 l 485 578 b 110 498 356 643 200 610 b 110 114 19 386 19 226 b 485 33 200 2 356 -32 l 485 0 l 653 0 l 653 972 z m 347 168 b 210 306 271 168 210 230 b 347 443 210 382 271 443 b 485 306 423 443 485 382 b 347 168 485 230 423 168 z "},"":{"ha":708,"x_min":0,"x_max":0,"o":"m 485 972 l 485 578 b 110 498 356 643 200 610 b 110 114 19 386 19 226 b 485 33 200 2 356 -32 l 485 0 l 653 0 l 653 972 z m 347 168 b 210 306 271 168 210 230 b 347 443 210 382 271 443 b 485 306 423 443 485 382 b 347 168 485 230 423 168 z "},"":{"ha":690,"x_min":0,"x_max":0,"o":"m 353 171 b 283 190 328 170 304 177 l 469 267 l 492 277 l 662 347 l 629 425 l 628 426 l 628 426 l 628 427 l 628 427 l 627 429 l 627 429 l 627 430 l 626 430 l 626 431 b 618 448 624 437 621 442 b 615 454 617 450 616 452 b 607 467 612 458 610 462 b 603 473 606 469 604 471 b 597 483 601 476 599 479 l 596 483 b 222 584 512 602 355 644 b 50 237 89 524 17 379 l 50 235 b 76 165 56 211 64 187 l 76 164 b 107 118 85 148 95 132 l 107 117 b 357 0 168 42 260 -1 b 601 97 448 0 521 29 l 492 225 b 353 171 442 183 404 171 z m 218 327 b 296 433 223 373 253 414 b 344 443 311 440 327 443 b 425 415 373 443 402 433 b 428 413 426 414 427 414 l 324 370 l 224 329 l 218 326 z "},"":{"ha":690,"x_min":0,"x_max":0,"o":"m 353 171 b 283 190 328 170 304 177 l 469 267 l 492 277 l 662 347 l 629 425 l 628 426 l 628 426 l 628 427 l 628 427 l 627 429 l 627 429 l 627 430 l 626 430 l 626 431 b 618 448 624 437 621 442 b 615 454 617 450 616 452 b 607 467 612 458 610 462 b 603 473 606 469 604 471 b 597 483 601 476 599 479 l 596 483 b 222 584 512 602 355 644 b 50 237 89 524 17 379 l 50 235 b 76 165 56 211 64 187 l 76 164 b 107 118 85 148 95 132 l 107 117 b 357 0 168 42 260 -1 b 601 97 448 0 521 29 l 492 225 b 353 171 442 183 404 171 z m 218 327 b 296 433 223 373 253 414 b 344 443 311 440 327 443 b 425 415 373 443 402 433 b 428 413 426 414 427 414 l 324 370 l 224 329 l 218 326 z "},"":{"ha":346,"x_min":0,"x_max":0,"o":"m 325 803 l 325 971 l 241 971 b 77 807 150 971 77 897 l 77 612 l 28 612 l 28 444 l 77 444 l 77 0 l 244 0 l 244 444 l 325 444 l 325 612 l 244 612 l 244 803 z "},"":{"ha":346,"x_min":0,"x_max":0,"o":"m 325 803 l 325 971 l 241 971 b 77 807 150 971 77 897 l 77 612 l 28 612 l 28 444 l 77 444 l 77 0 l 244 0 l 244 444 l 325 444 l 325 612 l 244 612 l 244 803 z "},"":{"ha":775,"x_min":0,"x_max":0,"o":"m 649 611 b 533 563 606 611 564 594 b 525 554 530 560 527 557 b 127 517 401 643 232 627 b 106 118 22 408 13 238 b 55 -96 46 64 26 -21 b 236 -221 83 -171 156 -221 l 458 -221 b 485 -247 473 -221 485 -233 b 458 -274 485 -262 473 -274 l 263 -274 l 263 -442 l 459 -442 b 653 -247 566 -442 653 -355 b 459 -53 653 -140 566 -53 l 236 -53 b 210 -26 221 -53 210 -41 b 236 0 210 -12 221 0 l 347 0 b 563 89 428 0 506 32 b 653 306 621 147 653 225 l 653 443 l 733 443 l 733 611 z m 347 443 b 474 358 403 443 453 410 b 445 208 496 307 484 248 b 295 178 405 169 346 157 b 210 306 243 200 210 250 b 347 443 210 382 271 443 z "},"":{"ha":775,"x_min":0,"x_max":0,"o":"m 649 611 b 533 563 606 611 564 594 b 525 554 530 560 527 557 b 127 517 401 643 232 627 b 106 118 22 408 13 238 b 55 -96 46 64 26 -21 b 236 -221 83 -171 156 -221 l 458 -221 b 485 -247 473 -221 485 -233 b 458 -274 485 -262 473 -274 l 263 -274 l 263 -442 l 459 -442 b 653 -247 566 -442 653 -355 b 459 -53 653 -140 566 -53 l 236 -53 b 210 -26 221 -53 210 -41 b 236 0 210 -12 221 0 l 347 0 b 563 89 428 0 506 32 b 653 306 621 147 653 225 l 653 443 l 733 443 l 733 611 z m 347 443 b 474 358 403 443 453 410 b 445 208 496 307 484 248 b 295 178 405 169 346 157 b 210 306 243 200 210 250 b 347 443 210 382 271 443 z "},"":{"ha":653,"x_min":0,"x_max":0,"o":"m 327 610 b 224 590 291 610 256 604 l 224 971 l 56 971 l 56 -1 l 224 -1 l 224 339 b 327 442 224 396 270 442 b 430 339 384 442 430 396 l 430 -1 l 598 -1 l 598 339 b 327 610 598 489 476 610 z "},"":{"ha":653,"x_min":0,"x_max":0,"o":"m 327 610 b 224 590 291 610 256 604 l 224 971 l 56 971 l 56 -1 l 224 -1 l 224 339 b 327 442 224 396 270 442 b 430 339 384 442 430 396 l 430 -1 l 598 -1 l 598 339 b 327 610 598 489 476 610 z "},"":{"ha":279,"x_min":0,"x_max":0,"o":"m 224 0 l 224 610 l 56 610 l 56 0 z m 224 792 l 224 969 l 56 969 l 56 792 z "},"":{"ha":279,"x_min":0,"x_max":0,"o":"m 224 0 l 224 610 l 56 610 l 56 0 z m 224 792 l 224 969 l 56 969 l 56 792 z "},"":{"ha":290,"x_min":0,"x_max":0,"o":"m 66 -165 l -14 -165 l -14 -333 l 70 -333 b 234 -169 161 -333 234 -260 l 234 610 l 67 610 z m 234 793 l 234 971 l 66 971 l 66 793 z "},"":{"ha":290,"x_min":0,"x_max":0,"o":"m 66 -165 l -14 -165 l -14 -333 l 70 -333 b 234 -169 161 -333 234 -260 l 234 610 l 67 610 z m 234 793 l 234 971 l 66 971 l 66 793 z "},"":{"ha":607,"x_min":0,"x_max":0,"o":"m 552 611 l 384 611 l 384 527 b 304 447 384 483 348 447 b 224 433 276 447 249 442 l 224 972 l 56 972 l 56 -1 l 224 -1 l 224 199 b 263 269 223 227 238 254 b 344 269 288 283 319 283 b 384 199 369 254 384 227 l 384 -1 l 552 -1 l 552 199 b 490 363 552 259 530 317 b 552 527 530 408 552 466 z "},"":{"ha":607,"x_min":0,"x_max":0,"o":"m 552 611 l 384 611 l 384 527 b 304 447 384 483 348 447 b 224 433 276 447 249 442 l 224 972 l 56 972 l 56 -1 l 224 -1 l 224 199 b 263 269 223 227 238 254 b 344 269 288 283 319 283 b 384 199 369 254 384 227 l 384 -1 l 552 -1 l 552 199 b 490 363 552 259 530 317 b 552 527 530 408 552 466 z "},"":{"ha":279,"x_min":0,"x_max":0,"o":"m 224 -1 l 224 971 l 56 971 l 56 -1 z "},"":{"ha":279,"x_min":0,"x_max":0,"o":"m 224 -1 l 224 971 l 56 971 l 56 -1 z "},"":{"ha":279,"x_min":0,"x_max":0,"o":"m 224 -1 l 224 971 l 56 971 l 56 -1 z "},"":{"ha":279,"x_min":0,"x_max":0,"o":"m 224 -1 l 224 971 l 56 971 l 56 -1 z "},"":{"ha":279,"x_min":0,"x_max":0,"o":"m 224 -1 l 224 971 l 56 971 l 56 -1 z "},"":{"ha":1017,"x_min":0,"x_max":0,"o":"m 693 612 b 509 538 625 612 558 585 b 224 592 432 610 321 632 l 224 611 l 56 611 l 56 0 l 224 0 l 224 343 b 324 444 224 399 269 444 b 425 343 380 444 425 399 l 425 0 l 593 0 l 593 343 b 693 444 593 399 638 444 b 794 343 749 444 794 399 l 794 0 l 962 0 l 962 343 b 693 612 962 491 841 611 z "},"":{"ha":1017,"x_min":0,"x_max":0,"o":"m 693 612 b 509 538 625 612 558 585 b 224 592 432 610 321 632 l 224 611 l 56 611 l 56 0 l 224 0 l 224 343 b 324 444 224 399 269 444 b 425 343 380 444 425 399 l 425 0 l 593 0 l 593 343 b 693 444 593 399 638 444 b 794 343 749 444 794 399 l 794 0 l 962 0 l 962 343 b 693 612 962 491 841 611 z "},"":{"ha":649,"x_min":0,"x_max":0,"o":"m 324 612 b 224 592 290 612 255 605 l 224 612 l 56 612 l 56 0 l 224 0 l 224 343 b 324 444 224 399 269 444 b 425 343 380 444 425 399 l 425 0 l 593 0 l 593 343 b 324 612 592 491 472 611 z "},"":{"ha":649,"x_min":0,"x_max":0,"o":"m 324 612 b 224 592 290 612 255 605 l 224 612 l 56 612 l 56 0 l 224 0 l 224 343 b 324 444 224 399 269 444 b 425 343 380 444 425 399 l 425 0 l 593 0 l 593 343 b 324 612 592 491 472 611 z "},"":{"ha":694,"x_min":0,"x_max":0,"o":"m 347 612 b 65 423 224 612 112 537 b 131 90 18 309 44 177 b 464 24 219 3 350 -24 b 653 306 578 71 653 182 b 347 612 653 475 516 611 z m 347 168 b 220 253 292 168 241 202 b 250 403 199 305 211 364 b 400 433 289 443 349 455 b 485 306 451 412 485 362 b 347 168 485 230 423 168 z "},"":{"ha":694,"x_min":0,"x_max":0,"o":"m 347 612 b 65 423 224 612 112 537 b 131 90 18 309 44 177 b 464 24 219 3 350 -24 b 653 306 578 71 653 182 b 347 612 653 475 516 611 z m 347 168 b 220 253 292 168 241 202 b 250 403 199 305 211 364 b 400 433 289 443 349 455 b 485 306 451 412 485 362 b 347 168 485 230 423 168 z "},"":{"ha":708,"x_min":0,"x_max":0,"o":"m 361 612 b 224 579 313 612 266 600 l 224 612 l 56 612 l 56 -360 l 224 -360 l 224 33 b 566 79 336 -24 473 -5 b 646 416 660 164 692 298 b 361 612 601 534 488 612 z m 361 168 b 234 253 306 168 255 202 b 264 403 213 305 224 364 b 414 433 303 443 362 455 b 499 306 465 412 499 362 b 361 168 499 230 437 168 z "},"":{"ha":708,"x_min":0,"x_max":0,"o":"m 361 612 b 224 579 313 612 266 600 l 224 612 l 56 612 l 56 -360 l 224 -360 l 224 33 b 566 79 336 -24 473 -5 b 646 416 660 164 692 298 b 361 612 601 534 488 612 z m 361 168 b 234 253 306 168 255 202 b 264 403 213 305 224 364 b 414 433 303 443 362 455 b 499 306 465 412 499 362 b 361 168 499 230 437 168 z "},"":{"ha":708,"x_min":0,"x_max":0,"o":"m 485 612 l 485 579 b 110 498 357 644 200 610 b 110 114 19 386 19 226 b 485 33 200 2 357 -32 l 485 -360 l 653 -360 l 653 612 z m 347 168 b 220 253 292 168 242 202 b 250 403 199 305 211 364 b 400 433 289 443 349 455 b 485 306 452 412 485 362 b 347 168 485 230 423 168 z "},"":{"ha":708,"x_min":0,"x_max":0,"o":"m 485 612 l 485 579 b 110 498 357 644 200 610 b 110 114 19 386 19 226 b 485 33 200 2 357 -32 l 485 -360 l 653 -360 l 653 612 z m 347 168 b 220 253 292 168 242 202 b 250 403 199 305 211 364 b 400 433 289 443 349 455 b 485 306 452 412 485 362 b 347 168 485 230 423 168 z "},"":{"ha":472,"x_min":0,"x_max":0,"o":"m 283 612 b 224 604 263 612 243 609 l 224 612 l 56 612 l 56 0 l 224 0 l 224 384 b 260 439 224 408 238 430 b 325 426 283 448 308 443 l 444 545 b 283 612 401 588 343 612 z "},"":{"ha":472,"x_min":0,"x_max":0,"o":"m 283 612 b 224 604 263 612 243 609 l 224 612 l 56 612 l 56 0 l 224 0 l 224 384 b 260 439 224 408 238 430 b 325 426 283 448 308 443 l 444 545 b 283 612 401 588 343 612 z "},"":{"ha":560,"x_min":0,"x_max":0,"o":"m 468 333 b 330 390 431 370 382 390 l 230 390 b 203 417 215 390 203 402 b 230 444 203 432 215 444 l 468 444 l 468 612 l 230 612 b 35 417 122 612 35 524 b 230 222 35 309 122 222 l 330 222 b 357 195 345 222 357 210 b 330 168 357 180 345 168 l 92 168 l 92 0 l 332 0 b 510 122 411 1 481 49 b 468 333 540 194 523 278 z "},"":{"ha":560,"x_min":0,"x_max":0,"o":"m 468 333 b 330 390 431 370 382 390 l 230 390 b 203 417 215 390 203 402 b 230 444 203 432 215 444 l 468 444 l 468 612 l 230 612 b 35 417 122 612 35 524 b 230 222 35 309 122 222 l 330 222 b 357 195 345 222 357 210 b 330 168 357 180 345 168 l 92 168 l 92 0 l 332 0 b 510 122 411 1 481 49 b 468 333 540 194 523 278 z "},"":{"ha":367,"x_min":0,"x_max":0,"o":"m 325 444 l 325 612 l 244 612 l 244 972 l 77 972 l 77 612 l 28 612 l 28 444 l 77 444 l 77 165 b 241 0 77 74 150 1 l 325 0 l 325 168 l 244 168 l 244 444 z "},"":{"ha":367,"x_min":0,"x_max":0,"o":"m 325 444 l 325 612 l 244 612 l 244 972 l 77 972 l 77 612 l 28 612 l 28 444 l 77 444 l 77 165 b 241 0 77 74 150 1 l 325 0 l 325 168 l 244 168 l 244 444 z "},"":{"ha":649,"x_min":0,"x_max":0,"o":"m 425 612 l 425 269 b 324 168 425 213 380 168 b 224 269 269 168 224 213 l 224 612 l 56 612 l 56 269 b 174 46 56 179 100 96 b 425 20 248 -4 342 -14 l 425 0 l 593 0 l 593 612 z "},"":{"ha":649,"x_min":0,"x_max":0,"o":"m 425 612 l 425 269 b 324 168 425 213 380 168 b 224 269 269 168 224 213 l 224 612 l 56 612 l 56 269 b 174 46 56 179 100 96 b 425 20 248 -4 342 -14 l 425 0 l 593 0 l 593 612 z "},"":{"ha":715,"x_min":0,"x_max":0,"o":"m 520 612 l 358 220 l 196 612 l 14 612 l 267 0 l 449 0 l 702 612 z "},"":{"ha":715,"x_min":0,"x_max":0,"o":"m 520 612 l 358 220 l 196 612 l 14 612 l 267 0 l 449 0 l 702 612 z "},"":{"ha":1017,"x_min":0,"x_max":0,"o":"m 794 612 l 794 269 b 744 181 794 232 775 199 b 643 181 713 162 674 162 b 593 269 611 199 592 232 l 593 612 l 425 612 l 425 269 b 324 168 425 213 380 168 b 224 269 269 168 224 213 l 224 612 l 56 612 l 56 269 b 218 22 56 161 119 64 b 509 74 316 -21 431 0 b 799 22 587 0 701 -21 b 962 269 898 64 962 161 l 962 612 z "},"":{"ha":1017,"x_min":0,"x_max":0,"o":"m 794 612 l 794 269 b 744 181 794 232 775 199 b 643 181 713 162 674 162 b 593 269 611 199 592 232 l 593 612 l 425 612 l 425 269 b 324 168 425 213 380 168 b 224 269 269 168 224 213 l 224 612 l 56 612 l 56 269 b 218 22 56 161 119 64 b 509 74 316 -21 431 0 b 799 22 587 0 701 -21 b 962 269 898 64 962 161 l 962 612 z "},"":{"ha":611,"x_min":0,"x_max":0,"o":"m 556 611 l 388 611 l 388 472 b 306 390 388 426 351 390 b 224 472 260 390 224 426 l 224 611 l 56 611 l 56 472 b 119 306 56 411 78 351 b 56 139 78 260 56 201 l 56 0 l 224 0 l 224 139 b 306 222 224 185 260 222 b 388 139 351 222 388 185 l 388 0 l 556 0 l 556 139 b 493 306 556 201 533 260 b 556 472 533 351 556 411 z "},"":{"ha":611,"x_min":0,"x_max":0,"o":"m 556 611 l 388 611 l 388 472 b 306 390 388 426 351 390 b 224 472 260 390 224 426 l 224 611 l 56 611 l 56 472 b 119 306 56 411 78 351 b 56 139 78 260 56 201 l 56 0 l 224 0 l 224 139 b 306 222 224 185 260 222 b 388 139 351 222 388 185 l 388 0 l 556 0 l 556 139 b 493 306 556 201 533 260 b 556 472 533 351 556 411 z "},"":{"ha":649,"x_min":0,"x_max":0,"o":"m 425 612 l 425 269 b 324 168 425 213 380 168 b 224 269 269 168 224 213 l 224 612 l 56 612 l 56 269 b 174 46 56 179 100 96 b 425 20 248 -4 342 -14 l 425 -137 b 324 -238 425 -193 380 -238 b 224 -137 269 -238 224 -193 l 56 -137 b 324 -406 56 -286 176 -406 b 593 -137 472 -406 593 -286 l 593 612 z "},"":{"ha":649,"x_min":0,"x_max":0,"o":"m 425 612 l 425 269 b 324 168 425 213 380 168 b 224 269 269 168 224 213 l 224 612 l 56 612 l 56 269 b 174 46 56 179 100 96 b 425 20 248 -4 342 -14 l 425 -137 b 324 -238 425 -193 380 -238 b 224 -137 269 -238 224 -193 l 56 -137 b 324 -406 56 -286 176 -406 b 593 -137 472 -406 593 -286 l 593 612 z "},"":{"ha":629,"x_min":0,"x_max":0,"o":"m 405 611 l 72 611 l 72 443 l 358 443 b 268 376 330 419 299 397 b 70 168 193 326 103 265 b 56 84 60 141 55 113 l 56 0 l 557 0 l 557 168 l 270 168 b 362 237 299 193 329 216 b 559 443 436 287 525 347 b 573 527 568 470 573 499 l 573 611 z "},"":{"ha":629,"x_min":0,"x_max":0,"o":"m 405 611 l 72 611 l 72 443 l 358 443 b 268 376 330 419 299 397 b 70 168 193 326 103 265 b 56 84 60 141 55 113 l 56 0 l 557 0 l 557 168 l 270 168 b 362 237 299 193 329 216 b 559 443 436 287 525 347 b 573 527 568 470 573 499 l 573 611 z "},"":{"ha":613,"x_min":0,"x_max":0,"o":"m 439 396 b 424 384 435 392 430 388 b 350 359 403 368 377 359 b 275 384 323 359 297 368 b 261 396 270 388 265 392 b 224 486 237 420 224 452 b 261 575 224 520 237 551 b 275 588 265 580 270 584 b 350 612 297 603 323 612 b 424 588 377 612 403 603 b 439 575 430 584 435 580 l 558 694 b 424 770 520 731 475 757 l 424 841 l 275 841 l 275 770 b 142 694 225 757 179 731 b 56 486 86 638 56 564 b 142 278 56 407 86 333 b 275 201 179 240 225 214 l 275 130 l 425 130 l 425 201 b 558 278 475 214 520 240 z "},"":{"ha":676,"x_min":0,"x_max":0,"o":"m 296 411 l 556 411 l 556 560 l 296 560 l 296 692 b 329 771 296 722 308 750 b 408 804 350 792 378 804 b 487 771 438 804 466 792 l 606 890 b 408 972 553 942 483 972 b 210 890 333 972 263 942 b 128 692 158 837 128 767 l 128 560 l 65 560 l 65 411 l 128 411 l 128 168 l 56 168 l 56 0 l 622 0 l 622 168 l 296 168 z "},"":{"ha":725,"x_min":0,"x_max":0,"o":"m 670 709 l 670 972 l 502 972 l 502 709 b 447 598 502 664 480 624 b 363 570 423 580 394 570 b 279 598 331 570 302 580 b 224 709 245 624 224 664 l 224 972 l 56 972 l 56 709 b 264 418 56 574 143 459 l 141 418 l 141 297 l 279 297 l 279 243 l 141 243 l 141 122 l 279 122 l 279 0 l 447 0 l 447 122 l 584 122 l 584 243 l 447 243 l 447 297 l 584 297 l 584 418 l 461 418 b 670 709 582 459 670 574 z "},"":{"ha":554,"x_min":0,"x_max":0,"o":"m 387 1013 l 387 984 b 277 1013 354 1003 317 1013 b 56 792 155 1013 56 914 b 277 570 56 669 155 570 b 387 599 317 570 354 581 l 387 570 l 499 570 l 499 1013 z m 277 682 b 168 792 217 682 168 731 b 277 901 168 852 217 901 b 387 792 338 901 387 852 b 277 682 387 731 338 682 z "},"":{"ha":388,"x_min":0,"x_max":0,"o":"m 230 708 b 333 874 273 742 333 789 b 194 1013 333 951 271 1013 b 56 874 118 1013 56 951 l 168 874 b 194 901 168 889 180 901 b 221 874 209 901 221 889 b 161 797 221 846 204 830 b 65 682 127 770 83 736 b 56 626 59 665 56 647 l 56 570 l 326 570 l 326 682 l 198 682 b 230 708 206 690 217 698 z "},"":{"ha":388,"x_min":0,"x_max":0,"o":"m 333 874 b 194 1013 333 951 271 1013 b 56 874 118 1013 56 951 l 168 874 b 194 901 168 889 180 901 b 221 874 209 901 221 889 b 194 848 221 860 209 848 l 158 848 l 158 736 l 194 736 b 221 709 209 736 221 724 b 194 682 221 694 209 682 b 168 709 180 682 168 694 l 56 709 b 194 570 56 632 118 570 b 333 709 271 570 333 632 b 306 792 333 740 323 769 b 333 874 323 815 333 843 z "},"":{"ha":269,"x_min":0,"x_max":0,"o":"m 112 1013 l 56 1013 l 56 901 l 103 901 l 103 570 l 215 570 l 215 910 b 112 1013 215 967 169 1013 z "},"":{"ha":443,"x_min":0,"x_max":0,"o":"m 222 1013 b 56 847 130 1013 56 939 l 56 736 b 222 570 56 645 130 570 b 388 736 313 570 388 645 l 388 847 b 222 1013 388 939 313 1013 z m 276 736 b 222 682 276 706 252 682 b 168 736 192 682 168 706 l 168 847 b 222 901 168 877 192 901 b 276 847 252 901 276 877 z "},"":{"ha":722,"x_min":0,"x_max":0,"o":"m 479 803 l 327 955 l 243 871 l 395 719 z m 499 611 l 499 578 b 361 611 457 599 411 611 b 56 306 193 611 56 474 b 361 0 56 137 193 0 b 499 33 411 0 457 12 l 499 0 l 667 0 l 667 611 z m 361 168 b 224 306 285 168 224 230 b 361 443 224 382 285 443 b 499 306 437 443 499 382 b 361 168 499 230 437 168 z "},"":{"ha":722,"x_min":0,"x_max":0,"o":"m 479 871 l 395 955 l 243 803 l 327 719 z m 499 611 l 499 578 b 361 611 457 599 411 611 b 56 306 193 611 56 474 b 361 0 56 137 193 0 b 499 33 411 0 457 12 l 499 0 l 667 0 l 667 611 z m 361 168 b 224 306 285 168 224 230 b 361 443 224 382 285 443 b 499 306 437 443 499 382 b 361 168 499 230 437 168 z "},"":{"ha":722,"x_min":0,"x_max":0,"o":"m 358 780 b 364 780 360 782 363 782 l 428 717 l 512 801 l 449 865 b 273 865 401 913 322 913 l 210 801 l 295 717 z m 499 611 l 499 578 b 361 611 457 599 411 611 b 56 306 193 611 56 474 b 361 0 56 137 193 0 b 499 33 411 0 457 12 l 499 0 l 667 0 l 667 611 z m 361 168 b 224 306 285 168 224 230 b 361 443 224 382 285 443 b 499 306 437 443 499 382 b 361 168 499 230 437 168 z "},"":{"ha":722,"x_min":0,"x_max":0,"o":"m 262 774 l 264 777 b 331 784 287 810 306 799 b 557 827 419 733 503 749 l 578 856 l 482 927 l 460 898 l 458 895 b 391 887 436 861 416 873 b 166 845 303 939 219 923 l 144 816 l 240 744 z m 499 611 l 499 578 b 361 611 457 599 411 611 b 56 306 193 611 56 474 b 361 0 56 137 193 0 b 499 33 411 0 457 12 l 499 0 l 667 0 l 667 611 z m 361 168 b 224 306 285 168 224 230 b 361 443 224 382 285 443 b 499 306 437 443 499 382 b 361 168 499 230 437 168 z "},"":{"ha":722,"x_min":0,"x_max":0,"o":"m 255 764 b 326 836 294 764 326 796 b 255 907 326 875 294 907 b 183 836 215 907 183 875 b 255 764 183 796 215 764 z m 468 764 b 539 836 507 764 539 796 b 468 907 539 875 507 907 b 396 836 428 907 396 875 b 468 764 396 796 428 764 z m 499 611 l 499 578 b 361 611 457 599 411 611 b 56 306 193 611 56 474 b 361 0 56 137 193 0 b 499 33 411 0 457 12 l 499 0 l 667 0 l 667 611 z m 361 168 b 224 306 285 168 224 230 b 361 443 224 382 285 443 b 499 306 437 443 499 382 b 361 168 499 230 437 168 z "},"":{"ha":722,"x_min":0,"x_max":0,"o":"m 361 755 b 481 874 427 755 481 808 b 361 994 481 940 427 994 b 242 874 295 994 242 940 b 361 755 242 808 295 755 z m 361 904 b 391 874 378 904 391 891 b 361 844 391 858 378 844 b 331 874 345 844 331 858 b 361 904 331 891 345 904 z m 499 611 l 499 578 b 361 611 457 599 411 611 b 56 306 193 611 56 474 b 361 0 56 137 193 0 b 499 33 411 0 457 12 l 499 0 l 667 0 l 667 611 z m 361 168 b 224 306 285 168 224 230 b 361 443 224 382 285 443 b 499 306 437 443 499 382 b 361 168 499 230 437 168 z "},"":{"ha":632,"x_min":0,"x_max":0,"o":"m 577 89 l 459 208 b 427 185 449 198 438 191 b 424 183 426 184 425 183 b 361 168 405 173 383 168 b 300 182 339 168 319 173 b 296 184 299 183 298 183 b 264 208 285 190 274 198 b 224 305 238 234 224 268 b 264 403 224 342 238 377 b 361 443 290 429 324 443 b 459 403 398 443 433 429 l 577 521 b 361 611 520 579 443 611 b 145 521 280 611 203 579 b 56 305 87 464 56 387 b 145 89 56 224 87 147 b 296 7 187 47 240 19 l 296 -138 l 362 -138 b 385 -161 375 -138 385 -148 b 362 -185 385 -174 375 -185 l 296 -185 l 296 -315 l 362 -315 b 516 -161 447 -315 516 -246 b 427 -22 516 -100 479 -46 l 427 7 b 577 89 484 19 535 47 z "},"":{"ha":731,"x_min":0,"x_max":0,"o":"m 465 803 l 313 955 l 229 870 l 381 718 z m 367 171 b 296 190 338 171 315 178 l 483 267 l 506 277 l 506 277 l 676 347 l 643 425 b 642 426 643 425 642 425 b 642 426 642 426 642 426 b 634 444 640 432 637 438 b 631 450 633 446 632 448 b 624 462 628 454 626 458 b 620 468 623 464 621 466 b 610 483 617 473 614 478 l 610 483 b 361 611 554 562 462 611 b 56 306 193 611 56 474 b 60 255 56 288 57 272 b 60 255 60 255 60 255 b 63 237 61 249 62 243 b 64 235 63 236 64 236 b 68 217 65 229 67 223 b 68 217 68 217 68 217 b 82 182 72 205 77 193 b 82 181 82 182 82 181 b 90 165 84 176 87 170 b 90 164 90 165 90 164 b 371 0 142 66 247 0 b 615 97 462 0 535 29 l 506 225 b 367 171 456 183 418 171 z m 232 327 b 310 433 237 370 263 412 b 358 443 326 440 342 443 b 439 415 393 443 424 428 b 442 413 440 414 441 414 l 338 370 l 238 329 l 232 326 b 232 327 232 326 232 326 z "},"":{"ha":731,"x_min":0,"x_max":0,"o":"m 502 871 l 418 956 l 266 803 l 350 719 z m 367 171 b 296 190 338 171 316 178 l 483 267 l 506 277 l 676 347 l 643 425 b 642 426 643 425 642 425 b 642 426 642 426 642 426 b 642 427 642 427 642 427 b 633 445 639 433 636 439 b 630 451 632 447 631 449 b 624 462 628 455 626 459 b 620 469 622 464 621 467 b 610 483 617 473 614 478 l 610 483 b 361 611 554 562 462 611 b 56 306 193 611 56 474 b 63 237 56 282 58 259 b 64 235 63 236 64 236 b 82 182 68 217 74 199 b 82 181 82 182 82 182 b 90 165 84 176 87 170 b 90 164 90 165 90 164 b 371 0 142 66 247 0 b 615 97 462 0 535 29 l 506 225 b 367 171 456 183 418 171 z m 232 327 b 310 433 237 370 263 412 b 358 443 326 440 342 443 b 439 415 393 443 424 428 b 442 413 440 414 441 414 l 338 370 l 238 329 l 232 326 b 232 327 232 326 232 326 z "},"":{"ha":731,"x_min":0,"x_max":0,"o":"m 362 780 b 369 780 364 782 367 782 l 432 717 l 517 801 l 453 865 b 278 865 405 913 326 913 l 215 801 l 299 717 z m 367 171 b 296 190 338 171 316 178 l 483 267 l 506 277 l 506 277 l 676 347 l 643 425 b 642 426 643 425 642 425 b 642 426 642 426 642 426 b 642 427 642 426 642 427 b 642 427 642 427 642 427 b 641 428 641 428 641 428 b 633 446 639 434 636 440 b 630 452 632 448 631 450 b 623 464 627 456 625 460 b 619 469 622 466 621 467 b 610 483 616 474 614 478 l 610 483 b 361 611 554 562 462 611 b 56 306 193 611 56 474 b 60 255 56 288 57 272 b 60 255 60 255 60 255 b 63 237 61 249 62 243 b 64 235 63 236 64 236 b 68 217 65 229 67 223 b 68 217 68 217 68 217 b 82 182 72 205 77 193 b 82 181 82 182 82 181 b 90 165 84 176 87 170 b 90 164 90 165 90 164 b 121 117 99 148 109 132 l 121 117 b 371 0 178 46 268 0 b 615 97 462 0 535 29 l 506 225 b 367 171 456 183 418 171 z m 232 327 b 310 433 237 370 263 412 b 358 443 326 440 342 443 b 439 415 393 443 424 428 b 442 413 440 414 441 414 l 338 370 l 238 329 l 232 326 b 232 327 232 326 232 326 z "},"":{"ha":731,"x_min":0,"x_max":0,"o":"m 259 764 b 330 836 298 764 330 796 b 259 907 330 875 298 907 b 188 836 220 907 188 875 b 259 764 188 796 220 764 z m 472 764 b 544 836 512 764 544 796 b 472 907 544 875 512 907 b 401 836 433 907 401 875 b 472 764 401 796 433 764 z m 367 171 b 296 190 338 171 316 178 l 483 267 l 506 277 l 676 347 l 643 425 b 634 443 640 431 637 437 b 631 449 633 445 632 447 b 624 461 629 453 627 457 b 620 467 623 463 622 465 b 611 482 617 473 614 478 b 361 611 554 562 462 611 b 56 306 193 611 56 474 b 63 237 56 282 58 259 b 64 235 64 236 64 236 b 82 182 68 217 74 199 b 82 181 82 182 82 182 b 90 165 84 176 87 170 b 90 164 90 165 90 164 b 371 0 142 66 247 0 b 615 97 462 0 535 29 l 506 225 b 367 171 456 183 418 171 z m 232 327 b 310 433 237 370 263 412 b 358 443 326 440 342 443 b 439 415 393 443 424 428 b 442 413 440 414 441 414 l 338 370 l 238 329 l 232 326 b 232 327 232 326 232 326 z "},"":{"ha":347,"x_min":0,"x_max":0,"o":"m 292 803 l 140 955 l 56 870 l 208 718 z m 285 0 l 285 611 l 118 611 l 118 0 z "},"":{"ha":347,"x_min":0,"x_max":0,"o":"m 292 871 l 208 956 l 56 804 l 140 719 z m 230 0 l 230 611 l 62 611 l 62 0 z "},"":{"ha":413,"x_min":0,"x_max":0,"o":"m 203 780 b 210 780 205 782 208 782 l 273 717 l 358 801 l 294 865 b 119 865 246 913 167 913 l 56 801 l 140 717 z m 291 0 l 291 611 l 123 611 l 123 0 z "},"":{"ha":467,"x_min":0,"x_max":0,"o":"m 127 764 b 198 836 166 764 198 796 b 127 907 198 875 166 907 b 56 836 88 907 56 875 b 127 764 56 796 88 764 z m 340 764 b 412 836 380 764 412 796 b 340 907 412 875 380 907 b 269 836 301 907 269 875 b 340 764 269 796 301 764 z m 318 0 l 318 611 l 150 611 l 150 0 z "},"":{"ha":728,"x_min":0,"x_max":0,"o":"m 296 774 l 298 777 b 329 799 309 793 319 799 b 365 784 340 799 352 792 b 464 754 399 764 433 754 b 590 827 514 754 558 779 l 612 856 l 516 927 l 494 898 l 492 895 b 461 873 481 879 471 873 b 425 887 450 873 438 880 b 326 917 391 907 358 917 b 200 845 277 917 232 893 l 178 816 l 274 744 z m 405 611 b 254 565 349 611 297 594 b 140 611 224 594 184 611 l 56 611 l 56 443 l 136 443 l 136 0 l 304 0 l 304 343 b 404 443 304 398 349 443 b 505 343 460 443 505 398 l 505 0 l 673 0 l 673 343 b 404 611 673 491 553 611 z "},"":{"ha":722,"x_min":0,"x_max":0,"o":"m 462 802 l 309 954 l 225 870 l 377 718 z m 361 611 b 56 306 193 611 56 474 b 361 0 56 137 193 0 b 667 306 530 0 667 137 b 361 611 667 474 530 611 z m 361 168 b 224 306 285 168 224 230 b 361 443 224 382 285 443 b 499 306 437 443 499 382 b 361 168 499 230 437 168 z "},"":{"ha":722,"x_min":0,"x_max":0,"o":"m 497 871 l 413 956 l 261 804 l 345 719 z m 361 611 b 56 306 193 611 56 474 b 361 0 56 137 193 0 b 667 306 530 0 667 137 b 361 611 667 474 530 611 z m 361 168 b 224 306 285 168 224 230 b 361 443 224 382 285 443 b 499 306 437 443 499 382 b 361 168 499 230 437 168 z "},"":{"ha":722,"x_min":0,"x_max":0,"o":"m 358 780 b 364 780 360 782 363 782 l 428 717 l 512 801 l 449 865 b 273 865 401 913 322 913 l 210 801 l 295 717 z m 361 611 b 56 306 193 611 56 474 b 361 0 56 137 193 0 b 667 306 530 0 667 137 b 361 611 667 474 530 611 z m 361 168 b 224 306 285 168 224 230 b 361 443 224 382 285 443 b 499 306 437 443 499 382 b 361 168 499 230 437 168 z "},"":{"ha":722,"x_min":0,"x_max":0,"o":"m 262 774 l 264 777 b 295 799 275 793 285 799 b 331 784 307 799 318 792 b 430 754 365 764 399 754 b 556 827 480 754 524 779 l 578 856 l 482 927 l 460 898 l 458 895 b 427 873 447 879 437 873 b 391 887 416 873 404 880 b 292 917 357 907 324 917 b 166 845 243 917 198 893 l 144 816 l 240 744 z m 361 611 b 56 306 193 611 56 474 b 361 0 56 137 193 0 b 667 306 530 0 667 137 b 361 611 667 474 530 611 z m 361 168 b 224 306 285 168 224 230 b 361 443 224 382 285 443 b 499 306 437 443 499 382 b 361 168 499 230 437 168 z "},"":{"ha":722,"x_min":0,"x_max":0,"o":"m 255 764 b 326 836 294 764 326 796 b 255 907 326 875 294 907 b 183 836 215 907 183 875 b 255 764 183 796 215 764 z m 468 764 b 539 836 507 764 539 796 b 468 907 539 875 507 907 b 396 836 428 907 396 875 b 468 764 396 796 428 764 z m 361 611 b 56 306 193 611 56 474 b 361 0 56 137 193 0 b 667 306 530 0 667 137 b 361 611 667 474 530 611 z m 361 168 b 224 306 285 168 224 230 b 361 443 224 382 285 443 b 499 306 437 443 499 382 b 361 168 499 230 437 168 z "},"":{"ha":760,"x_min":0,"x_max":0,"o":"m 705 525 l 599 630 l 537 568 b 380 611 491 595 437 611 b 74 306 212 611 74 474 b 118 149 74 248 90 195 l 56 87 l 161 -19 l 223 43 b 380 0 269 16 323 0 b 686 306 549 0 686 137 b 642 462 686 363 670 417 z m 242 306 b 380 443 242 382 304 443 b 409 440 390 443 400 442 l 245 277 b 242 306 243 286 242 296 z m 518 306 b 380 168 518 230 456 168 b 351 171 370 168 360 169 l 515 335 b 518 306 517 325 518 316 z "},"":{"ha":728,"x_min":0,"x_max":0,"o":"m 414 802 l 262 954 l 178 870 l 330 718 z m 592 168 l 592 611 l 424 611 l 424 268 b 324 168 424 213 379 168 b 223 268 268 168 223 213 l 223 611 l 56 611 l 56 268 b 324 0 56 120 176 0 b 475 46 380 0 432 17 b 589 0 504 18 544 0 l 673 0 l 673 168 z "},"":{"ha":728,"x_min":0,"x_max":0,"o":"m 469 871 l 385 956 l 232 804 l 317 719 z m 592 168 l 592 611 l 424 611 l 424 268 b 324 168 424 213 379 168 b 223 268 268 168 223 213 l 223 611 l 56 611 l 56 268 b 324 0 56 120 176 0 b 475 46 380 0 432 17 b 589 0 504 18 544 0 l 673 0 l 673 168 z "},"":{"ha":728,"x_min":0,"x_max":0,"o":"m 321 780 b 327 780 322 782 325 782 l 390 717 l 475 801 l 412 865 b 236 865 363 913 285 913 l 173 801 l 257 717 z m 592 168 l 592 611 l 424 611 l 424 268 b 324 168 424 213 379 168 b 223 268 268 168 223 213 l 223 611 l 56 611 l 56 268 b 324 0 56 120 176 0 b 475 46 380 0 432 17 b 589 0 504 18 544 0 l 673 0 l 673 168 z "},"":{"ha":728,"x_min":0,"x_max":0,"o":"m 217 764 b 289 836 257 764 289 796 b 217 907 289 875 257 907 b 146 836 178 907 146 875 b 217 764 146 796 178 764 z m 431 764 b 502 836 470 764 502 796 b 431 907 502 875 470 907 b 359 836 391 907 359 875 b 431 764 359 796 391 764 z m 592 168 l 592 611 l 424 611 l 424 268 b 324 168 424 213 379 168 b 223 268 268 168 223 213 l 223 611 l 56 611 l 56 268 b 324 0 56 120 176 0 b 475 46 380 0 432 17 b 589 0 504 18 544 0 l 673 0 l 673 168 z "},"":{"ha":647,"x_min":0,"x_max":0,"o":"m 425 611 l 425 268 b 324 168 425 213 380 168 b 224 268 269 168 224 213 l 224 611 l 56 611 l 56 268 b 324 0 56 120 176 0 b 425 19 360 0 394 7 l 425 -137 b 324 -238 425 -193 380 -238 b 224 -137 269 -238 224 -193 l 56 -137 b 324 -406 56 -285 176 -406 b 593 -137 472 -406 593 -285 l 593 612 z m 461 871 l 377 955 l 225 803 l 309 719 z "},"":{"ha":647,"x_min":0,"x_max":0,"o":"m 217 764 b 289 836 257 764 289 796 b 217 907 289 875 257 907 b 146 836 178 907 146 875 b 217 764 146 796 178 764 z m 431 764 b 502 836 470 764 502 796 b 431 907 502 875 470 907 b 359 836 391 907 359 875 b 431 764 359 796 391 764 z m 425 611 l 425 268 b 324 168 425 213 380 168 b 224 268 269 168 224 213 l 224 611 l 56 611 l 56 268 b 324 0 56 120 176 0 b 425 19 360 0 394 7 l 425 -137 b 324 -238 425 -193 380 -238 b 224 -137 269 -238 224 -193 l 56 -137 b 324 -406 56 -285 176 -406 b 593 -137 472 -406 593 -285 l 593 612 z "},"":{"ha":1172,"x_min":0,"x_max":0,"o":"m 809 171 b 739 190 781 171 758 178 l 926 267 l 1118 347 l 1085 425 b 1076 443 1082 431 1079 437 b 1073 449 1075 445 1074 447 b 1067 461 1071 453 1069 457 b 1063 467 1065 463 1064 465 b 1053 483 1059 473 1056 478 b 803 611 996 562 904 611 b 582 516 717 611 638 575 b 361 611 527 575 448 611 b 56 306 193 611 56 474 b 361 0 56 137 193 0 b 583 95 448 0 527 37 b 813 0 640 36 721 0 b 1057 97 904 0 977 29 l 948 225 b 809 171 899 183 860 171 z m 361 168 b 224 306 285 168 224 230 b 361 443 224 382 285 443 b 498 320 432 443 491 389 b 498 306 498 315 498 310 b 498 291 498 301 498 296 b 361 168 491 222 432 168 z m 674 326 l 674 327 b 752 433 679 370 706 412 b 800 443 768 440 784 443 b 881 415 835 443 866 428 b 884 413 882 414 883 414 l 780 370 l 680 329 z "},"":{"ha":747,"x_min":0,"x_max":0,"o":"m 464 168 b 354 213 423 168 384 184 b 309 323 325 243 309 282 l 309 333 l 601 333 l 601 464 l 309 464 l 309 508 l 601 508 l 601 638 l 309 638 l 309 648 b 354 758 309 690 325 729 b 464 804 384 787 423 804 b 574 758 505 804 544 787 l 692 877 b 464 972 631 938 550 972 b 236 877 378 972 297 938 b 141 648 175 816 141 735 l 141 638 l 56 638 l 56 508 l 141 508 l 141 464 l 56 464 l 56 333 l 141 333 l 141 323 b 236 95 141 237 175 156 b 464 0 297 34 378 0 b 692 95 550 0 631 34 l 574 213 b 464 168 544 184 505 168 z "}}}
